<svg width="1164" height="1072" viewBox="0 0 1164 1072" fill="none" xmlns="http://www.w3.org/2000/svg">
<path d="M897.534 -77.8164L1163.37 137.02L550.169 895.801C493.289 966.185 426.09 1015.67 348.572 1044.27C271.561 1073.27 191.41 1079.23 108.12 1062.14C25.3355 1045.47 -52.0082 1008.07 -123.911 949.965C-244.425 852.573 -313.549 746.487 -331.283 631.708C-349.017 516.928 -312.871 403.839 -222.845 292.44L44.5138 508.504C3.59259 559.14 -17.4671 602.808 -18.6654 639.507C-19.3574 676.616 0.804284 711.743 41.8195 744.889C78.7838 774.762 118.189 784.006 160.034 772.622C202.795 761.14 244.227 730.588 284.33 680.965L897.534 -77.8164Z" fill="#F7F7F5"/>
</svg>
