<svg width="85" height="35" viewBox="0 0 85 35" fill="none" xmlns="http://www.w3.org/2000/svg">
<path fill-rule="evenodd" clip-rule="evenodd" d="M3.27986 2.92454C3.27986 2.92454 4.49727 4.5517 2.33736 6.87621C0.177439 9.2007 0.216703 12.455 0.68796 16.6391C1.15922 17.1041 2.33736 17.8944 3.27986 17.3365C3.27986 17.3365 1.94177 16.5539 1.63047 15.7094C1.3789 15.0269 1.35999 14.5251 1.63047 13.8497C1.73366 13.592 1.91866 13.4437 2.10022 13.2981C2.29955 13.1383 2.49474 12.9817 2.57297 12.6875C2.66914 12.3258 2.51999 12.1853 2.3139 11.9912C2.02726 11.7213 1.63047 11.3476 1.63047 10.1305C1.63047 8.03848 3.51548 6.87621 3.51548 6.87621V8.73585C4.06759 8.0096 5.16487 6.87621 5.16487 6.87621L5.87175 7.80602C5.87175 7.80602 7.30936 6.46375 8.46363 6.87621C9.57159 7.27212 11.0555 8.73585 10.8199 9.2007C10.5817 9.67086 9.69421 10.6163 8.86823 11.4964C8.06051 12.357 7.31148 13.155 7.28552 13.3849C7.23302 13.8497 8.46363 15.012 8.46363 15.012C8.46363 15.012 7.67468 15.4942 7.28552 16.1742C6.83317 16.9648 6.81427 18.4987 6.81427 18.4987C6.92287 18.338 7.19677 18.0693 7.57401 17.6992C9.0284 16.2722 12.0188 13.3383 12.9912 9.27966V4.01393C12.8188 3.28471 12.5702 2.53374 12.2337 1.76229C8.9349 -0.562229 7.7568 1.76229 7.7568 1.76229H5.40051C3.27986 -0.562229 0.0580898 3.14702 1.63047 3.15699C2.28112 3.16112 3.27986 2.92454 3.27986 2.92454ZM12.9912 3.35034L12.2337 1.76229C12.2337 1.76229 12.5447 2.2106 12.9912 2.93433V3.35034ZM3.51548 8.73585C3.37046 9.3081 3.58248 9.79234 3.98673 10.2427C4.23928 10.5241 4.56684 10.7922 4.92924 11.0604C5.29732 10.6065 5.56331 9.29447 5.40051 8.73585C4.66436 9.00812 4.25162 9.00812 3.51548 8.73585ZM10.1131 3.15699C9.41297 3.12511 8.228 2.22719 8.228 2.22719L10.1131 2.45964L11.7624 2.22719C11.7624 2.22719 10.8984 3.19275 10.1131 3.15699ZM5.40051 4.5517L6.10738 3.62189L6.34301 4.5517C6.34301 4.5517 6.28327 5.4815 5.87175 5.4815C5.46024 5.4815 5.40051 4.5517 5.40051 4.5517Z" fill="#7D5134"/>
<path d="M2.33737 6.87621L2.31013 6.85158L2.33737 6.87621ZM3.27988 2.92454L3.27125 2.88909L3.29506 2.88345L3.30961 2.90289L3.27988 2.92454ZM0.687977 16.6391L0.661845 16.665L0.652677 16.6559L0.651246 16.6432L0.687977 16.6391ZM3.27988 17.3365L3.29872 17.3052L3.35202 17.3363L3.29889 17.3678L3.27988 17.3365ZM1.63048 15.7094L1.59575 15.7218L1.63048 15.7094ZM1.63048 13.8497L1.59611 13.8364L1.63048 13.8497ZM2.10024 13.2981L2.12355 13.3264L2.10024 13.2981ZM2.57299 12.6875L2.53724 12.6782L2.57299 12.6875ZM2.31392 11.9912L2.28841 12.0176L2.31392 11.9912ZM3.5155 6.87621L3.49591 6.84529L3.55245 6.81043V6.87621H3.5155ZM5.16489 6.87621L5.13817 6.85103L5.16829 6.81992L5.19445 6.85433L5.16489 6.87621ZM5.87177 7.80602L5.89717 7.83249L5.86708 7.86056L5.8422 7.8279L5.87177 7.80602ZM8.46365 6.87621L8.45108 6.91049L8.46365 6.87621ZM10.8199 9.2007L10.7869 9.18444L10.8199 9.2007ZM8.86825 11.4964L8.84038 11.4724L8.84112 11.4716L8.86825 11.4964ZM8.86825 11.4964L8.89604 11.5205L8.89537 11.5212L8.86825 11.4964ZM7.28554 13.3849L7.32228 13.3889L7.28554 13.3849ZM8.46365 15.012L8.48922 14.9857L8.52367 15.0182L8.48316 15.043L8.46365 15.012ZM7.28554 16.1742L7.31773 16.1922L7.28554 16.1742ZM6.81429 18.4987L6.84503 18.519L6.77581 18.6215L6.77733 18.4983L6.81429 18.4987ZM7.57403 17.6992L7.60005 17.7251L7.57403 17.6992ZM12.9913 9.27967H13.0293L13.0273 9.28805L12.9913 9.27967ZM12.9913 4.01393L13.0282 4.00542V4.01393H12.9913ZM12.2337 1.76229L12.2552 1.73262L12.2606 1.73636L12.2643 1.74169L12.2337 1.76229ZM7.75682 1.76229L7.78986 1.77859L7.77966 1.79874H7.75682V1.76229ZM5.40052 1.76229V1.79874H5.38406L5.37306 1.78667L5.40052 1.76229ZM1.63048 3.15699L1.63025 3.19345L1.63048 3.15699ZM12.9913 3.35035H13.0282L12.9579 3.36587L12.9913 3.35035ZM12.9913 2.93433L13.0228 2.91537L13.0282 2.9241V2.93433H12.9913ZM3.98675 10.2427L4.01442 10.2185L3.98675 10.2427ZM4.92926 11.0604L4.95812 11.0831L4.93574 11.1107L4.90709 11.0895L4.92926 11.0604ZM5.40052 8.73585L5.38755 8.70166L5.42499 8.6878L5.43604 8.72572L5.40052 8.73585ZM8.22801 2.22719L8.20554 2.2561L8.09771 2.17437L8.2326 2.19101L8.22801 2.22719ZM10.1131 3.15699L10.1148 3.12057L10.1131 3.15699ZM10.1131 2.45964L10.1185 2.49705L10.1085 2.49581L10.1131 2.45964ZM11.7625 2.22719L11.7572 2.19109L11.8566 2.17709L11.7902 2.25132L11.7625 2.22719ZM6.1074 3.62189L6.07783 3.60002L6.12442 3.53874L6.14325 3.61305L6.1074 3.62189ZM5.40052 4.5517L5.36364 4.554L5.36278 4.54058L5.37096 4.52982L5.40052 4.5517ZM6.34303 4.5517L6.37888 4.54285L6.38028 4.54835L6.37991 4.554L6.34303 4.5517ZM5.87177 5.4815V5.51796V5.4815ZM8.93492 25.7047L8.90232 25.686L8.9075 25.6804L8.93492 25.7047ZM9.86393 28.4054L9.8306 28.4211L9.86393 28.4054ZM12.9913 34.3055L13.0174 34.3312L13.0066 34.3419H12.9913V34.3055ZM0.737636 17.0849L0.700899 17.0888L0.737636 17.0849ZM7.68187 30.5348L7.64661 30.5457L7.68187 30.5348ZM7.28554 34.3055V34.3419H7.21822L7.25436 34.2859L7.28554 34.3055ZM6.1074 10.662L6.08696 10.6317L6.1074 10.662ZM2.31013 6.85158C3.38436 5.69548 3.6155 4.7168 3.58168 4.03045C3.56474 3.68669 3.48127 3.41483 3.40228 3.22922C3.36278 3.13641 3.32441 3.0652 3.29607 3.0174C3.2819 2.99351 3.27024 2.97547 3.26222 2.96352C3.2582 2.95755 3.2551 2.9531 3.25304 2.9502C3.25201 2.94875 3.25124 2.94769 3.25075 2.94702C3.25051 2.94669 3.25033 2.94645 3.25023 2.94631C3.25018 2.94624 3.25015 2.9462 3.25013 2.94618C3.25013 2.94617 3.25013 2.94617 3.25013 2.94616C3.25013 2.94618 3.25014 2.94619 3.27988 2.92454C3.30961 2.90288 3.30963 2.90291 3.30965 2.90295C3.30967 2.90297 3.3097 2.90301 3.30973 2.90305C3.30979 2.90313 3.30987 2.90323 3.30997 2.90336C3.31016 2.90362 3.31042 2.90398 3.31075 2.90443C3.31141 2.90534 3.31236 2.90665 3.31357 2.90835C3.31598 2.91175 3.31945 2.91672 3.32382 2.92324C3.33258 2.93626 3.34497 2.95545 3.35987 2.98059C3.38967 3.03085 3.42954 3.10493 3.47042 3.20099C3.55219 3.39311 3.63808 3.67332 3.6555 4.02691C3.69041 4.73528 3.4503 5.73242 2.36461 6.90085L2.31013 6.85158ZM0.651246 16.6432C0.180212 12.461 0.137462 9.18983 2.31013 6.85158L2.36461 6.90085C0.21745 9.21163 0.253228 12.4491 0.724707 16.6351L0.651246 16.6432ZM3.29889 17.3678C2.81382 17.6549 2.27035 17.5934 1.79348 17.4052C1.31658 17.217 0.900164 16.9 0.661845 16.665L0.714108 16.6134C0.947047 16.8432 1.35532 17.1538 1.82094 17.3375C2.28658 17.5213 2.80343 17.576 3.26086 17.3052L3.29889 17.3678ZM1.66522 15.6969C1.81719 16.1092 2.22245 16.5107 2.59532 16.8114C2.78093 16.9611 2.95695 17.0847 3.08658 17.1708C3.15137 17.2138 3.20453 17.2475 3.24143 17.2704C3.25988 17.2818 3.27427 17.2905 3.28401 17.2964C3.28888 17.2993 3.29259 17.3015 3.29506 17.303C3.29631 17.3037 3.29723 17.3043 3.29784 17.3047C3.29815 17.3048 3.29838 17.3049 3.29852 17.305C3.2986 17.3051 3.29865 17.3051 3.29869 17.3051C3.2987 17.3052 3.29871 17.3052 3.29872 17.3052C3.29872 17.3052 3.29872 17.3052 3.27988 17.3365C3.26103 17.3679 3.26102 17.3679 3.26101 17.3679C3.26099 17.3679 3.26097 17.3679 3.26095 17.3678C3.26089 17.3678 3.26083 17.3677 3.26074 17.3677C3.26056 17.3676 3.2603 17.3674 3.25996 17.3672C3.25929 17.3669 3.25829 17.3663 3.25699 17.3655C3.25439 17.3639 3.25055 17.3617 3.24554 17.3586C3.23553 17.3526 3.22086 17.3437 3.20212 17.3321C3.16462 17.3089 3.11081 17.2748 3.0453 17.2313C2.9143 17.1442 2.73635 17.0193 2.54853 16.8679C2.17452 16.5662 1.75509 16.1541 1.59575 15.7218L1.66522 15.6969ZM1.66485 13.8631C1.53094 14.1975 1.46935 14.4872 1.47167 14.7766C1.47399 15.0663 1.54031 15.358 1.66522 15.6969L1.59575 15.7218C1.46909 15.3782 1.40016 15.0779 1.39776 14.7772C1.39535 14.4763 1.45955 14.1773 1.59611 13.8364L1.66485 13.8631ZM2.12355 13.3264C1.94149 13.4724 1.76407 13.6154 1.66485 13.8631L1.59611 13.8364C1.70329 13.5687 1.89586 13.415 2.07693 13.2698L2.12355 13.3264ZM2.60873 12.6968C2.52709 13.0038 2.3223 13.167 2.12355 13.3264L2.07693 13.2698C2.27683 13.1095 2.46242 12.9596 2.53724 12.6782L2.60873 12.6968ZM2.33944 11.9649C2.44126 12.0608 2.5356 12.149 2.5901 12.2607C2.64583 12.3749 2.65845 12.5097 2.60873 12.6968L2.53724 12.6782C2.58369 12.5035 2.56982 12.3872 2.5235 12.2923C2.47595 12.1949 2.39268 12.1158 2.28841 12.0176L2.33944 11.9649ZM1.66744 10.1305C1.66744 10.7352 1.76601 11.1272 1.89807 11.4004C2.02999 11.6732 2.19652 11.8303 2.33944 11.9649L2.28841 12.0176C2.14468 11.8823 1.96949 11.7175 1.83136 11.4317C1.69335 11.1463 1.59353 10.7429 1.59353 10.1305H1.66744ZM3.5155 6.87621C3.53508 6.90713 3.53509 6.90713 3.53509 6.90713C3.53508 6.90713 3.53507 6.90714 3.53505 6.90715C3.53501 6.90718 3.53494 6.90722 3.53484 6.90728C3.53465 6.9074 3.53434 6.90759 3.53392 6.90785C3.53308 6.90838 3.53179 6.90918 3.53008 6.91028C3.52665 6.91245 3.5215 6.91575 3.51474 6.92017C3.50122 6.92901 3.48127 6.94231 3.4558 6.96003C3.40487 6.99547 3.33191 7.04855 3.24427 7.1188C3.06894 7.25934 2.83507 7.46842 2.60126 7.74236C2.13349 8.29033 1.66744 9.09584 1.66744 10.1305H1.59353C1.59353 9.07317 2.06998 8.25154 2.54472 7.69533C2.78216 7.41723 3.01955 7.20497 3.19766 7.0622C3.28673 6.9908 3.36105 6.93674 3.4132 6.90045C3.43928 6.8823 3.45982 6.86859 3.47392 6.85938C3.48096 6.85478 3.4864 6.85129 3.4901 6.84895C3.49195 6.84777 3.49337 6.84687 3.49434 6.84627C3.49483 6.84596 3.49521 6.84573 3.49546 6.84557C3.4956 6.84549 3.4957 6.84542 3.49578 6.84538C3.49581 6.84536 3.49585 6.84534 3.49586 6.84532C3.49589 6.84531 3.49591 6.84529 3.5155 6.87621ZM3.47854 8.73585V6.87621H3.55245V8.73585H3.47854ZM5.16489 6.87621C5.19161 6.90139 5.19161 6.90139 5.19161 6.9014C5.1916 6.90141 5.19158 6.90142 5.19157 6.90144C5.19153 6.90147 5.19149 6.90153 5.19142 6.90159C5.19129 6.90173 5.1911 6.90193 5.19083 6.9022C5.19031 6.90274 5.18952 6.90356 5.18848 6.90464C5.1864 6.90679 5.18329 6.91001 5.17921 6.91423C5.17107 6.92269 5.15903 6.93521 5.14351 6.95139C5.11247 6.98375 5.0675 7.03081 5.01181 7.08956C4.90041 7.20705 4.74613 7.37129 4.57463 7.55818C4.23137 7.93217 3.82002 8.39606 3.54506 8.75773L3.48593 8.71398C3.76309 8.3494 4.17643 7.88338 4.51984 7.50918C4.69167 7.322 4.84623 7.15746 4.95782 7.03975C5.01362 6.98089 5.05869 6.93373 5.08981 6.90127C5.10538 6.88505 5.11746 6.87249 5.12565 6.864C5.12974 6.85974 5.13287 6.85651 5.13497 6.85433C5.13602 6.85324 5.13682 6.85242 5.13735 6.85187C5.13762 6.85159 5.13782 6.85138 5.13796 6.85124C5.13803 6.85118 5.13808 6.85112 5.13811 6.85108C5.13813 6.85107 5.13814 6.85105 5.13815 6.85104C5.13816 6.85104 5.13817 6.85103 5.16489 6.87621ZM5.8422 7.8279L5.13532 6.89808L5.19445 6.85433L5.90133 7.78415L5.8422 7.8279ZM8.45108 6.91049C7.89023 6.71008 7.25514 6.93507 6.7532 7.21809C6.50341 7.35897 6.28919 7.51268 6.13738 7.63131C6.0615 7.69059 6.00131 7.74105 5.96014 7.77656C5.93956 7.79435 5.92374 7.80843 5.91311 7.81798C5.90779 7.82279 5.90377 7.82644 5.9011 7.82884C5.89976 7.83008 5.89876 7.83103 5.8981 7.83161C5.89778 7.83191 5.89754 7.83212 5.89738 7.83227C5.8973 7.83234 5.89725 7.83242 5.89721 7.83249C5.8972 7.83249 5.89719 7.83249 5.89718 7.83249C5.89717 7.83249 5.89717 7.83249 5.87177 7.80602C5.84637 7.77955 5.84638 7.77955 5.8464 7.77948C5.84641 7.77948 5.84644 7.77948 5.84646 7.77948C5.84652 7.77941 5.84659 7.77933 5.84669 7.77926C5.84688 7.77904 5.84716 7.77882 5.84753 7.77846C5.84826 7.7778 5.84935 7.77678 5.85077 7.77547C5.85361 7.77284 5.8578 7.76905 5.86329 7.76409C5.87428 7.75425 5.89048 7.73981 5.91145 7.72173C5.95342 7.68549 6.01455 7.63423 6.09149 7.57415C6.2453 7.45398 6.46263 7.29794 6.71652 7.15479C7.22196 6.86979 7.88284 6.62987 8.47629 6.84193L8.45108 6.91049ZM10.7869 9.18444C10.8111 9.13675 10.8149 9.07266 10.7958 8.99186C10.7768 8.91136 10.7357 8.81803 10.6751 8.71544C10.5539 8.51032 10.3583 8.27385 10.1195 8.03841C9.64167 7.567 8.99819 7.10598 8.45108 6.91049L8.47629 6.84193C9.03714 7.04235 9.68957 7.51115 10.1718 7.98678C10.4131 8.22485 10.6135 8.46628 10.7389 8.67869C10.8016 8.78485 10.8465 8.88526 10.8678 8.97531C10.889 9.06515 10.8878 9.14842 10.853 9.21703L10.7869 9.18444ZM8.84112 11.4716C9.25422 11.0315 9.68218 10.5755 10.0365 10.171C10.3919 9.76529 10.6702 9.41471 10.7869 9.18444L10.853 9.21703C10.7314 9.45678 10.4469 9.814 10.0925 10.2187C9.7371 10.6244 9.30825 11.0813 8.89537 11.5212L8.84112 11.4716ZM8.84038 11.4724L8.89604 11.5204L8.84038 11.4724ZM7.24881 13.3808C7.25286 13.3451 7.27012 13.3025 7.29525 13.2559C7.32081 13.2085 7.35631 13.1537 7.40004 13.0928C7.48748 12.9708 7.60966 12.8216 7.75564 12.6534C8.04767 12.317 8.43741 11.9017 8.84112 11.4716L8.89537 11.5212C8.49129 11.9516 8.10266 12.3657 7.81181 12.7008C7.66635 12.8685 7.54587 13.0157 7.46035 13.1349C7.41763 13.1945 7.38403 13.2465 7.3605 13.2902C7.33654 13.3346 7.32472 13.3672 7.32228 13.3889L7.24881 13.3808ZM8.46365 15.012C8.43815 15.0383 8.43815 15.0383 8.43807 15.0383V15.0383C8.438 15.0383 8.43793 15.0382 8.43785 15.0381C8.43771 15.038 8.43748 15.0378 8.43719 15.0375C8.4366 15.0369 8.43571 15.036 8.43453 15.0349C8.43216 15.0326 8.42869 15.0294 8.4241 15.025C8.41501 15.0163 8.40178 15.0035 8.38493 14.9871C8.35123 14.9543 8.30318 14.9069 8.24568 14.8485C8.13082 14.7319 7.97804 14.5715 7.82681 14.3964C7.67574 14.2214 7.5254 14.0309 7.41593 13.8542C7.36122 13.7659 7.31618 13.6801 7.28644 13.6009C7.25686 13.5221 7.24135 13.4469 7.24881 13.3808L7.32228 13.3889C7.31661 13.439 7.32807 13.5018 7.35575 13.5756C7.38326 13.6489 7.42576 13.7302 7.47898 13.8162C7.58556 13.9882 7.73302 14.1754 7.88306 14.3491C8.03288 14.5227 8.18448 14.6818 8.29867 14.7977C8.35581 14.8556 8.40348 14.9027 8.43689 14.9352C8.4536 14.9515 8.46668 14.9641 8.47562 14.9727C8.48006 14.9769 8.48353 14.9802 8.48582 14.9824C8.48693 14.9835 8.48782 14.9843 8.48841 14.9849C8.4887 14.9851 8.48893 14.9853 8.489 14.9855C8.48907 14.9855 8.48915 14.9856 8.48922 14.9856C8.48922 14.9856 8.48922 14.9856 8.48922 14.9857C8.48922 14.9857 8.48922 14.9857 8.46365 15.012ZM7.25336 16.1564C7.45097 15.811 7.74928 15.5171 7.99667 15.3103C8.12054 15.2067 8.23223 15.1245 8.31301 15.0682C8.35337 15.04 8.38604 15.0184 8.40866 15.0036C8.42004 14.9963 8.42884 14.9906 8.43482 14.9869C8.43785 14.985 8.44014 14.9835 8.4417 14.9826C8.44251 14.982 8.4431 14.9817 8.44354 14.9815C8.44377 14.9813 8.44391 14.9812 8.44399 14.9811C8.44406 14.9811 8.44414 14.9811 8.44414 14.981H8.44421C8.44421 14.981 8.44421 14.981 8.46365 15.012C8.48316 15.043 8.48316 15.043 8.48316 15.043C8.48309 15.043 8.48309 15.043 8.48301 15.0431C8.48294 15.0431 8.48287 15.0431 8.48264 15.0433C8.48235 15.0435 8.48176 15.0438 8.48109 15.0442C8.47961 15.0452 8.47747 15.0465 8.47459 15.0483C8.4689 15.0519 8.46032 15.0574 8.44931 15.0645C8.42728 15.0788 8.39528 15.1001 8.35566 15.1277C8.27628 15.1831 8.16637 15.2639 8.04441 15.3659C7.80006 15.5703 7.50921 15.8576 7.31773 16.1922L7.25336 16.1564ZM6.81429 18.4987C6.77733 18.4983 6.77733 18.4983 6.77733 18.4983V18.4982C6.77733 18.4982 6.77733 18.4981 6.77733 18.498C6.77734 18.4978 6.77734 18.4975 6.77734 18.4971C6.77736 18.4963 6.77737 18.4952 6.7774 18.4937C6.77745 18.4907 6.77753 18.4863 6.77766 18.4806C6.77791 18.469 6.77834 18.452 6.77904 18.4301C6.78045 18.3864 6.78297 18.3231 6.7874 18.2447C6.79628 18.0879 6.81285 17.8706 6.84361 17.6284C6.90496 17.1456 7.02337 16.5583 7.25336 16.1564L7.31773 16.1922C7.09536 16.5808 6.97815 17.1558 6.91695 17.6375C6.88645 17.8776 6.87001 18.0932 6.86121 18.2488C6.8568 18.3265 6.85431 18.3892 6.85291 18.4325C6.85222 18.4541 6.8518 18.4708 6.85155 18.4821C6.85143 18.4878 6.85135 18.4921 6.8513 18.4949C6.85128 18.4964 6.85126 18.4975 6.85125 18.4982C6.85124 18.4985 6.85124 18.4988 6.85124 18.499C6.85124 18.499 6.85124 18.4991 6.85124 18.4992C6.85124 18.4992 6.85124 18.4992 6.81429 18.4987ZM7.60005 17.7251C7.41135 17.9102 7.24894 18.0696 7.12015 18.2027C6.99091 18.3363 6.89735 18.4416 6.84503 18.519L6.78353 18.4785C6.83982 18.3953 6.93751 18.2858 7.06668 18.1523C7.19628 18.0184 7.35945 17.8583 7.54794 17.6734L7.60005 17.7251ZM13.0273 9.28805C12.0521 13.358 9.05407 16.2985 7.60005 17.7251L7.54794 17.6734C9.00277 16.246 11.9855 13.3186 12.9553 9.27128L13.0273 9.28805ZM13.0282 4.01393V9.27967H12.9543V4.01393H13.0282ZM12.2677 1.74787C12.605 2.52124 12.8543 3.27426 13.0273 4.00565L12.9553 4.02221C12.7833 3.29516 12.5354 2.54623 12.1998 1.77669L12.2677 1.74787ZM7.75682 1.76229C7.72378 1.74597 7.72378 1.74595 7.72378 1.7459C7.72378 1.74588 7.72385 1.74583 7.72385 1.74578C7.72393 1.74568 7.724 1.74554 7.72407 1.74536C7.72422 1.74501 7.72452 1.74453 7.72481 1.74391C7.72548 1.74267 7.72637 1.74088 7.72762 1.73858C7.73014 1.73398 7.73376 1.72732 7.73864 1.7188C7.74847 1.70177 7.7631 1.67731 7.78284 1.64716C7.82231 1.58686 7.88232 1.50366 7.96466 1.41132C8.12941 1.22668 8.38412 1.00486 8.744 0.856938C9.46643 0.559987 10.5992 0.5657 12.2552 1.73262L12.2122 1.79195C10.5694 0.634353 9.46377 0.640066 8.77246 0.924247C8.42544 1.06688 8.17945 1.28091 8.02017 1.45948C7.94057 1.54874 7.88269 1.62898 7.84492 1.68673C7.826 1.71559 7.81211 1.73881 7.80301 1.7547C7.79843 1.76263 7.7951 1.76873 7.79289 1.77279C7.79185 1.77481 7.79104 1.77633 7.79052 1.77731C7.7903 1.7778 7.79008 1.77815 7.79001 1.77836C7.78993 1.77847 7.78986 1.77854 7.78986 1.77858C7.78986 1.7786 7.78986 1.7786 7.78986 1.77861C7.78986 1.7786 7.78986 1.77859 7.75682 1.76229ZM5.40052 1.72583H7.75682V1.79874H5.40052V1.72583ZM1.63025 3.19345C1.4273 3.19216 1.2898 3.1309 1.22219 3.01732C1.15572 2.90567 1.16473 2.75605 1.22322 2.59564C1.34061 2.27366 1.66824 1.87639 2.10863 1.5549C2.54975 1.23289 3.10917 0.983077 3.69433 0.961719C4.28108 0.940296 4.89058 1.14882 5.428 1.7379L5.37306 1.78667C4.85014 1.21349 4.26168 1.01397 3.69706 1.03458C3.13083 1.05525 2.58546 1.29752 2.15261 1.61351C1.71902 1.93002 1.40349 2.31663 1.29277 2.62031C1.23719 2.77273 1.2359 2.89637 1.28592 2.9804C1.33479 3.06249 1.44058 3.11932 1.63072 3.12053L1.63025 3.19345ZM3.27988 2.92454C3.28851 2.95999 3.2885 2.95999 3.28849 2.95999C3.28848 2.95999 3.28846 2.96 3.28845 2.96C3.28841 2.96001 3.28837 2.96002 3.2883 2.96004C3.28818 2.96007 3.28798 2.96011 3.28773 2.96017C3.28724 2.96028 3.28651 2.96046 3.28554 2.96069C3.28359 2.96115 3.28072 2.96182 3.27695 2.96268C3.26942 2.96443 3.25831 2.96699 3.24395 2.97023C3.21523 2.97673 3.17352 2.98598 3.12146 2.99708C3.01734 3.01926 2.87174 3.04879 2.7057 3.0782C2.37429 3.1369 1.95915 3.19554 1.63025 3.19345L1.63072 3.12053C1.95246 3.12258 2.36202 3.06499 2.69264 3.00643C2.85763 2.9772 3.00238 2.94785 3.10585 2.9258C3.15759 2.91478 3.19899 2.90559 3.22743 2.89916C3.24166 2.89594 3.25264 2.89342 3.26005 2.8917C3.26375 2.89085 3.26657 2.89018 3.26845 2.88975C3.26939 2.88953 3.2701 2.88936 3.27056 2.88925C3.2708 2.88919 3.27098 2.88915 3.27109 2.88913C3.27115 2.88911 3.27118 2.8891 3.27121 2.8891C3.27123 2.8891 3.27123 2.88909 3.27124 2.88909C3.27125 2.88909 3.27125 2.88909 3.27988 2.92454ZM12.9579 3.36587L12.2003 1.77781L12.2671 1.74676L13.0247 3.33482L12.9579 3.36587ZM12.2337 1.76229C12.2643 1.74169 12.2643 1.7417 12.2643 1.7417C12.2643 1.74171 12.2643 1.74172 12.2643 1.74172C12.2643 1.74174 12.2643 1.74176 12.2643 1.74179C12.2643 1.74185 12.2644 1.74193 12.2645 1.74204C12.2646 1.74227 12.2648 1.7426 12.2651 1.74304C12.2657 1.74393 12.2667 1.74525 12.2679 1.74699C12.2703 1.75047 12.2739 1.75567 12.2786 1.76253C12.288 1.77626 12.3019 1.79666 12.32 1.82338C12.3562 1.87684 12.4091 1.95562 12.476 2.05703C12.6097 2.25983 12.7993 2.55315 13.0228 2.91537L12.9597 2.95328C12.7366 2.59177 12.5474 2.29907 12.414 2.09679C12.3473 1.99565 12.2946 1.91712 12.2586 1.8639C12.2405 1.83729 12.2267 1.817 12.2173 1.80339C12.2127 1.79658 12.2091 1.79144 12.2068 1.788C12.2056 1.78628 12.2047 1.785 12.2041 1.78414C12.2038 1.78371 12.2036 1.78339 12.2034 1.78318C12.2034 1.78307 12.2033 1.78299 12.2033 1.78294C12.2033 1.78291 12.2033 1.7829 12.2032 1.78288C12.2032 1.78288 12.2032 1.78288 12.2032 1.78287C12.2032 1.78287 12.2032 1.78287 12.2337 1.76229ZM13.0282 2.93433V3.35035H12.9543V2.93433H13.0282ZM3.95908 10.2669C3.55021 9.81137 3.33059 9.31518 3.47965 8.72696L3.55135 8.74468C3.41035 9.30103 3.61479 9.77331 4.01442 10.2185L3.95908 10.2669ZM4.90709 11.0895C4.54409 10.8209 4.21414 10.551 3.95908 10.2669L4.01442 10.2185C4.26445 10.4971 4.58963 10.7634 4.95143 11.0312L4.90709 11.0895ZM5.43604 8.72572C5.51999 9.01381 5.49262 9.48865 5.40021 9.94452C5.3078 10.4003 5.14792 10.8491 4.95812 11.0831L4.9004 11.0375C5.07868 10.8177 5.23584 10.3835 5.32773 9.93023C5.41963 9.47691 5.44386 9.01644 5.36501 8.74592L5.43604 8.72572ZM3.52847 8.70166C3.89456 8.83713 4.17706 8.90363 4.45801 8.90363C4.73896 8.90363 5.02146 8.83713 5.38755 8.70166L5.4135 8.76998C5.04344 8.90684 4.7515 8.97655 4.45801 8.97655C4.16452 8.97655 3.87258 8.90684 3.50252 8.76998L3.52847 8.70166ZM8.22801 2.22719C8.25056 2.19827 8.25056 2.19827 8.25056 2.19828C8.25056 2.19828 8.25056 2.19829 8.25063 2.1983C8.25063 2.19833 8.2507 2.19836 8.25078 2.19842C8.25085 2.19851 8.25107 2.19867 8.25137 2.19887C8.25189 2.19929 8.25277 2.19992 8.25388 2.20076C8.2561 2.20242 8.25943 2.20491 8.26379 2.20817C8.27251 2.21468 8.28552 2.22427 8.3023 2.23651C8.33585 2.26098 8.38464 2.29601 8.44539 2.33817C8.5669 2.4225 8.73617 2.53524 8.92716 2.64892C9.11815 2.76265 9.33035 2.87698 9.53775 2.96475C9.74574 3.05277 9.94627 3.1129 10.1148 3.12057L10.1114 3.19341C9.92979 3.18515 9.71973 3.12108 9.50863 3.03177C9.29702 2.94222 9.08164 2.82608 8.88894 2.71135C8.69611 2.59656 8.52537 2.48283 8.40289 2.39781C8.34162 2.35528 8.29232 2.31992 8.25839 2.29515C8.24139 2.28277 8.22824 2.27304 8.21929 2.26639C8.21478 2.26306 8.21138 2.2605 8.20909 2.25877C8.20791 2.2579 8.20702 2.25724 8.20643 2.2568C8.20614 2.25657 8.20591 2.2564 8.20577 2.25628C8.20569 2.25622 8.20562 2.25618 8.20562 2.25615C8.20562 2.25614 8.20554 2.25612 8.20554 2.25611C8.20554 2.25611 8.20554 2.2561 8.22801 2.22719ZM10.1085 2.49581L8.22343 2.26336L8.2326 2.19101L10.1177 2.42346L10.1085 2.49581ZM11.7677 2.26327L10.1183 2.49573L10.1078 2.42355L11.7572 2.19109L11.7677 2.26327ZM10.1148 3.12057C10.4934 3.13782 10.8966 2.9127 11.2098 2.67653C11.3654 2.5592 11.4968 2.44066 11.5894 2.35142C11.6356 2.30683 11.6721 2.26961 11.6969 2.24359C11.7093 2.23059 11.7189 2.22039 11.7252 2.21347C11.7285 2.21002 11.7308 2.20738 11.7325 2.20562C11.7333 2.20474 11.7339 2.20409 11.7342 2.20366C11.7344 2.20344 11.7345 2.20328 11.7347 2.20318C11.7347 2.20313 11.7347 2.2031 11.7347 2.20307C11.7347 2.20307 11.7347 2.20306 11.7347 2.20305C11.7347 2.20305 11.7347 2.20306 11.7625 2.22719C11.7902 2.25132 11.7902 2.25132 11.7902 2.25134C11.7901 2.25135 11.7901 2.25136 11.7901 2.25138C11.7901 2.25142 11.79 2.25147 11.79 2.25154C11.7898 2.25167 11.7897 2.25186 11.7894 2.25211C11.789 2.25261 11.7883 2.25334 11.7874 2.25428C11.7857 2.25618 11.7832 2.25897 11.7799 2.26257C11.7733 2.26978 11.7634 2.28029 11.7507 2.29361C11.7252 2.32026 11.688 2.3582 11.641 2.40357C11.547 2.49425 11.4133 2.61487 11.2548 2.73446C10.9395 2.97213 10.5181 3.21193 10.1114 3.19341L10.1148 3.12057ZM6.13696 3.64377L5.43009 4.57357L5.37096 4.52982L6.07783 3.60002L6.13696 3.64377ZM6.30718 4.56054L6.07155 3.63073L6.14325 3.61305L6.37888 4.54285L6.30718 4.56054ZM5.87177 5.44504C5.95834 5.44504 6.02943 5.39677 6.089 5.31495C6.14882 5.2328 6.19344 5.12127 6.22615 5.00671C6.25871 4.89267 6.27875 4.77824 6.29064 4.69206C6.29658 4.64904 6.30046 4.61322 6.30287 4.58821C6.30406 4.57572 6.30489 4.56593 6.30541 4.5593C6.30568 4.55599 6.30586 4.55348 6.30598 4.5518C6.30604 4.55097 6.30608 4.55034 6.30611 4.54994C6.30612 4.54974 6.30613 4.54959 6.30614 4.5495C6.30614 4.54945 6.30614 4.54942 6.30614 4.5494C6.30615 4.54939 6.30615 4.54939 6.30615 4.54939C6.30615 4.54939 6.30615 4.54939 6.34303 4.5517C6.37991 4.554 6.37991 4.55402 6.37991 4.55403C6.37991 4.55404 6.37991 4.55405 6.37991 4.55408C6.3799 4.55411 6.3799 4.55417 6.37989 4.55424C6.37989 4.55437 6.37988 4.55456 6.37986 4.5548C6.37983 4.55529 6.37977 4.556 6.37971 4.55693C6.37957 4.55877 6.37938 4.56147 6.3791 4.56497C6.37855 4.57197 6.37769 4.58216 6.37645 4.59508C6.37397 4.62093 6.36997 4.65775 6.36388 4.7019C6.35172 4.79006 6.3311 4.90808 6.29729 5.02649C6.26363 5.14439 6.21615 5.2653 6.14903 5.35749C6.08167 5.45001 5.99096 5.51796 5.87177 5.51796V5.44504ZM5.40052 4.5517C5.4374 4.54939 5.4374 4.54939 5.4374 4.54939C5.4374 4.54939 5.4374 4.54939 5.4374 4.5494C5.4374 4.54942 5.43741 4.54945 5.43741 4.5495C5.43742 4.54959 5.43743 4.54974 5.43744 4.54994C5.43747 4.55034 5.43752 4.55097 5.43757 4.5518C5.43769 4.55348 5.43788 4.55599 5.43814 4.5593C5.43866 4.56593 5.43949 4.57572 5.44069 4.58821C5.44308 4.61322 5.44697 4.64904 5.4529 4.69206C5.4648 4.77824 5.48483 4.89267 5.5174 5.00671C5.55011 5.12127 5.59473 5.2328 5.65455 5.31495C5.71412 5.39677 5.7852 5.44504 5.87177 5.44504V5.51796C5.75258 5.51796 5.66188 5.45001 5.59451 5.35749C5.52739 5.2653 5.47992 5.14439 5.44626 5.02648C5.41244 4.90808 5.39184 4.79006 5.37967 4.7019C5.37357 4.65775 5.36958 4.62093 5.3671 4.59508C5.36586 4.58216 5.365 4.57197 5.36445 4.56497C5.36417 4.56147 5.36397 4.55877 5.36384 4.55693C5.36378 4.556 5.36373 4.55529 5.36369 4.5548C5.36368 4.55456 5.36366 4.55437 5.36365 4.55424C5.36365 4.55417 5.36365 4.55411 5.36365 4.55408C5.36365 4.55405 5.36364 4.55404 5.36364 4.55403C5.36364 4.55402 5.36364 4.554 5.40052 4.5517ZM8.97143 25.6989C9.16457 26.8738 9.54027 27.6512 9.89734 28.3897L9.8306 28.4211C9.47315 27.6817 9.09339 26.8964 8.89848 25.7106L8.97143 25.6989ZM9.89734 28.3897C10.2269 29.0716 10.5415 29.7218 10.6767 30.6177C10.8119 31.5135 10.7674 32.6523 10.3847 34.3136L10.3127 34.2974C10.694 32.6418 10.737 31.5125 10.6036 30.6284C10.4702 29.7445 10.1603 29.1031 9.8306 28.4211L9.89734 28.3897ZM10.3487 34.269H12.9913V34.3419H10.3487V34.269ZM13.0188 21.2828L8.96241 25.7292L8.9075 25.6804L12.9638 21.2341L13.0188 21.2828ZM8.96685 25.7231L7.31746 28.5125L7.25363 28.4758L8.90299 25.6864L8.96685 25.7231ZM7.25993 28.5205C4.30689 25.7192 2.77359 23.833 1.92548 22.1599C1.07691 20.4859 0.915656 19.0275 0.700899 17.0888L0.774371 17.0809C0.989244 19.0205 1.14972 20.4665 1.99159 22.1273C2.83391 23.789 4.35975 25.6683 7.31116 28.4679L7.25993 28.5205ZM0.700899 17.0888C0.684754 16.9431 0.668308 16.7947 0.651246 16.6432L0.724707 16.6351C0.741776 16.7867 0.758229 16.9352 0.774371 17.0809L0.700899 17.0888ZM7.3225 28.4942C7.3225 29.2854 7.52444 29.9195 7.71713 30.5239L7.64661 30.5457C7.454 29.9417 7.24858 29.2979 7.24858 28.4942H7.3225ZM7.71713 30.5239C7.89467 31.0807 8.06504 31.6143 8.05513 32.217C8.04523 32.821 7.85446 33.4914 7.31673 34.325L7.25436 34.2859C7.78638 33.4612 7.97161 32.8038 7.98122 32.2158C7.99098 31.6267 7.82467 31.1041 7.64661 30.5457L7.71713 30.5239ZM7.28554 34.269H10.3487V34.3419H7.28554V34.269ZM12.9651 34.2797C12.9769 34.2681 12.9885 34.2566 13.0001 34.2451L13.0525 34.2966C13.0408 34.3081 13.0291 34.3197 13.0174 34.3312L12.9651 34.2797ZM4.92926 11.0239C5.34152 11.0239 5.73549 10.8619 6.08696 10.6317L6.12784 10.6924C5.76933 10.9273 5.36115 11.0968 4.92926 11.0968V11.0239ZM6.08696 10.6317C6.49979 10.3612 6.85058 9.99892 7.09859 9.70324C7.22247 9.55558 7.32041 9.42492 7.38735 9.33122C7.42081 9.28441 7.44653 9.24678 7.46383 9.22097C7.47247 9.20806 7.47898 9.19815 7.48334 9.19144C7.48556 9.18808 7.48718 9.18553 7.48829 9.18385C7.48881 9.18298 7.48918 9.1824 7.48947 9.18196C7.48962 9.18174 7.4897 9.18159 7.48977 9.18152C7.48977 9.18145 7.48977 9.18145 7.48984 9.18145C7.48984 9.18137 7.48984 9.18137 7.48984 9.18137C7.48984 9.18137 7.48984 9.18137 7.52118 9.2007C7.55252 9.22002 7.55252 9.22002 7.55252 9.22009H7.55245C7.55245 9.22017 7.55237 9.22017 7.55237 9.22024C7.5523 9.22039 7.55215 9.22053 7.552 9.22082C7.55171 9.22126 7.55127 9.22199 7.55067 9.22286C7.54957 9.22469 7.54779 9.22731 7.54557 9.23081C7.54099 9.23781 7.53427 9.24802 7.52547 9.26122C7.50781 9.28754 7.48171 9.32575 7.44779 9.37322C7.37994 9.46816 7.28083 9.60035 7.15554 9.74976C6.90518 10.0482 6.54909 10.4165 6.12784 10.6924L6.08696 10.6317ZM7.26337 13.414C6.78168 13.0576 6.48449 12.3664 6.30757 11.7722C6.21875 11.4739 6.15956 11.1976 6.12258 10.9959C6.10408 10.8951 6.09113 10.8127 6.08278 10.7556C6.07862 10.7271 6.0756 10.7048 6.07362 10.6897C6.07264 10.682 6.0719 10.6762 6.07142 10.6723C6.07118 10.6703 6.07099 10.6688 6.07088 10.6678C6.07081 10.6673 6.07077 10.6669 6.07074 10.6666C6.07072 10.6665 6.07071 10.6664 6.0707 10.6663C6.07069 10.6663 6.07069 10.6662 6.07069 10.6662C6.07068 10.6662 6.07068 10.6662 6.1074 10.662C6.14412 10.6579 6.14412 10.6579 6.14412 10.6579C6.14412 10.6579 6.14412 10.6579 6.14412 10.6579C6.14413 10.658 6.14414 10.6581 6.14415 10.6582C6.14418 10.6584 6.14422 10.6588 6.14428 10.6592C6.14439 10.6602 6.14456 10.6616 6.14479 10.6635C6.14526 10.6673 6.14596 10.6729 6.14693 10.6803C6.14886 10.6951 6.15183 10.7171 6.15594 10.7452C6.16418 10.8016 6.17699 10.883 6.19531 10.9829C6.23196 11.1828 6.29059 11.4564 6.37849 11.7517C6.55501 12.3446 6.8469 13.0148 7.30772 13.3557L7.26337 13.414ZM5.40052 8.6994C5.56812 8.6994 5.67521 8.64471 5.74456 8.56654C5.8151 8.48699 5.8503 8.37885 5.86456 8.26642C5.87876 8.15427 5.87171 8.04132 5.86087 7.95579C5.85547 7.91321 5.84918 7.8777 5.84425 7.85298C5.84179 7.84066 5.83968 7.83096 5.83819 7.82447C5.83745 7.82119 5.83687 7.81871 5.83648 7.8171C5.83628 7.8163 5.83613 7.81572 5.83604 7.81535C5.83599 7.81513 5.83596 7.81499 5.83594 7.81492C5.83593 7.81492 5.83592 7.81484 5.83591 7.81484C5.83591 7.81484 5.83592 7.81484 5.87177 7.80602C5.90762 7.7972 5.90763 7.7972 5.90763 7.7972C5.90764 7.7972 5.90764 7.79727 5.90765 7.79727C5.90766 7.79727 5.90768 7.79734 5.90769 7.79742C5.90773 7.79756 5.90778 7.79778 5.90785 7.79807C5.90797 7.79858 5.90815 7.79931 5.90838 7.80026C5.90884 7.80216 5.90949 7.80493 5.9103 7.80843C5.91193 7.81557 5.91418 7.82585 5.91678 7.83891C5.92198 7.86508 5.92857 7.9022 5.93422 7.94675C5.94547 8.03564 5.95314 8.15515 5.9379 8.27546C5.9227 8.39541 5.88427 8.51973 5.80018 8.61452C5.7149 8.7107 5.58637 8.77231 5.40052 8.77231V8.6994ZM2.54089 12.6694L3.95465 10.2247L4.01885 10.2608L2.60509 12.7056L2.54089 12.6694Z" fill="black"/>
<path fill-rule="evenodd" clip-rule="evenodd" d="M12.9913 34.2415C12.9698 34.2628 12.9483 34.2841 12.9267 34.3055H10.3487H7.28556C8.35529 32.6471 8.03746 31.65 7.68186 30.5348C7.48925 29.9306 7.28556 29.2917 7.28556 28.4942C1.38111 22.8934 1.16728 20.9632 0.737647 17.0849C0.721504 16.9392 0.705055 16.7907 0.687988 16.6391C1.15924 17.1041 2.33738 17.8944 3.27989 17.3365C3.27989 17.3365 1.9418 16.5539 1.63049 15.7094C1.37892 15.0269 1.36001 14.5251 1.63049 13.8497C1.73369 13.592 1.91869 13.4437 2.10025 13.2981C2.29958 13.1383 2.49476 12.9817 2.573 12.6875L3.98677 10.2427C4.2393 10.5241 4.56687 10.7922 4.92928 11.0604C5.35135 11.0604 5.75242 10.8946 6.10741 10.662C6.10741 10.662 6.34304 12.6875 7.28556 13.3849C7.23306 13.8497 8.46372 15.012 8.46372 15.012C8.46372 15.012 7.67469 15.4942 7.28556 16.1742C6.8332 16.9648 6.81429 18.4987 6.81429 18.4987C6.9229 18.338 7.1968 18.0693 7.57402 17.6992C9.02849 16.2722 12.0188 13.3383 12.9913 9.27967V34.2415ZM12.9913 4.01393C12.8188 3.28471 12.5703 2.53374 12.2337 1.76229L12.9913 3.35035V4.01393ZM5.1649 6.87621L5.87178 7.80602C5.87178 7.80602 6.10741 8.73586 5.40054 8.73586C4.66439 9.00813 4.25166 9.00813 3.51551 8.73586C4.06762 8.00961 5.1649 6.87621 5.1649 6.87621ZM6.10741 3.6219L5.40054 4.5517C5.40054 4.5517 5.46027 5.4815 5.87178 5.4815C6.2833 5.4815 6.34304 4.5517 6.34304 4.5517L6.10741 3.6219ZM10.1131 3.15699C9.41305 3.12511 8.22808 2.22719 8.22808 2.22719L10.1131 2.45964L11.7625 2.22719C11.7625 2.22719 10.8985 3.19275 10.1131 3.15699Z" fill="white"/>
<path d="M12.9912 34.2415H13.0282V34.2565L13.0175 34.2672L12.9912 34.2415ZM12.9266 34.3055L12.9528 34.3312L12.9419 34.3419H12.9266V34.3055ZM7.28555 34.3055V34.3419H7.21822L7.25437 34.2859L7.28555 34.3055ZM7.68185 30.5348L7.6466 30.5457L7.68185 30.5348ZM7.28555 28.4942L7.31116 28.4679L7.3225 28.4786V28.4942H7.28555ZM0.737636 17.0849L0.700898 17.0888L0.737636 17.0849ZM0.687977 16.6391L0.651246 16.6432L0.639611 16.5399L0.714108 16.6134L0.687977 16.6391ZM3.27988 17.3365L3.29873 17.3052L3.35203 17.3363L3.29889 17.3678L3.27988 17.3365ZM1.63048 15.7094L1.59576 15.7218L1.63048 15.7094ZM1.63048 13.8497L1.59611 13.8364L1.63048 13.8497ZM2.10023 13.2981L2.12355 13.3264L2.10023 13.2981ZM2.57299 12.6875L2.53597 12.6779L2.54089 12.6694L2.57299 12.6875ZM3.98675 10.2427L3.95465 10.2247L3.98022 10.1804L4.01442 10.2185L3.98675 10.2427ZM4.92926 11.0604V11.0968H4.91694L4.90709 11.0895L4.92926 11.0604ZM6.1074 10.662L6.08696 10.6317L6.13723 10.5987L6.14411 10.6579L6.1074 10.662ZM7.28555 13.3849L7.30772 13.3557L7.32462 13.3682L7.32227 13.3889L7.28555 13.3849ZM8.4637 15.012L8.4892 14.9857L8.52372 15.0182L8.48314 15.043L8.4637 15.012ZM7.28555 16.1742L7.31773 16.1922L7.28555 16.1742ZM6.81428 18.4987L6.84503 18.519L6.77581 18.6215L6.77733 18.4983L6.81428 18.4987ZM7.57401 17.6992L7.60003 17.7251L7.57401 17.6992ZM12.9912 9.27967L12.9553 9.27128L13.0282 9.27967H12.9912ZM12.9912 4.01393H13.0282L12.9553 4.02221L12.9912 4.01393ZM12.2337 1.76229L12.1998 1.77669L12.2672 1.74676L12.2337 1.76229ZM12.9912 3.35035L13.0247 3.33482L13.0282 3.34219V3.35035H12.9912ZM5.87177 7.80602L5.90134 7.78415L5.90582 7.79005L5.90763 7.7972L5.87177 7.80602ZM5.16489 6.87621L5.13816 6.85103L5.16829 6.81992L5.19446 6.85433L5.16489 6.87621ZM5.40053 8.73585L5.38755 8.70166L5.39382 8.6994H5.40053V8.73585ZM3.5155 8.73585L3.50252 8.76998L3.45634 8.75284L3.48593 8.71398L3.5155 8.73585ZM5.40053 4.5517L5.36364 4.554L5.36278 4.54058L5.37096 4.52982L5.40053 4.5517ZM6.1074 3.62189L6.07784 3.60002L6.12442 3.53874L6.14326 3.61305L6.1074 3.62189ZM5.87177 5.4815V5.51796V5.4815ZM6.34303 4.5517L6.37888 4.54285L6.38027 4.54835L6.37991 4.554L6.34303 4.5517ZM8.22807 2.22719L8.20553 2.2561L8.09769 2.17437L8.23265 2.19101L8.22807 2.22719ZM10.1131 3.15699L10.1148 3.12057L10.1131 3.15699ZM10.1131 2.45964L10.1185 2.49705L10.1085 2.49581L10.1131 2.45964ZM11.7624 2.22719L11.7573 2.19109L11.8566 2.17709L11.7902 2.25132L11.7624 2.22719ZM8.93497 25.7047L8.9023 25.686L8.90748 25.6804L8.93497 25.7047ZM2.33737 6.87621L2.31013 6.85158L2.33737 6.87621ZM3.27988 2.92454L3.27125 2.88909L3.29507 2.88345L3.30961 2.90289L3.27988 2.92454ZM1.63048 3.15699L1.63024 3.19345L1.63048 3.15699ZM5.40053 1.76229V1.79874H5.38407L5.37305 1.78667L5.40053 1.76229ZM7.7568 1.76229L7.78984 1.77859L7.77964 1.79874H7.7568V1.76229ZM12.2337 1.76229L12.2552 1.73262L12.2605 1.73636L12.2642 1.74169L12.2337 1.76229ZM8.86823 11.4964L8.89602 11.5205L8.89536 11.5212L8.86823 11.4964ZM8.86823 11.4964L8.84044 11.4724L8.8411 11.4716L8.86823 11.4964ZM10.82 9.2007L10.7869 9.18444L10.82 9.2007ZM8.4637 6.87621L8.45106 6.91049L8.4637 6.87621ZM3.5155 6.87621V6.83975H3.55246V6.87621H3.5155ZM2.31392 11.9912L2.2884 12.0176L2.31392 11.9912ZM3.5155 8.73585H3.55359L3.55135 8.74468L3.5155 8.73585ZM13.0175 34.2672C12.996 34.2886 12.9745 34.3098 12.9528 34.3312L12.9006 34.2797C12.9221 34.2584 12.9436 34.2371 12.965 34.2158L13.0175 34.2672ZM12.9266 34.3419H10.3487V34.269H12.9266V34.3419ZM10.3487 34.3419H7.28555V34.269H10.3487V34.3419ZM7.25437 34.2859C7.78637 33.4612 7.97159 32.8038 7.98127 32.2158C7.99096 31.6267 7.82465 31.1041 7.6466 30.5457L7.71711 30.5239C7.89465 31.0807 8.06509 31.6143 8.05519 32.217C8.04521 32.821 7.85451 33.4914 7.31672 34.325L7.25437 34.2859ZM7.6466 30.5457C7.45405 29.9417 7.24859 29.2979 7.24859 28.4942H7.3225C7.3225 29.2854 7.52442 29.9195 7.71711 30.5239L7.6466 30.5457ZM7.25993 28.5205C4.30689 25.7192 2.77359 23.833 1.92548 22.1599C1.07692 20.4859 0.91566 19.0275 0.700898 17.0888L0.774375 17.0809C0.989248 19.0205 1.14972 20.4665 1.99159 22.1273C2.83391 23.789 4.35975 25.6683 7.31116 28.4679L7.25993 28.5205ZM0.700898 17.0888C0.684753 16.9431 0.668309 16.7947 0.651246 16.6432L0.724707 16.6351C0.74178 16.7867 0.758233 16.9352 0.774375 17.0809L0.700898 17.0888ZM0.714108 16.6134C0.947044 16.8432 1.35532 17.1538 1.82093 17.3375C2.28658 17.5213 2.80344 17.576 3.26086 17.3052L3.29889 17.3678C2.81381 17.6549 2.27035 17.5934 1.79348 17.4052C1.31659 17.217 0.900161 16.9 0.661845 16.665L0.714108 16.6134ZM3.27988 17.3365C3.26103 17.3679 3.26102 17.3679 3.261 17.3679C3.26099 17.3679 3.26097 17.3679 3.26094 17.3678C3.2609 17.3678 3.26083 17.3677 3.26074 17.3677C3.26057 17.3676 3.26031 17.3674 3.25997 17.3672C3.25929 17.3669 3.2583 17.3663 3.257 17.3655C3.25439 17.3639 3.25054 17.3617 3.24554 17.3586C3.23553 17.3526 3.22086 17.3437 3.20212 17.3321C3.16463 17.3089 3.11081 17.2748 3.04529 17.2313C2.91431 17.1442 2.73635 17.0193 2.54852 16.8679C2.17452 16.5662 1.75508 16.1541 1.59576 15.7218L1.66521 15.6969C1.81718 16.1092 2.22245 16.5107 2.59531 16.8114C2.78093 16.9611 2.95695 17.0847 3.08658 17.1708C3.15137 17.2138 3.20453 17.2475 3.24143 17.2704C3.25988 17.2818 3.27426 17.2905 3.284 17.2964C3.28887 17.2993 3.29259 17.3015 3.29506 17.303C3.2963 17.3037 3.29723 17.3043 3.29785 17.3047C3.29815 17.3048 3.29838 17.3049 3.29853 17.305C3.2986 17.3051 3.29865 17.3051 3.29868 17.3051C3.29871 17.3052 3.29871 17.3052 3.29872 17.3052C3.29873 17.3052 3.29873 17.3052 3.27988 17.3365ZM1.59576 15.7218C1.46908 15.3782 1.40017 15.0779 1.39776 14.7772C1.39535 14.4763 1.45956 14.1773 1.59611 13.8364L1.66486 13.8631C1.53093 14.1975 1.46935 14.4872 1.47167 14.7766C1.47399 15.0663 1.54031 15.358 1.66521 15.6969L1.59576 15.7218ZM1.59611 13.8364C1.70329 13.5687 1.89587 13.415 2.07692 13.2698L2.12355 13.3264C1.94149 13.4724 1.76406 13.6154 1.66486 13.8631L1.59611 13.8364ZM2.07692 13.2698C2.27683 13.1095 2.46242 12.9596 2.53724 12.6782L2.60873 12.6968C2.52709 13.0038 2.32231 13.167 2.12355 13.3264L2.07692 13.2698ZM2.54089 12.6694L3.95465 10.2247L4.01885 10.2608L2.60509 12.7056L2.54089 12.6694ZM4.01442 10.2185C4.26445 10.4971 4.58963 10.7634 4.95144 11.0312L4.90709 11.0895C4.54409 10.8209 4.21414 10.551 3.95908 10.2669L4.01442 10.2185ZM4.92926 11.0239C5.34152 11.0239 5.73549 10.8619 6.08696 10.6317L6.12785 10.6924C5.76933 10.9273 5.36115 11.0968 4.92926 11.0968V11.0239ZM6.1074 10.662C6.14411 10.6579 6.14411 10.6579 6.14411 10.6579C6.14412 10.6579 6.14412 10.6579 6.14412 10.6579C6.14413 10.658 6.14414 10.6581 6.14415 10.6582C6.14418 10.6584 6.14422 10.6588 6.14428 10.6592C6.14439 10.6602 6.14456 10.6616 6.14479 10.6635C6.14526 10.6673 6.14597 10.6729 6.14693 10.6803C6.14887 10.6951 6.15183 10.7171 6.15595 10.7452C6.16417 10.8016 6.17699 10.883 6.19531 10.9829C6.23196 11.1828 6.29059 11.4564 6.37848 11.7517C6.55502 12.3446 6.84689 13.0148 7.30772 13.3557L7.26337 13.414C6.78168 13.0576 6.48448 12.3664 6.30757 11.7722C6.21874 11.4739 6.15956 11.1976 6.12258 10.9959C6.10408 10.8951 6.09113 10.8127 6.08279 10.7556C6.07862 10.7271 6.0756 10.7048 6.07362 10.6897C6.07263 10.682 6.0719 10.6762 6.07142 10.6723C6.07118 10.6703 6.071 10.6688 6.07087 10.6678C6.07081 10.6673 6.07077 10.6669 6.07073 10.6666C6.07072 10.6665 6.07071 10.6664 6.0707 10.6663L6.07069 10.6662C6.07069 10.6662 6.07069 10.6662 6.1074 10.662ZM7.32227 13.3889C7.31662 13.439 7.32807 13.5018 7.35575 13.5756C7.38326 13.6489 7.42574 13.7302 7.47903 13.8162C7.58554 13.9882 7.73307 14.1754 7.88304 14.3491C8.03294 14.5227 8.18453 14.6818 8.29873 14.7977C8.35579 14.8556 8.40347 14.9027 8.43687 14.9352C8.45358 14.9515 8.46666 14.9641 8.4756 14.9727C8.48011 14.9769 8.48351 14.9802 8.4858 14.9824C8.48691 14.9835 8.4878 14.9843 8.48839 14.9849C8.48869 14.9851 8.48891 14.9853 8.48906 14.9855C8.48913 14.9855 8.48913 14.9856 8.4892 14.9856C8.4892 14.9856 8.4892 14.9856 8.4892 14.9857C8.4892 14.9857 8.4892 14.9857 8.4637 15.012C8.43813 15.0383 8.43813 15.0383 8.43813 15.0383C8.43806 15.0383 8.43806 15.0383 8.43806 15.0383C8.43798 15.0383 8.43798 15.0382 8.43791 15.0381C8.43769 15.038 8.43746 15.0378 8.43717 15.0375C8.43658 15.0369 8.43569 15.036 8.43451 15.0349C8.43214 15.0326 8.42867 15.0294 8.42409 15.025C8.41507 15.0163 8.40177 15.0035 8.38491 14.9871C8.35121 14.9543 8.30317 14.9069 8.24573 14.8485C8.1308 14.7319 7.97802 14.5715 7.8268 14.3964C7.67572 14.2214 7.52538 14.0309 7.41591 13.8542C7.36122 13.7659 7.31617 13.6801 7.28644 13.6009C7.25687 13.5221 7.24134 13.4469 7.24882 13.3808L7.32227 13.3889ZM8.4637 15.012C8.48314 15.043 8.48314 15.043 8.48314 15.043C8.48314 15.043 8.48307 15.043 8.48307 15.0431C8.483 15.0431 8.48285 15.0431 8.4827 15.0433C8.48233 15.0435 8.48181 15.0438 8.48107 15.0442C8.47967 15.0452 8.47745 15.0465 8.47457 15.0483C8.46888 15.0519 8.46038 15.0574 8.44937 15.0645C8.42734 15.0788 8.39533 15.1001 8.35564 15.1277C8.27633 15.1831 8.16643 15.2639 8.0444 15.3659C7.80004 15.5703 7.50919 15.8576 7.31773 16.1922L7.25336 16.1564C7.45102 15.811 7.74926 15.5171 7.99665 15.3103C8.1206 15.2067 8.23221 15.1245 8.313 15.0682C8.35335 15.04 8.38602 15.0184 8.40871 15.0036C8.42002 14.9963 8.42882 14.9906 8.4348 14.9869C8.43783 14.985 8.44013 14.9835 8.44175 14.9826C8.44249 14.982 8.44316 14.9817 8.44353 14.9815C8.44375 14.9813 8.4439 14.9812 8.44404 14.9811C8.44404 14.9811 8.44412 14.9811 8.44412 14.981C8.44419 14.981 8.44419 14.981 8.44419 14.981C8.44419 14.981 8.44419 14.981 8.4637 15.012ZM7.31773 16.1922C7.09536 16.5808 6.97815 17.1558 6.91695 17.6375C6.88644 17.8776 6.87001 18.0932 6.8612 18.2488C6.85681 18.3265 6.85431 18.3892 6.85292 18.4325C6.85222 18.4541 6.8518 18.4708 6.85156 18.4821C6.85143 18.4878 6.85135 18.4921 6.8513 18.4949C6.85128 18.4964 6.85126 18.4975 6.85125 18.4982C6.85125 18.4985 6.85124 18.4988 6.85124 18.499C6.85124 18.499 6.85124 18.4991 6.85124 18.4992C6.85124 18.4992 6.85124 18.4992 6.81428 18.4987C6.77733 18.4983 6.77733 18.4983 6.77733 18.4983C6.77733 18.4983 6.77733 18.4982 6.77733 18.4982C6.77733 18.4982 6.77733 18.4981 6.77733 18.498C6.77733 18.4978 6.77734 18.4975 6.77735 18.4971C6.77736 18.4963 6.77737 18.4952 6.7774 18.4937C6.77745 18.4907 6.77753 18.4863 6.77766 18.4806C6.77791 18.469 6.77834 18.452 6.77904 18.4301C6.78045 18.3864 6.78297 18.3231 6.78741 18.2447C6.79628 18.0879 6.81284 17.8706 6.84361 17.6284C6.90495 17.1456 7.02338 16.5583 7.25336 16.1564L7.31773 16.1922ZM6.78353 18.4785C6.83982 18.3953 6.93751 18.2858 7.06668 18.1523C7.19629 18.0184 7.35945 17.8583 7.54792 17.6734L7.60003 17.7251C7.41133 17.9102 7.24894 18.0696 7.12015 18.2027C6.99091 18.3363 6.89735 18.4416 6.84503 18.519L6.78353 18.4785ZM7.54792 17.6734C9.00283 16.246 11.9855 13.3186 12.9553 9.27128L13.0272 9.28805C12.052 13.358 9.05405 16.2985 7.60003 17.7251L7.54792 17.6734ZM13.0282 9.27967V34.2415H12.9543V9.27967H13.0282ZM12.9553 4.02221C12.7833 3.29516 12.5355 2.54623 12.1998 1.77669L12.2676 1.74787C12.6051 2.52124 12.8543 3.27426 13.0272 4.00565L12.9553 4.02221ZM12.2672 1.74676L13.0247 3.33482L12.9578 3.36587L12.2003 1.77781L12.2672 1.74676ZM13.0282 3.35035V4.01393H12.9543V3.35035H13.0282ZM5.84221 7.8279L5.13533 6.89808L5.19446 6.85433L5.90134 7.78415L5.84221 7.8279ZM5.40053 8.6994C5.56812 8.6994 5.67521 8.64471 5.74455 8.56654C5.8151 8.48699 5.8503 8.37885 5.86456 8.26642C5.87877 8.15427 5.87171 8.04132 5.86087 7.95579C5.85548 7.91321 5.84918 7.8777 5.84426 7.85298C5.84179 7.84066 5.83967 7.83096 5.83819 7.82447C5.83745 7.82119 5.83686 7.81871 5.83647 7.8171C5.83628 7.8163 5.83613 7.81572 5.83604 7.81535C5.83599 7.81513 5.83596 7.81499 5.83594 7.81492C5.83593 7.81492 5.83592 7.81484 5.83592 7.81484C5.83592 7.81484 5.83592 7.81484 5.87177 7.80602C5.90763 7.7972 5.90763 7.7972 5.90764 7.7972C5.90764 7.7972 5.90764 7.79727 5.90765 7.79727C5.90766 7.79727 5.90767 7.79734 5.9077 7.79742C5.90773 7.79756 5.90778 7.79778 5.90784 7.79807C5.90797 7.79858 5.90815 7.79931 5.90838 7.80026C5.90884 7.80216 5.90949 7.80493 5.9103 7.80843C5.91192 7.81557 5.91418 7.82585 5.91678 7.83891C5.92198 7.86508 5.92857 7.9022 5.93422 7.94675C5.94547 8.03564 5.95314 8.15515 5.9379 8.27546C5.9227 8.39541 5.88426 8.51973 5.80018 8.61452C5.7149 8.7107 5.58637 8.77231 5.40053 8.77231V8.6994ZM3.52847 8.70166C3.89456 8.83713 4.17706 8.90363 4.45801 8.90363C4.73896 8.90363 5.02146 8.83713 5.38755 8.70166L5.4135 8.76998C5.04344 8.90684 4.7515 8.97655 4.45801 8.97655C4.16452 8.97655 3.87258 8.90684 3.50252 8.76998L3.52847 8.70166ZM5.16489 6.87621C5.19162 6.90139 5.19161 6.90139 5.1916 6.9014C5.1916 6.90141 5.19159 6.90142 5.19157 6.90144C5.19154 6.90147 5.19149 6.90153 5.19142 6.90159C5.19129 6.90173 5.19109 6.90193 5.19083 6.9022C5.19031 6.90274 5.18952 6.90356 5.18848 6.90464C5.18639 6.90679 5.18329 6.91001 5.17922 6.91423C5.17106 6.92269 5.15903 6.93521 5.14351 6.95139C5.11247 6.98375 5.0675 7.03081 5.0118 7.08956C4.90041 7.20705 4.74614 7.37129 4.57463 7.55818C4.23137 7.93217 3.82001 8.39606 3.54506 8.75773L3.48593 8.71398C3.76309 8.3494 4.17643 7.88338 4.51984 7.50918C4.69167 7.322 4.84622 7.15746 4.95782 7.03975C5.01362 6.98089 5.05869 6.93373 5.08982 6.90127C5.10538 6.88505 5.11746 6.87249 5.12565 6.864C5.12975 6.85974 5.13287 6.85651 5.13497 6.85433C5.13602 6.85324 5.13682 6.85242 5.13735 6.85187C5.13762 6.85159 5.13782 6.85138 5.13796 6.85124C5.13802 6.85118 5.13808 6.85112 5.13811 6.85108C5.13813 6.85107 5.13814 6.85105 5.13815 6.85104C5.13816 6.85104 5.13816 6.85103 5.16489 6.87621ZM5.37096 4.52982L6.07784 3.60002L6.13697 3.64377L5.43009 4.57357L5.37096 4.52982ZM5.87177 5.51796C5.75259 5.51796 5.66188 5.45001 5.59452 5.35749C5.52739 5.2653 5.47992 5.14439 5.44626 5.02648C5.41245 4.90808 5.39183 4.79006 5.37967 4.7019C5.37358 4.65775 5.36958 4.62093 5.3671 4.59508C5.36586 4.58216 5.365 4.57197 5.36445 4.56497C5.36418 4.56147 5.36398 4.55877 5.36384 4.55693C5.36378 4.556 5.36372 4.55529 5.3637 4.5548C5.36368 4.55456 5.36367 4.55437 5.36366 4.55424C5.36365 4.55417 5.36365 4.55411 5.36364 4.55408C5.36364 4.55405 5.36364 4.55404 5.36364 4.55403C5.36364 4.55402 5.36364 4.554 5.40053 4.5517C5.43741 4.54939 5.43741 4.54939 5.43741 4.54939C5.43741 4.54939 5.43741 4.54939 5.43741 4.5494C5.43741 4.54942 5.43741 4.54945 5.43742 4.5495C5.43742 4.54959 5.43743 4.54974 5.43745 4.54994C5.43747 4.55034 5.43751 4.55097 5.43757 4.5518C5.43769 4.55348 5.43787 4.55599 5.43814 4.5593C5.43867 4.56593 5.43949 4.57572 5.44068 4.58821C5.44309 4.61322 5.44697 4.64904 5.45291 4.69206C5.4648 4.77824 5.48484 4.89267 5.5174 5.00671C5.55011 5.12127 5.59473 5.2328 5.65455 5.31495C5.71412 5.39677 5.7852 5.44504 5.87177 5.44504V5.51796ZM6.34303 4.5517C6.37991 4.554 6.37991 4.55402 6.37991 4.55403C6.37991 4.55404 6.37991 4.55405 6.3799 4.55408C6.3799 4.55411 6.3799 4.55417 6.3799 4.55424C6.37989 4.55437 6.37987 4.55456 6.37986 4.5548C6.37982 4.55529 6.37978 4.556 6.37971 4.55693C6.37958 4.55877 6.37938 4.56147 6.3791 4.56497C6.37855 4.57197 6.37769 4.58216 6.37645 4.59508C6.37398 4.62093 6.36998 4.65775 6.36389 4.7019C6.35171 4.79006 6.3311 4.90808 6.29729 5.02649C6.26362 5.14439 6.21616 5.2653 6.14903 5.35749C6.08166 5.45001 5.99096 5.51796 5.87177 5.51796V5.44504C5.95835 5.44504 6.02942 5.39677 6.089 5.31495C6.14881 5.2328 6.19344 5.12127 6.22615 5.00671C6.25872 4.89267 6.27875 4.77824 6.29065 4.69206C6.29658 4.64904 6.30047 4.61322 6.30286 4.58821C6.30406 4.57572 6.30489 4.56593 6.30541 4.5593C6.30567 4.55599 6.30586 4.55348 6.30598 4.5518C6.30603 4.55097 6.30608 4.55034 6.30611 4.54994C6.30612 4.54974 6.30613 4.54959 6.30614 4.5495C6.30615 4.54945 6.30615 4.54942 6.30615 4.5494C6.30615 4.54939 6.30615 4.54939 6.30615 4.54939C6.30615 4.54939 6.30615 4.54939 6.34303 4.5517ZM6.14326 3.61305L6.37888 4.54285L6.30717 4.56054L6.07155 3.63073L6.14326 3.61305ZM8.22807 2.22719C8.25054 2.19827 8.25054 2.19827 8.25054 2.19828C8.25054 2.19828 8.25061 2.19829 8.25061 2.1983C8.25061 2.19833 8.25069 2.19836 8.25076 2.19842C8.25091 2.19851 8.25106 2.19867 8.25135 2.19887C8.25194 2.19929 8.25276 2.19992 8.25386 2.20076C8.25608 2.20242 8.25941 2.20491 8.26377 2.20817C8.27256 2.21468 8.2855 2.22427 8.30228 2.23651C8.33583 2.26098 8.38462 2.29601 8.44537 2.33817C8.56696 2.4225 8.73622 2.53524 8.92714 2.64892C9.1182 2.76265 9.33033 2.87698 9.53773 2.96475C9.7458 3.05277 9.94633 3.1129 10.1148 3.12057L10.1114 3.19341C9.92984 3.18515 9.71971 3.12108 9.50861 3.03177C9.297 2.94222 9.08169 2.82608 8.88893 2.71135C8.69616 2.59656 8.52542 2.48283 8.40287 2.39781C8.3416 2.35528 8.29237 2.31992 8.25837 2.29515C8.24137 2.28277 8.22822 2.27304 8.21927 2.26639C8.21484 2.26306 8.21136 2.2605 8.20907 2.25877C8.20796 2.2579 8.20708 2.25724 8.20649 2.2568C8.20619 2.25657 8.20597 2.2564 8.20575 2.25628C8.20567 2.25622 8.20567 2.25618 8.2056 2.25615C8.2056 2.25614 8.2056 2.25612 8.20553 2.25611C8.20553 2.25611 8.20553 2.2561 8.22807 2.22719ZM10.1085 2.49581L8.22349 2.26336L8.23265 2.19101L10.1177 2.42346L10.1085 2.49581ZM11.7677 2.26327L10.1183 2.49573L10.1078 2.42355L11.7573 2.19109L11.7677 2.26327ZM10.1148 3.12057C10.4935 3.13782 10.8966 2.9127 11.2099 2.67653C11.3655 2.5592 11.4968 2.44066 11.5893 2.35142C11.6356 2.30683 11.672 2.26961 11.6969 2.24359C11.7093 2.23059 11.7188 2.22039 11.7253 2.21347C11.7284 2.21002 11.7308 2.20738 11.7324 2.20562C11.7332 2.20474 11.7338 2.20409 11.7342 2.20366C11.7344 2.20344 11.7346 2.20328 11.7347 2.20318C11.7347 2.20313 11.7347 2.2031 11.7347 2.20307C11.7347 2.20307 11.7347 2.20306 11.7347 2.20305C11.7347 2.20305 11.7347 2.20306 11.7624 2.22719C11.7902 2.25132 11.7902 2.25132 11.7902 2.25134C11.7902 2.25135 11.7901 2.25136 11.7901 2.25138C11.7901 2.25142 11.79 2.25147 11.7899 2.25154C11.7899 2.25167 11.7896 2.25186 11.7894 2.25211C11.789 2.25261 11.7883 2.25334 11.7875 2.25428C11.7857 2.25618 11.7832 2.25897 11.7799 2.26257C11.7732 2.26978 11.7634 2.28029 11.7507 2.29361C11.7253 2.32026 11.6881 2.3582 11.641 2.40357C11.547 2.49425 11.4133 2.61487 11.2547 2.73446C10.9396 2.97213 10.518 3.21193 10.1114 3.19341L10.1148 3.12057ZM10.3487 34.269H12.9266V34.3419H10.3487V34.269ZM13.0187 21.2828L8.9624 25.7292L8.90748 25.6804L12.9638 21.2341L13.0187 21.2828ZM8.96683 25.7231L7.31747 28.5125L7.25362 28.4758L8.90304 25.6864L8.96683 25.7231ZM7.28555 34.269H10.3487V34.3419H7.28555V34.269ZM0.651246 16.6432C0.180212 12.461 0.137462 9.18983 2.31013 6.85158L2.36461 6.90085C0.21745 9.21163 0.253227 12.4491 0.724707 16.6351L0.651246 16.6432ZM2.31013 6.85158C3.38436 5.69548 3.6155 4.7168 3.58168 4.03045C3.56474 3.68669 3.48127 3.41483 3.40227 3.22922C3.36277 3.13641 3.3244 3.0652 3.29607 3.0174C3.2819 2.99351 3.27025 2.97547 3.26222 2.96352C3.2582 2.95755 3.2551 2.9531 3.25304 2.9502C3.25201 2.94875 3.25124 2.94769 3.25075 2.94702C3.25051 2.94669 3.25034 2.94645 3.25023 2.94631C3.25018 2.94624 3.25014 2.9462 3.25013 2.94618C3.25012 2.94617 3.25013 2.94617 3.25012 2.94616C3.25013 2.94618 3.25014 2.94619 3.27988 2.92454C3.30961 2.90288 3.30963 2.90291 3.30966 2.90295C3.30967 2.90297 3.3097 2.90301 3.30973 2.90305C3.30979 2.90313 3.30987 2.90323 3.30996 2.90336C3.31015 2.90362 3.31041 2.90398 3.31075 2.90443C3.31141 2.90534 3.31236 2.90665 3.31357 2.90835C3.31599 2.91175 3.31945 2.91672 3.32383 2.92324C3.33258 2.93626 3.34497 2.95545 3.35987 2.98059C3.38967 3.03085 3.42954 3.10493 3.47042 3.20099C3.55219 3.39311 3.63808 3.67332 3.65551 4.02691C3.69041 4.73528 3.4503 5.73242 2.36461 6.90085L2.31013 6.85158ZM3.27988 2.92454C3.28851 2.95999 3.2885 2.95999 3.28849 2.95999C3.28848 2.95999 3.28847 2.96 3.28845 2.96C3.28842 2.96001 3.28836 2.96002 3.2883 2.96004C3.28817 2.96007 3.28799 2.96011 3.28774 2.96017C3.28724 2.96028 3.2865 2.96046 3.28553 2.96069C3.2836 2.96115 3.28072 2.96182 3.27695 2.96268C3.26941 2.96443 3.2583 2.96699 3.24395 2.97023C3.21523 2.97673 3.17353 2.98598 3.12146 2.99708C3.01734 3.01926 2.87173 3.04879 2.70571 3.0782C2.37429 3.1369 1.95916 3.19554 1.63024 3.19345L1.63072 3.12053C1.95247 3.12258 2.36203 3.06499 2.69265 3.00643C2.85764 2.9772 3.00237 2.94785 3.10586 2.9258C3.15759 2.91478 3.19899 2.90559 3.22744 2.89916C3.24166 2.89594 3.25264 2.89342 3.26005 2.8917C3.26376 2.89085 3.26657 2.89018 3.26845 2.88975C3.26939 2.88953 3.2701 2.88936 3.27057 2.88925C3.2708 2.88919 3.27097 2.88915 3.27109 2.88913C3.27114 2.88911 3.27119 2.8891 3.27122 2.8891C3.27122 2.8891 3.27124 2.88909 3.27124 2.88909C3.27125 2.88909 3.27125 2.88909 3.27988 2.92454ZM1.63024 3.19345C1.42729 3.19216 1.2898 3.1309 1.22218 3.01732C1.15572 2.90567 1.16472 2.75605 1.22321 2.59564C1.34061 2.27366 1.66824 1.87639 2.10864 1.5549C2.54975 1.23289 3.10918 0.983077 3.69432 0.961719C4.28108 0.940296 4.89059 1.14882 5.42799 1.7379L5.37305 1.78667C4.85014 1.21349 4.26168 1.01397 3.69706 1.03458C3.13083 1.05525 2.58547 1.29752 2.1526 1.61351C1.71903 1.93002 1.40349 2.31663 1.29276 2.62031C1.23719 2.77273 1.2359 2.89637 1.28592 2.9804C1.3348 3.06249 1.44058 3.11932 1.63072 3.12053L1.63024 3.19345ZM5.40053 1.72583H7.7568V1.79874H5.40053V1.72583ZM7.7568 1.76229C7.72376 1.74597 7.72376 1.74595 7.72376 1.7459C7.72376 1.74588 7.72383 1.74583 7.72383 1.74578C7.72391 1.74568 7.72398 1.74554 7.72406 1.74536C7.7242 1.74501 7.7245 1.74453 7.7248 1.74391C7.72546 1.74267 7.72642 1.74088 7.72768 1.73858C7.73012 1.73398 7.73381 1.72732 7.73869 1.7188C7.74845 1.70177 7.76308 1.67731 7.78282 1.64716C7.82229 1.58686 7.8823 1.50366 7.96472 1.41132C8.1294 1.22668 8.3841 1.00486 8.74398 0.856938C9.46641 0.559987 10.5992 0.5657 12.2552 1.73262L12.2123 1.79195C10.5695 0.634353 9.46375 0.640066 8.77244 0.924247C8.42542 1.06688 8.17943 1.28091 8.02015 1.45948C7.94055 1.54874 7.88275 1.62898 7.8449 1.68673C7.82598 1.71559 7.81209 1.73881 7.803 1.7547C7.79849 1.76263 7.79509 1.76873 7.79294 1.77279C7.79183 1.77481 7.79102 1.77633 7.7905 1.77731C7.79028 1.7778 7.79006 1.77815 7.78999 1.77836C7.78991 1.77847 7.78991 1.77854 7.78984 1.77858C7.78984 1.7786 7.78984 1.7786 7.78984 1.77861C7.78984 1.7786 7.78984 1.77859 7.7568 1.76229ZM12.2337 1.76229C12.2642 1.74169 12.2642 1.7417 12.2642 1.7417C12.2642 1.74171 12.2642 1.74172 12.2642 1.74172C12.2642 1.74174 12.2642 1.74176 12.2643 1.74179C12.2643 1.74185 12.2644 1.74193 12.2645 1.74204C12.2646 1.74227 12.2648 1.7426 12.2651 1.74304C12.2658 1.74393 12.2667 1.74525 12.2679 1.74699C12.2703 1.75047 12.2738 1.75567 12.2786 1.76253C12.288 1.77626 12.3019 1.79666 12.32 1.82338C12.3562 1.87684 12.4091 1.95562 12.476 2.05703C12.6097 2.25983 12.7993 2.55315 13.0228 2.91537L12.9597 2.95328C12.7366 2.59177 12.5474 2.29907 12.4141 2.09679C12.3473 1.99565 12.2946 1.91712 12.2585 1.8639C12.2405 1.83729 12.2267 1.817 12.2174 1.80339C12.2126 1.79658 12.2092 1.79144 12.2067 1.788C12.2056 1.78628 12.2047 1.785 12.2041 1.78414C12.2038 1.78371 12.2036 1.78339 12.2034 1.78318C12.2033 1.78307 12.2033 1.78299 12.2033 1.78294C12.2033 1.78291 12.2033 1.7829 12.2033 1.78288C12.2033 1.78288 12.2033 1.78288 12.2033 1.78287C12.2033 1.78287 12.2033 1.78287 12.2337 1.76229ZM7.24882 13.3808C7.25285 13.3451 7.27012 13.3025 7.29525 13.2559C7.3208 13.2085 7.35632 13.1537 7.40002 13.0928C7.48753 12.9708 7.60964 12.8216 7.75562 12.6534C8.04765 12.317 8.43739 11.9017 8.8411 11.4716L8.89536 11.5212C8.49127 11.9516 8.10271 12.3657 7.81179 12.7008C7.66633 12.8685 7.54585 13.0157 7.46033 13.1349C7.41761 13.1945 7.38403 13.2465 7.3605 13.2902C7.33655 13.3346 7.32473 13.3672 7.32227 13.3889L7.24882 13.3808ZM8.84044 11.4724L8.89602 11.5204L8.84044 11.4724ZM8.8411 11.4716C9.25428 11.0315 9.68216 10.5755 10.0366 10.171C10.3919 9.76529 10.6702 9.41471 10.7869 9.18444L10.853 9.21703C10.7315 9.45678 10.4469 9.814 10.0925 10.2187C9.73708 10.6244 9.30823 11.0813 8.89536 11.5212L8.8411 11.4716ZM10.7869 9.18444C10.811 9.13675 10.815 9.07266 10.7958 8.99186C10.7767 8.91136 10.7356 8.81803 10.675 8.71544C10.554 8.51032 10.3582 8.27385 10.1195 8.03841C9.64166 7.567 8.99817 7.10598 8.45106 6.91049L8.47627 6.84193C9.03712 7.04235 9.68955 7.51115 10.1718 7.98678C10.4131 8.22485 10.6135 8.46628 10.7389 8.67869C10.8016 8.78485 10.8464 8.88526 10.8678 8.97531C10.889 9.06515 10.8878 9.14842 10.853 9.21703L10.7869 9.18444ZM8.45106 6.91049C7.89021 6.71008 7.25514 6.93507 6.7532 7.21809C6.50341 7.35897 6.2892 7.51268 6.13738 7.63131C6.06151 7.69059 6.00131 7.74105 5.96014 7.77656C5.93956 7.79435 5.92374 7.80843 5.91311 7.81798C5.90779 7.82279 5.90377 7.82644 5.90109 7.82884C5.89976 7.83008 5.89876 7.83103 5.8981 7.83161C5.89778 7.83191 5.89753 7.83212 5.89738 7.83227C5.8973 7.83234 5.89724 7.83242 5.89721 7.83249C5.8972 7.83249 5.89718 7.83249 5.89718 7.83249C5.89718 7.83249 5.89718 7.83249 5.87177 7.80602C5.84637 7.77955 5.84638 7.77955 5.8464 7.77948C5.84641 7.77948 5.84644 7.77948 5.84647 7.77948C5.84652 7.77941 5.84659 7.77933 5.84669 7.77926C5.84689 7.77904 5.84717 7.77882 5.84754 7.77846C5.84827 7.7778 5.84935 7.77678 5.85077 7.77547C5.85361 7.77284 5.8578 7.76905 5.86329 7.76409C5.87428 7.75425 5.89047 7.73981 5.91146 7.72173C5.95342 7.68549 6.01455 7.63423 6.09149 7.57415C6.24529 7.45398 6.46263 7.29794 6.71653 7.15479C7.22197 6.86979 7.88282 6.62987 8.47627 6.84193L8.45106 6.91049ZM5.43604 8.72572C5.51999 9.01381 5.49262 9.48865 5.40021 9.94452C5.30779 10.4003 5.14792 10.8491 4.95812 11.0831L4.9004 11.0375C5.07867 10.8177 5.23583 10.3835 5.32773 9.93023C5.41963 9.47691 5.44385 9.01644 5.365 8.74592L5.43604 8.72572ZM3.5155 6.91267H2.33737V6.83975H3.5155V6.91267ZM2.53724 12.6782C2.58369 12.5035 2.56982 12.3872 2.5235 12.2923C2.47594 12.1949 2.39267 12.1158 2.2884 12.0176L2.33944 11.9649C2.44125 12.0608 2.5356 12.149 2.5901 12.2607C2.64583 12.3749 2.65846 12.5097 2.60873 12.6968L2.53724 12.6782ZM2.2884 12.0176C2.14468 11.8823 1.96949 11.7175 1.83135 11.4317C1.69336 11.1463 1.59352 10.7429 1.59352 10.1305H1.66744C1.66744 10.7352 1.76601 11.1272 1.89807 11.4004C2.02999 11.6732 2.19652 11.8303 2.33944 11.9649L2.2884 12.0176ZM1.59352 10.1305C1.59352 9.07317 2.06998 8.25154 2.54473 7.69533C2.78216 7.41723 3.01955 7.20497 3.19766 7.0622C3.28673 6.9908 3.36104 6.93674 3.4132 6.90045C3.43928 6.8823 3.45983 6.86859 3.47392 6.85938C3.48096 6.85478 3.48639 6.85129 3.4901 6.84895C3.49195 6.84777 3.49337 6.84687 3.49435 6.84627C3.49483 6.84596 3.4952 6.84573 3.49547 6.84557C3.4956 6.84549 3.4957 6.84542 3.49577 6.84538C3.49581 6.84536 3.49585 6.84534 3.49586 6.84532C3.49589 6.84531 3.49591 6.84529 3.5155 6.87621C3.53509 6.90713 3.53509 6.90713 3.53509 6.90713C3.53508 6.90713 3.53507 6.90714 3.53505 6.90715C3.53501 6.90718 3.53494 6.90722 3.53484 6.90728C3.53464 6.9074 3.53434 6.90759 3.53392 6.90785C3.53308 6.90838 3.5318 6.90918 3.53008 6.91028C3.52665 6.91245 3.5215 6.91575 3.51474 6.92017C3.50122 6.92901 3.48126 6.94231 3.4558 6.96003C3.40487 6.99547 3.33191 7.04855 3.24427 7.1188C3.06893 7.25934 2.83508 7.46842 2.60126 7.74236C2.1335 8.29033 1.66744 9.09584 1.66744 10.1305H1.59352ZM6.08696 10.6317C6.49978 10.3612 6.85057 9.99892 7.09859 9.70324C7.22247 9.55558 7.32042 9.42492 7.38735 9.33122C7.42079 9.28441 7.44651 9.24678 7.46381 9.22097C7.47246 9.20806 7.47896 9.19815 7.48332 9.19144C7.48554 9.18808 7.48716 9.18553 7.48827 9.18385C7.48879 9.18298 7.48923 9.1824 7.48946 9.18196C7.4896 9.18174 7.48968 9.18159 7.48975 9.18152C7.48975 9.18145 7.48983 9.18145 7.48983 9.18145C7.48983 9.18137 7.48983 9.18137 7.48983 9.18137C7.48983 9.18137 7.48983 9.18137 7.52117 9.2007C7.5525 9.22002 7.5525 9.22002 7.5525 9.22009C7.5525 9.22009 7.5525 9.22009 7.55243 9.22009C7.55243 9.22017 7.55243 9.22017 7.55236 9.22024C7.55228 9.22039 7.55221 9.22053 7.55199 9.22082C7.55169 9.22126 7.55125 9.22199 7.55073 9.22286C7.54955 9.22469 7.54785 9.22731 7.54556 9.23081C7.54105 9.23781 7.53432 9.24802 7.52545 9.26122C7.50779 9.28754 7.4817 9.32575 7.44777 9.37322C7.37994 9.46816 7.28084 9.60035 7.15553 9.74976C6.90518 10.0482 6.54909 10.4165 6.12785 10.6924L6.08696 10.6317ZM3.95908 10.2669C3.55021 9.81137 3.3306 9.31518 3.47964 8.72696L3.55135 8.74468C3.41036 9.30103 3.61479 9.77331 4.01442 10.2185L3.95908 10.2669ZM3.47854 8.73585V6.87621H3.55246V8.73585H3.47854Z" fill="black"/>
<path fill-rule="evenodd" clip-rule="evenodd" d="M8.22802 2.22719C8.22802 2.22719 9.413 3.12511 10.1131 3.15699C10.8984 3.19275 11.7625 2.22719 11.7625 2.22719L10.1131 2.45964L8.22802 2.22719ZM8.86826 11.4964C8.06054 12.357 7.31151 13.155 7.28555 13.3849C6.34304 12.6875 6.10741 10.662 6.10741 10.662C5.75242 10.8946 5.35134 11.0604 4.92927 11.0604C4.56687 10.7922 4.23931 10.5241 3.98676 10.2427L2.573 12.6875C2.66916 12.3258 2.52001 12.1853 2.31393 11.9912C2.02729 11.7213 1.63049 11.3476 1.63049 10.1305C1.63049 8.03848 3.5155 6.87621 3.5155 6.87621V8.73585C4.25165 9.00813 4.66439 9.00813 5.40053 8.73585C6.10741 8.73585 5.87178 7.80602 5.87178 7.80602C5.87178 7.80602 7.30939 6.46375 8.46366 6.87621C9.57161 7.27212 11.0556 8.73585 10.8199 9.2007C10.5817 9.67086 9.69424 10.6163 8.86826 11.4964Z" fill="#FFD789"/>
<path d="M10.1131 3.15699L10.1148 3.12057L10.1131 3.15699ZM8.22801 2.22719L8.20554 2.2561L8.09771 2.17437L8.2326 2.19101L8.22801 2.22719ZM11.7625 2.22719L11.7572 2.19109L11.8566 2.17709L11.7902 2.25132L11.7625 2.22719ZM10.1131 2.45964L10.1185 2.49705L10.1085 2.49581L10.1131 2.45964ZM7.28554 13.3849L7.32228 13.3889L7.31511 13.4523L7.26337 13.414L7.28554 13.3849ZM8.86825 11.4964L8.89604 11.5205L8.89537 11.5212L8.86825 11.4964ZM6.1074 10.662L6.08696 10.6317L6.13724 10.5987L6.14412 10.6579L6.1074 10.662ZM4.92926 11.0604V11.0968H4.91695L4.90709 11.0895L4.92926 11.0604ZM3.98675 10.2427L3.95465 10.2247L3.98022 10.1804L4.01442 10.2185L3.98675 10.2427ZM2.57299 12.6875L2.60509 12.7056L2.53724 12.6782L2.57299 12.6875ZM2.31392 11.9912L2.28841 12.0176L2.31392 11.9912ZM3.5155 6.87621L3.49591 6.84529L3.55245 6.81043V6.87621H3.5155ZM3.5155 8.73585L3.50252 8.76998L3.47854 8.76108V8.73585H3.5155ZM5.40052 8.73585L5.38755 8.70166L5.39383 8.6994H5.40052V8.73585ZM5.87177 7.80602L5.83592 7.81484L5.83068 7.79421L5.84637 7.77955L5.87177 7.80602ZM8.46365 6.87621L8.45108 6.91049L8.46365 6.87621ZM10.8199 9.2007L10.7869 9.18444L10.8199 9.2007ZM8.86825 11.4964L8.84038 11.4724L8.84112 11.4716L8.86825 11.4964ZM8.93492 25.7047L8.90232 25.686L8.9075 25.6804L8.93492 25.7047ZM9.86393 28.4054L9.8306 28.4211L9.86393 28.4054ZM12.9913 34.3055L13.0174 34.3312L13.0066 34.3419H12.9913V34.3055ZM0.737636 17.0849L0.700899 17.0888L0.737636 17.0849ZM0.687977 16.6391L0.651246 16.6432L0.687977 16.6391ZM7.68187 30.5348L7.64661 30.5457L7.68187 30.5348ZM7.28554 34.3055V34.3419H7.21822L7.25436 34.2859L7.28554 34.3055ZM2.33737 6.87621L2.31013 6.85158L2.33737 6.87621ZM3.27988 2.92454L3.27125 2.88909L3.29506 2.88345L3.30961 2.90289L3.27988 2.92454ZM1.63048 3.15699L1.63025 3.19345L1.63048 3.15699ZM5.40052 1.76229V1.79874H5.38406L5.37306 1.78667L5.40052 1.76229ZM7.75682 1.76229L7.78986 1.77859L7.77966 1.79874H7.75682V1.76229ZM12.2337 1.76229L12.2552 1.73262L12.2606 1.73636L12.2643 1.74169L12.2337 1.76229ZM3.27988 17.3365L3.29872 17.3052L3.35202 17.3363L3.29889 17.3678L3.27988 17.3365ZM6.81429 18.4987L6.84503 18.519L6.77581 18.6215L6.77733 18.4983L6.81429 18.4987ZM7.28554 16.1742L7.31773 16.1922L7.28554 16.1742ZM8.46365 15.012L8.48922 14.9857L8.52367 15.0182L8.48316 15.043L8.46365 15.012ZM5.16489 6.87621L5.13817 6.85103L5.16829 6.81992L5.19445 6.85433L5.16489 6.87621ZM6.1074 3.62189L6.07783 3.60002L6.12442 3.53874L6.14325 3.61305L6.1074 3.62189ZM5.40052 4.5517L5.36364 4.554L5.36278 4.54058L5.37096 4.52982L5.40052 4.5517ZM5.87177 5.4815V5.51796V5.4815ZM6.34303 4.5517L6.37888 4.54285L6.38028 4.54835L6.37991 4.554L6.34303 4.5517ZM1.63048 15.7094L1.59575 15.7218L1.63048 15.7094ZM1.63048 13.8497L1.59611 13.8364L1.63048 13.8497ZM2.10024 13.2981L2.12355 13.3264L2.10024 13.2981ZM7.57403 17.6992L7.60005 17.7251L7.57403 17.6992ZM10.1114 3.19341C9.92979 3.18515 9.71973 3.12108 9.50863 3.03177C9.29702 2.94222 9.08164 2.82608 8.88894 2.71135C8.69611 2.59656 8.52537 2.48283 8.40289 2.39781C8.34162 2.35528 8.29232 2.31992 8.25839 2.29515C8.24139 2.28277 8.22824 2.27304 8.21929 2.26639C8.21478 2.26306 8.21138 2.2605 8.20909 2.25877C8.20791 2.2579 8.20702 2.25724 8.20643 2.2568C8.20614 2.25657 8.20591 2.2564 8.20577 2.25628C8.20569 2.25622 8.20562 2.25618 8.20562 2.25615C8.20562 2.25614 8.20554 2.25612 8.20554 2.25611C8.20554 2.25611 8.20554 2.2561 8.22801 2.22719C8.25056 2.19827 8.25056 2.19827 8.25056 2.19828C8.25056 2.19828 8.25056 2.19829 8.25063 2.1983C8.25063 2.19833 8.2507 2.19836 8.25078 2.19842C8.25085 2.19851 8.25107 2.19867 8.25137 2.19887C8.25189 2.19929 8.25277 2.19992 8.25388 2.20076C8.2561 2.20242 8.25943 2.20491 8.26379 2.20817C8.27251 2.21468 8.28552 2.22427 8.3023 2.23651C8.33585 2.26098 8.38464 2.29601 8.44539 2.33817C8.5669 2.4225 8.73617 2.53524 8.92716 2.64892C9.11815 2.76265 9.33035 2.87698 9.53775 2.96475C9.74574 3.05277 9.94627 3.1129 10.1148 3.12057L10.1114 3.19341ZM11.7625 2.22719C11.7902 2.25132 11.7902 2.25132 11.7902 2.25134C11.7901 2.25135 11.7901 2.25136 11.7901 2.25138C11.7901 2.25142 11.79 2.25147 11.79 2.25154C11.7898 2.25167 11.7897 2.25186 11.7894 2.25211C11.789 2.25261 11.7883 2.25334 11.7874 2.25428C11.7857 2.25618 11.7832 2.25897 11.7799 2.26257C11.7733 2.26978 11.7634 2.28029 11.7507 2.29361C11.7252 2.32026 11.688 2.3582 11.641 2.40357C11.547 2.49425 11.4133 2.61487 11.2548 2.73446C10.9395 2.97213 10.5181 3.21193 10.1114 3.19341L10.1148 3.12057C10.4934 3.13782 10.8966 2.9127 11.2098 2.67653C11.3654 2.5592 11.4968 2.44066 11.5894 2.35142C11.6356 2.30683 11.6721 2.26961 11.6969 2.24359C11.7093 2.23059 11.7189 2.22039 11.7252 2.21347C11.7285 2.21002 11.7308 2.20738 11.7325 2.20562C11.7333 2.20474 11.7339 2.20409 11.7342 2.20366C11.7344 2.20344 11.7345 2.20328 11.7347 2.20318C11.7347 2.20313 11.7347 2.2031 11.7347 2.20307C11.7347 2.20307 11.7347 2.20306 11.7347 2.20305C11.7347 2.20305 11.7347 2.20306 11.7625 2.22719ZM10.1078 2.42355L11.7572 2.19109L11.7677 2.26327L10.1183 2.49573L10.1078 2.42355ZM8.2326 2.19101L10.1177 2.42346L10.1085 2.49581L8.22343 2.26336L8.2326 2.19101ZM7.24881 13.3808C7.25286 13.3451 7.27012 13.3025 7.29525 13.2559C7.32081 13.2085 7.35631 13.1537 7.40004 13.0928C7.48748 12.9708 7.60966 12.8216 7.75564 12.6534C8.04767 12.317 8.43741 11.9017 8.84112 11.4716L8.89537 11.5212C8.49129 11.9516 8.10266 12.3657 7.81181 12.7008C7.66635 12.8685 7.54587 13.0157 7.46035 13.1349C7.41763 13.1945 7.38403 13.2465 7.3605 13.2902C7.33654 13.3346 7.32472 13.3672 7.32228 13.3889L7.24881 13.3808ZM6.1074 10.662C6.14412 10.6579 6.14412 10.6579 6.14412 10.6579C6.14412 10.6579 6.14412 10.6579 6.14412 10.6579C6.14413 10.658 6.14414 10.6581 6.14415 10.6582C6.14418 10.6584 6.14422 10.6588 6.14428 10.6592C6.14439 10.6602 6.14456 10.6616 6.14479 10.6635C6.14526 10.6673 6.14596 10.6729 6.14693 10.6803C6.14886 10.6951 6.15183 10.7171 6.15594 10.7452C6.16418 10.8016 6.17699 10.883 6.19531 10.9829C6.23196 11.1828 6.29059 11.4564 6.37849 11.7517C6.55501 12.3446 6.8469 13.0148 7.30772 13.3557L7.26337 13.414C6.78168 13.0576 6.48449 12.3664 6.30757 11.7722C6.21875 11.4739 6.15956 11.1976 6.12258 10.9959C6.10408 10.8951 6.09113 10.8127 6.08278 10.7556C6.07862 10.7271 6.0756 10.7048 6.07362 10.6897C6.07264 10.682 6.0719 10.6762 6.07142 10.6723C6.07118 10.6703 6.07099 10.6688 6.07088 10.6678C6.07081 10.6673 6.07077 10.6669 6.07074 10.6666C6.07072 10.6665 6.07071 10.6664 6.0707 10.6663C6.07069 10.6663 6.07069 10.6662 6.07069 10.6662C6.07068 10.6662 6.07068 10.6662 6.1074 10.662ZM4.92926 11.0239C5.34152 11.0239 5.73549 10.8619 6.08696 10.6317L6.12784 10.6924C5.76933 10.9273 5.36115 11.0968 4.92926 11.0968V11.0239ZM4.01442 10.2185C4.26445 10.4971 4.58963 10.7634 4.95143 11.0312L4.90709 11.0895C4.54409 10.8209 4.21414 10.551 3.95908 10.2669L4.01442 10.2185ZM2.54089 12.6694L3.95465 10.2247L4.01885 10.2608L2.60509 12.7056L2.54089 12.6694ZM2.33944 11.9649C2.44126 12.0608 2.5356 12.149 2.5901 12.2607C2.64583 12.3749 2.65845 12.5097 2.60873 12.6968L2.53724 12.6782C2.58369 12.5035 2.56982 12.3872 2.5235 12.2923C2.47595 12.1949 2.39268 12.1158 2.28841 12.0176L2.33944 11.9649ZM1.66744 10.1305C1.66744 10.7352 1.76601 11.1272 1.89807 11.4004C2.02999 11.6732 2.19652 11.8303 2.33944 11.9649L2.28841 12.0176C2.14468 11.8823 1.96949 11.7175 1.83136 11.4317C1.69335 11.1463 1.59353 10.7429 1.59353 10.1305H1.66744ZM3.5155 6.87621C3.53508 6.90713 3.53509 6.90713 3.53509 6.90713C3.53508 6.90713 3.53507 6.90714 3.53505 6.90715C3.53501 6.90718 3.53494 6.90722 3.53484 6.90728C3.53465 6.9074 3.53434 6.90759 3.53392 6.90785C3.53308 6.90838 3.53179 6.90918 3.53008 6.91028C3.52665 6.91245 3.5215 6.91575 3.51474 6.92017C3.50122 6.92901 3.48127 6.94231 3.4558 6.96003C3.40487 6.99547 3.33191 7.04855 3.24427 7.1188C3.06894 7.25934 2.83507 7.46842 2.60126 7.74236C2.13349 8.29033 1.66744 9.09584 1.66744 10.1305H1.59353C1.59353 9.07317 2.06998 8.25154 2.54472 7.69533C2.78216 7.41723 3.01955 7.20497 3.19766 7.0622C3.28673 6.9908 3.36105 6.93674 3.4132 6.90045C3.43928 6.8823 3.45982 6.86859 3.47392 6.85938C3.48096 6.85478 3.4864 6.85129 3.4901 6.84895C3.49195 6.84777 3.49337 6.84687 3.49434 6.84627C3.49483 6.84596 3.49521 6.84573 3.49546 6.84557C3.4956 6.84549 3.4957 6.84542 3.49578 6.84538C3.49581 6.84536 3.49585 6.84534 3.49586 6.84532C3.49589 6.84531 3.49591 6.84529 3.5155 6.87621ZM3.47854 8.73585V6.87621H3.55245V8.73585H3.47854ZM5.4135 8.76998C5.04344 8.90684 4.7515 8.97655 4.45801 8.97655C4.16452 8.97655 3.87258 8.90684 3.50252 8.76998L3.52847 8.70166C3.89456 8.83713 4.17706 8.90363 4.45801 8.90363C4.73896 8.90363 5.02146 8.83713 5.38755 8.70166L5.4135 8.76998ZM5.87177 7.80602C5.90762 7.7972 5.90763 7.7972 5.90763 7.7972C5.90764 7.7972 5.90764 7.79727 5.90765 7.79727C5.90766 7.79727 5.90768 7.79734 5.90769 7.79742C5.90773 7.79756 5.90778 7.79778 5.90785 7.79807C5.90797 7.79858 5.90815 7.79931 5.90838 7.80026C5.90884 7.80216 5.90949 7.80493 5.9103 7.80843C5.91193 7.81557 5.91418 7.82585 5.91678 7.83891C5.92198 7.86508 5.92857 7.9022 5.93422 7.94675C5.94547 8.03564 5.95314 8.15515 5.9379 8.27546C5.9227 8.39541 5.88427 8.51973 5.80018 8.61452C5.7149 8.7107 5.58637 8.77231 5.40052 8.77231V8.6994C5.56812 8.6994 5.67521 8.64471 5.74456 8.56654C5.8151 8.48699 5.8503 8.37885 5.86456 8.26642C5.87876 8.15427 5.87171 8.04132 5.86087 7.95579C5.85547 7.91321 5.84918 7.8777 5.84425 7.85298C5.84179 7.84066 5.83968 7.83096 5.83819 7.82447C5.83745 7.82119 5.83687 7.81871 5.83648 7.8171C5.83628 7.8163 5.83613 7.81572 5.83604 7.81535C5.83599 7.81513 5.83596 7.81499 5.83594 7.81492C5.83593 7.81492 5.83592 7.81484 5.83591 7.81484C5.83591 7.81484 5.83592 7.81484 5.87177 7.80602ZM8.45108 6.91049C7.89023 6.71008 7.25514 6.93507 6.7532 7.21809C6.50341 7.35897 6.28919 7.51268 6.13738 7.63131C6.0615 7.69059 6.00131 7.74105 5.96014 7.77656C5.93956 7.79435 5.92374 7.80843 5.91311 7.81798C5.90779 7.82279 5.90377 7.82644 5.9011 7.82884C5.89976 7.83008 5.89876 7.83103 5.8981 7.83161C5.89778 7.83191 5.89754 7.83212 5.89738 7.83227C5.8973 7.83234 5.89725 7.83242 5.89721 7.83249C5.8972 7.83249 5.89719 7.83249 5.89718 7.83249C5.89717 7.83249 5.89717 7.83249 5.87177 7.80602C5.84637 7.77955 5.84638 7.77955 5.8464 7.77948C5.84641 7.77948 5.84644 7.77948 5.84646 7.77948C5.84652 7.77941 5.84659 7.77933 5.84669 7.77926C5.84688 7.77904 5.84716 7.77882 5.84753 7.77846C5.84826 7.7778 5.84935 7.77678 5.85077 7.77547C5.85361 7.77284 5.8578 7.76905 5.86329 7.76409C5.87428 7.75425 5.89048 7.73981 5.91145 7.72173C5.95342 7.68549 6.01455 7.63423 6.09149 7.57415C6.2453 7.45398 6.46263 7.29794 6.71652 7.15479C7.22196 6.86979 7.88284 6.62987 8.47629 6.84193L8.45108 6.91049ZM10.7869 9.18444C10.8111 9.13675 10.8149 9.07266 10.7958 8.99186C10.7768 8.91136 10.7357 8.81803 10.6751 8.71544C10.5539 8.51032 10.3583 8.27385 10.1195 8.03841C9.64167 7.567 8.99819 7.10598 8.45108 6.91049L8.47629 6.84193C9.03714 7.04235 9.68957 7.51115 10.1718 7.98678C10.4131 8.22485 10.6135 8.46628 10.7389 8.67869C10.8016 8.78485 10.8465 8.88526 10.8678 8.97531C10.889 9.06515 10.8878 9.14842 10.853 9.21703L10.7869 9.18444ZM8.84112 11.4716C9.25422 11.0315 9.68218 10.5755 10.0365 10.171C10.3919 9.76529 10.6702 9.41471 10.7869 9.18444L10.853 9.21703C10.7314 9.45678 10.4469 9.814 10.0925 10.2187C9.7371 10.6244 9.30825 11.0813 8.89537 11.5212L8.84112 11.4716ZM8.84038 11.4724L8.89604 11.5204L8.84038 11.4724ZM8.97143 25.6989C9.16457 26.8738 9.54027 27.6512 9.89734 28.3897L9.8306 28.4211C9.47315 27.6817 9.09339 26.8964 8.89848 25.7106L8.97143 25.6989ZM9.89734 28.3897C10.2269 29.0716 10.5415 29.7218 10.6767 30.6177C10.8119 31.5135 10.7674 32.6523 10.3847 34.3136L10.3127 34.2974C10.694 32.6418 10.737 31.5125 10.6036 30.6284C10.4702 29.7445 10.1603 29.1031 9.8306 28.4211L9.89734 28.3897ZM10.3487 34.269H12.9913V34.3419H10.3487V34.269ZM13.0188 21.2828L8.96241 25.7292L8.9075 25.6804L12.9638 21.2341L13.0188 21.2828ZM8.96685 25.7231L7.31746 28.5125L7.25363 28.4758L8.90299 25.6864L8.96685 25.7231ZM7.25993 28.5205C4.30689 25.7192 2.77359 23.833 1.92548 22.1599C1.07691 20.4859 0.915656 19.0275 0.700899 17.0888L0.774371 17.0809C0.989244 19.0205 1.14972 20.4665 1.99159 22.1273C2.83391 23.789 4.35975 25.6683 7.31116 28.4679L7.25993 28.5205ZM0.700899 17.0888C0.684754 16.9431 0.668308 16.7947 0.651246 16.6432L0.724707 16.6351C0.741776 16.7867 0.758229 16.9352 0.774371 17.0809L0.700899 17.0888ZM7.3225 28.4942C7.3225 29.2854 7.52444 29.9195 7.71713 30.5239L7.64661 30.5457C7.454 29.9417 7.24858 29.2979 7.24858 28.4942H7.3225ZM7.71713 30.5239C7.89467 31.0807 8.06504 31.6143 8.05513 32.217C8.04523 32.821 7.85446 33.4914 7.31673 34.325L7.25436 34.2859C7.78638 33.4612 7.97161 32.8038 7.98122 32.2158C7.99098 31.6267 7.82467 31.1041 7.64661 30.5457L7.71713 30.5239ZM7.28554 34.269H10.3487V34.3419H7.28554V34.269ZM12.9651 34.2797C12.9769 34.2681 12.9885 34.2566 13.0001 34.2451L13.0525 34.2966C13.0408 34.3081 13.0291 34.3197 13.0174 34.3312L12.9651 34.2797ZM0.651246 16.6432C0.180212 12.461 0.137462 9.18983 2.31013 6.85158L2.36461 6.90085C0.21745 9.21163 0.253228 12.4491 0.724707 16.6351L0.651246 16.6432ZM2.31013 6.85158C3.38436 5.69548 3.6155 4.7168 3.58168 4.03045C3.56474 3.68669 3.48127 3.41483 3.40228 3.22922C3.36278 3.13641 3.32441 3.0652 3.29607 3.0174C3.2819 2.99351 3.27024 2.97547 3.26222 2.96352C3.2582 2.95755 3.2551 2.9531 3.25304 2.9502C3.25201 2.94875 3.25124 2.94769 3.25075 2.94702C3.25051 2.94669 3.25033 2.94645 3.25023 2.94631C3.25018 2.94624 3.25015 2.9462 3.25013 2.94618C3.25013 2.94617 3.25013 2.94617 3.25013 2.94616C3.25013 2.94618 3.25014 2.94619 3.27988 2.92454C3.30961 2.90288 3.30963 2.90291 3.30965 2.90295C3.30967 2.90297 3.3097 2.90301 3.30973 2.90305C3.30979 2.90313 3.30987 2.90323 3.30997 2.90336C3.31016 2.90362 3.31042 2.90398 3.31075 2.90443C3.31141 2.90534 3.31236 2.90665 3.31357 2.90835C3.31598 2.91175 3.31945 2.91672 3.32382 2.92324C3.33258 2.93626 3.34497 2.95545 3.35987 2.98059C3.38967 3.03085 3.42954 3.10493 3.47042 3.20099C3.55219 3.39311 3.63808 3.67332 3.6555 4.02691C3.69041 4.73528 3.4503 5.73242 2.36461 6.90085L2.31013 6.85158ZM3.27988 2.92454C3.28851 2.95999 3.2885 2.95999 3.28849 2.95999C3.28848 2.95999 3.28846 2.96 3.28845 2.96C3.28841 2.96001 3.28837 2.96002 3.2883 2.96004C3.28818 2.96007 3.28798 2.96011 3.28773 2.96017C3.28724 2.96028 3.28651 2.96046 3.28554 2.96069C3.28359 2.96115 3.28072 2.96182 3.27695 2.96268C3.26942 2.96443 3.25831 2.96699 3.24395 2.97023C3.21523 2.97673 3.17352 2.98598 3.12146 2.99708C3.01734 3.01926 2.87174 3.04879 2.7057 3.0782C2.37429 3.1369 1.95915 3.19554 1.63025 3.19345L1.63072 3.12053C1.95246 3.12258 2.36202 3.06499 2.69264 3.00643C2.85763 2.9772 3.00238 2.94785 3.10585 2.9258C3.15759 2.91478 3.19899 2.90559 3.22743 2.89916C3.24166 2.89594 3.25264 2.89342 3.26005 2.8917C3.26375 2.89085 3.26657 2.89018 3.26845 2.88975C3.26939 2.88953 3.2701 2.88936 3.27056 2.88925C3.2708 2.88919 3.27098 2.88915 3.27109 2.88913C3.27115 2.88911 3.27118 2.8891 3.27121 2.8891C3.27123 2.8891 3.27123 2.88909 3.27124 2.88909C3.27125 2.88909 3.27125 2.88909 3.27988 2.92454ZM1.63025 3.19345C1.4273 3.19216 1.2898 3.1309 1.22219 3.01732C1.15572 2.90567 1.16473 2.75605 1.22322 2.59564C1.34061 2.27366 1.66824 1.87639 2.10863 1.5549C2.54975 1.23289 3.10917 0.983077 3.69433 0.961719C4.28108 0.940296 4.89058 1.14882 5.428 1.7379L5.37306 1.78667C4.85014 1.21349 4.26168 1.01397 3.69706 1.03458C3.13083 1.05525 2.58546 1.29752 2.15261 1.61351C1.71902 1.93002 1.40349 2.31663 1.29277 2.62031C1.23719 2.77273 1.2359 2.89637 1.28592 2.9804C1.33479 3.06249 1.44058 3.11932 1.63072 3.12053L1.63025 3.19345ZM5.40052 1.72583H7.75682V1.79874H5.40052V1.72583ZM7.75682 1.76229C7.72378 1.74597 7.72378 1.74595 7.72378 1.7459C7.72378 1.74588 7.72385 1.74583 7.72385 1.74578C7.72393 1.74568 7.724 1.74554 7.72407 1.74536C7.72422 1.74501 7.72452 1.74453 7.72481 1.74391C7.72548 1.74267 7.72637 1.74088 7.72762 1.73858C7.73014 1.73398 7.73376 1.72732 7.73864 1.7188C7.74847 1.70177 7.7631 1.67731 7.78284 1.64716C7.82231 1.58686 7.88232 1.50366 7.96466 1.41132C8.12941 1.22668 8.38412 1.00486 8.744 0.856938C9.46643 0.559987 10.5992 0.5657 12.2552 1.73262L12.2122 1.79195C10.5694 0.634353 9.46377 0.640066 8.77246 0.924247C8.42544 1.06688 8.17945 1.28091 8.02017 1.45948C7.94057 1.54874 7.88269 1.62898 7.84492 1.68673C7.826 1.71559 7.81211 1.73881 7.80301 1.7547C7.79843 1.76263 7.7951 1.76873 7.79289 1.77279C7.79185 1.77481 7.79104 1.77633 7.79052 1.77731C7.7903 1.7778 7.79008 1.77815 7.79001 1.77836C7.78993 1.77847 7.78986 1.77854 7.78986 1.77858C7.78986 1.7786 7.78986 1.7786 7.78986 1.77861C7.78986 1.7786 7.78986 1.77859 7.75682 1.76229ZM12.2337 1.76229C12.2643 1.74169 12.2643 1.7417 12.2643 1.7417C12.2643 1.74171 12.2643 1.74172 12.2643 1.74172C12.2643 1.74174 12.2643 1.74176 12.2643 1.74179C12.2643 1.74185 12.2644 1.74193 12.2645 1.74204C12.2646 1.74227 12.2648 1.7426 12.2651 1.74304C12.2657 1.74393 12.2667 1.74525 12.2679 1.74699C12.2703 1.75047 12.2739 1.75567 12.2786 1.76253C12.288 1.77626 12.3019 1.79666 12.32 1.82338C12.3562 1.87684 12.4091 1.95562 12.476 2.05703C12.6097 2.25983 12.7993 2.55315 13.0228 2.91537L12.9597 2.95328C12.7366 2.59177 12.5474 2.29907 12.414 2.09679C12.3473 1.99565 12.2946 1.91712 12.2586 1.8639C12.2405 1.83729 12.2267 1.817 12.2173 1.80339C12.2127 1.79658 12.2091 1.79144 12.2068 1.788C12.2056 1.78628 12.2047 1.785 12.2041 1.78414C12.2038 1.78371 12.2036 1.78339 12.2034 1.78318C12.2034 1.78307 12.2033 1.78299 12.2033 1.78294C12.2033 1.78291 12.2033 1.7829 12.2032 1.78288C12.2032 1.78288 12.2032 1.78288 12.2032 1.78287C12.2032 1.78287 12.2032 1.78287 12.2337 1.76229ZM0.714108 16.6134C0.947047 16.8432 1.35532 17.1538 1.82094 17.3375C2.28658 17.5213 2.80343 17.576 3.26086 17.3052L3.29889 17.3678C2.81382 17.6549 2.27035 17.5934 1.79348 17.4052C1.31658 17.217 0.900164 16.9 0.661845 16.665L0.714108 16.6134ZM6.81429 18.4987C6.77733 18.4983 6.77733 18.4983 6.77733 18.4983V18.4982C6.77733 18.4982 6.77733 18.4981 6.77733 18.498C6.77734 18.4978 6.77734 18.4975 6.77734 18.4971C6.77736 18.4963 6.77737 18.4952 6.7774 18.4937C6.77745 18.4907 6.77753 18.4863 6.77766 18.4806C6.77791 18.469 6.77834 18.452 6.77904 18.4301C6.78045 18.3864 6.78297 18.3231 6.7874 18.2447C6.79628 18.0879 6.81285 17.8706 6.84361 17.6284C6.90496 17.1456 7.02337 16.5583 7.25336 16.1564L7.31773 16.1922C7.09536 16.5808 6.97815 17.1558 6.91695 17.6375C6.88645 17.8776 6.87001 18.0932 6.86121 18.2488C6.8568 18.3265 6.85431 18.3892 6.85291 18.4325C6.85222 18.4541 6.8518 18.4708 6.85155 18.4821C6.85143 18.4878 6.85135 18.4921 6.8513 18.4949C6.85128 18.4964 6.85126 18.4975 6.85125 18.4982C6.85124 18.4985 6.85124 18.4988 6.85124 18.499C6.85124 18.499 6.85124 18.4991 6.85124 18.4992C6.85124 18.4992 6.85124 18.4992 6.81429 18.4987ZM7.25336 16.1564C7.45097 15.811 7.74928 15.5171 7.99667 15.3103C8.12054 15.2067 8.23223 15.1245 8.31301 15.0682C8.35337 15.04 8.38604 15.0184 8.40866 15.0036C8.42004 14.9963 8.42884 14.9906 8.43482 14.9869C8.43785 14.985 8.44014 14.9835 8.4417 14.9826C8.44251 14.982 8.4431 14.9817 8.44354 14.9815C8.44377 14.9813 8.44391 14.9812 8.44399 14.9811C8.44406 14.9811 8.44414 14.9811 8.44414 14.981H8.44421C8.44421 14.981 8.44421 14.981 8.46365 15.012C8.48316 15.043 8.48316 15.043 8.48316 15.043C8.48309 15.043 8.48309 15.043 8.48301 15.0431C8.48294 15.0431 8.48287 15.0431 8.48264 15.0433C8.48235 15.0435 8.48176 15.0438 8.48109 15.0442C8.47961 15.0452 8.47747 15.0465 8.47459 15.0483C8.4689 15.0519 8.46032 15.0574 8.44931 15.0645C8.42728 15.0788 8.39528 15.1001 8.35566 15.1277C8.27628 15.1831 8.16637 15.2639 8.04441 15.3659C7.80006 15.5703 7.50921 15.8576 7.31773 16.1922L7.25336 16.1564ZM8.46365 15.012C8.43815 15.0383 8.43815 15.0383 8.43807 15.0383V15.0383C8.438 15.0383 8.43793 15.0382 8.43785 15.0381C8.43771 15.038 8.43748 15.0378 8.43719 15.0375C8.4366 15.0369 8.43571 15.036 8.43453 15.0349C8.43216 15.0326 8.42869 15.0294 8.4241 15.025C8.41501 15.0163 8.40178 15.0035 8.38493 14.9871C8.35123 14.9543 8.30318 14.9069 8.24568 14.8485C8.13082 14.7319 7.97804 14.5715 7.82681 14.3964C7.67574 14.2214 7.5254 14.0309 7.41593 13.8542C7.36122 13.7659 7.31618 13.6801 7.28644 13.6009C7.25686 13.5221 7.24135 13.4469 7.24881 13.3808L7.32228 13.3889C7.31661 13.439 7.32807 13.5018 7.35575 13.5756C7.38326 13.6489 7.42576 13.7302 7.47898 13.8162C7.58556 13.9882 7.73302 14.1754 7.88306 14.3491C8.03288 14.5227 8.18448 14.6818 8.29867 14.7977C8.35581 14.8556 8.40348 14.9027 8.43689 14.9352C8.4536 14.9515 8.46668 14.9641 8.47562 14.9727C8.48006 14.9769 8.48353 14.9802 8.48582 14.9824C8.48693 14.9835 8.48782 14.9843 8.48841 14.9849C8.4887 14.9851 8.48893 14.9853 8.489 14.9855C8.48907 14.9855 8.48915 14.9856 8.48922 14.9856C8.48922 14.9856 8.48922 14.9856 8.48922 14.9857C8.48922 14.9857 8.48922 14.9857 8.46365 15.012ZM5.8422 7.8279L5.13532 6.89808L5.19445 6.85433L5.90133 7.78415L5.8422 7.8279ZM5.16489 6.87621C5.19161 6.90139 5.19161 6.90139 5.19161 6.9014C5.1916 6.90141 5.19158 6.90142 5.19157 6.90144C5.19153 6.90147 5.19149 6.90153 5.19142 6.90159C5.19129 6.90173 5.1911 6.90193 5.19083 6.9022C5.19031 6.90274 5.18952 6.90356 5.18848 6.90464C5.1864 6.90679 5.18329 6.91001 5.17921 6.91423C5.17107 6.92269 5.15903 6.93521 5.14351 6.95139C5.11247 6.98375 5.0675 7.03081 5.01181 7.08956C4.90041 7.20705 4.74613 7.37129 4.57463 7.55818C4.23137 7.93217 3.82002 8.39606 3.54506 8.75773L3.48593 8.71398C3.76309 8.3494 4.17643 7.88338 4.51984 7.50918C4.69167 7.322 4.84623 7.15746 4.95782 7.03975C5.01362 6.98089 5.05869 6.93373 5.08981 6.90127C5.10538 6.88505 5.11746 6.87249 5.12565 6.864C5.12974 6.85974 5.13287 6.85651 5.13497 6.85433C5.13602 6.85324 5.13682 6.85242 5.13735 6.85187C5.13762 6.85159 5.13782 6.85138 5.13796 6.85124C5.13803 6.85118 5.13808 6.85112 5.13811 6.85108C5.13813 6.85107 5.13814 6.85105 5.13815 6.85104C5.13816 6.85104 5.13817 6.85103 5.16489 6.87621ZM3.5155 6.91267H2.33737V6.83975H3.5155V6.91267ZM12.9579 3.36587L12.2003 1.77781L12.2671 1.74676L13.0247 3.33482L12.9579 3.36587ZM6.13696 3.64377L5.43009 4.57357L5.37096 4.52982L6.07783 3.60002L6.13696 3.64377ZM5.40052 4.5517C5.4374 4.54939 5.4374 4.54939 5.4374 4.54939C5.4374 4.54939 5.4374 4.54939 5.4374 4.5494C5.4374 4.54942 5.43741 4.54945 5.43741 4.5495C5.43742 4.54959 5.43743 4.54974 5.43744 4.54994C5.43747 4.55034 5.43752 4.55097 5.43757 4.5518C5.43769 4.55348 5.43788 4.55599 5.43814 4.5593C5.43866 4.56593 5.43949 4.57572 5.44069 4.58821C5.44308 4.61322 5.44697 4.64904 5.4529 4.69206C5.4648 4.77824 5.48483 4.89267 5.5174 5.00671C5.55011 5.12127 5.59473 5.2328 5.65455 5.31495C5.71412 5.39677 5.7852 5.44504 5.87177 5.44504V5.51796C5.75258 5.51796 5.66188 5.45001 5.59451 5.35749C5.52739 5.2653 5.47992 5.14439 5.44626 5.02648C5.41244 4.90808 5.39184 4.79006 5.37967 4.7019C5.37357 4.65775 5.36958 4.62093 5.3671 4.59508C5.36586 4.58216 5.365 4.57197 5.36445 4.56497C5.36417 4.56147 5.36397 4.55877 5.36384 4.55693C5.36378 4.556 5.36373 4.55529 5.36369 4.5548C5.36368 4.55456 5.36366 4.55437 5.36365 4.55424C5.36365 4.55417 5.36365 4.55411 5.36365 4.55408C5.36365 4.55405 5.36364 4.55404 5.36364 4.55403C5.36364 4.55402 5.36364 4.554 5.40052 4.5517ZM5.87177 5.44504C5.95834 5.44504 6.02943 5.39677 6.089 5.31495C6.14882 5.2328 6.19344 5.12127 6.22615 5.00671C6.25871 4.89267 6.27875 4.77824 6.29064 4.69206C6.29658 4.64904 6.30046 4.61322 6.30287 4.58821C6.30406 4.57572 6.30489 4.56593 6.30541 4.5593C6.30568 4.55599 6.30586 4.55348 6.30598 4.5518C6.30604 4.55097 6.30608 4.55034 6.30611 4.54994C6.30612 4.54974 6.30613 4.54959 6.30614 4.5495C6.30614 4.54945 6.30614 4.54942 6.30614 4.5494C6.30615 4.54939 6.30615 4.54939 6.30615 4.54939C6.30615 4.54939 6.30615 4.54939 6.34303 4.5517C6.37991 4.554 6.37991 4.55402 6.37991 4.55403C6.37991 4.55404 6.37991 4.55405 6.37991 4.55408C6.3799 4.55411 6.3799 4.55417 6.37989 4.55424C6.37989 4.55437 6.37988 4.55456 6.37986 4.5548C6.37983 4.55529 6.37977 4.556 6.37971 4.55693C6.37957 4.55877 6.37938 4.56147 6.3791 4.56497C6.37855 4.57197 6.37769 4.58216 6.37645 4.59508C6.37397 4.62093 6.36997 4.65775 6.36388 4.7019C6.35172 4.79006 6.3311 4.90808 6.29729 5.02649C6.26363 5.14439 6.21615 5.2653 6.14903 5.35749C6.08167 5.45001 5.99096 5.51796 5.87177 5.51796V5.44504ZM6.30718 4.56054L6.07155 3.63073L6.14325 3.61305L6.37888 4.54285L6.30718 4.56054ZM3.27988 17.3365C3.26103 17.3679 3.26102 17.3679 3.26101 17.3679C3.26099 17.3679 3.26097 17.3679 3.26095 17.3678C3.26089 17.3678 3.26083 17.3677 3.26074 17.3677C3.26056 17.3676 3.2603 17.3674 3.25996 17.3672C3.25929 17.3669 3.25829 17.3663 3.25699 17.3655C3.25439 17.3639 3.25055 17.3617 3.24554 17.3586C3.23553 17.3526 3.22086 17.3437 3.20212 17.3321C3.16462 17.3089 3.11081 17.2748 3.0453 17.2313C2.9143 17.1442 2.73635 17.0193 2.54853 16.8679C2.17452 16.5662 1.75509 16.1541 1.59575 15.7218L1.66522 15.6969C1.81719 16.1092 2.22245 16.5107 2.59532 16.8114C2.78093 16.9611 2.95695 17.0847 3.08658 17.1708C3.15137 17.2138 3.20453 17.2475 3.24143 17.2704C3.25988 17.2818 3.27427 17.2905 3.28401 17.2964C3.28888 17.2993 3.29259 17.3015 3.29506 17.303C3.29631 17.3037 3.29723 17.3043 3.29784 17.3047C3.29815 17.3048 3.29838 17.3049 3.29852 17.305C3.2986 17.3051 3.29865 17.3051 3.29869 17.3051C3.2987 17.3052 3.29871 17.3052 3.29872 17.3052C3.29872 17.3052 3.29872 17.3052 3.27988 17.3365ZM1.59575 15.7218C1.46909 15.3782 1.40016 15.0779 1.39776 14.7772C1.39535 14.4763 1.45955 14.1773 1.59611 13.8364L1.66485 13.8631C1.53094 14.1975 1.46935 14.4872 1.47167 14.7766C1.47399 15.0663 1.54031 15.358 1.66522 15.6969L1.59575 15.7218ZM1.59611 13.8364C1.70329 13.5687 1.89586 13.415 2.07693 13.2698L2.12355 13.3264C1.94149 13.4724 1.76407 13.6154 1.66485 13.8631L1.59611 13.8364ZM2.07693 13.2698C2.27683 13.1095 2.46242 12.9596 2.53724 12.6782L2.60873 12.6968C2.52709 13.0038 2.3223 13.167 2.12355 13.3264L2.07693 13.2698ZM6.08696 10.6317C6.49979 10.3612 6.85058 9.99892 7.09859 9.70324C7.22247 9.55558 7.32041 9.42492 7.38735 9.33122C7.42081 9.28441 7.44653 9.24678 7.46383 9.22097C7.47247 9.20806 7.47898 9.19815 7.48334 9.19144C7.48556 9.18808 7.48718 9.18553 7.48829 9.18385C7.48881 9.18298 7.48918 9.1824 7.48947 9.18196C7.48962 9.18174 7.4897 9.18159 7.48977 9.18152C7.48977 9.18145 7.48977 9.18145 7.48984 9.18145C7.48984 9.18137 7.48984 9.18137 7.48984 9.18137C7.48984 9.18137 7.48984 9.18137 7.52118 9.2007C7.55252 9.22002 7.55252 9.22002 7.55252 9.22009H7.55245C7.55245 9.22017 7.55237 9.22017 7.55237 9.22024C7.5523 9.22039 7.55215 9.22053 7.552 9.22082C7.55171 9.22126 7.55127 9.22199 7.55067 9.22286C7.54957 9.22469 7.54779 9.22731 7.54557 9.23081C7.54099 9.23781 7.53427 9.24802 7.52547 9.26122C7.50781 9.28754 7.48171 9.32575 7.44779 9.37322C7.37994 9.46816 7.28083 9.60035 7.15554 9.74976C6.90518 10.0482 6.54909 10.4165 6.12784 10.6924L6.08696 10.6317ZM12.9647 9.53714C11.9297 13.4779 9.02428 16.3277 7.60005 17.7251L7.54794 17.6734C8.97291 16.2753 11.8638 13.4381 12.8931 9.51883L12.9647 9.53714ZM7.60005 17.7251C7.41135 17.9102 7.24894 18.0696 7.12015 18.2027C6.99091 18.3363 6.89735 18.4416 6.84503 18.519L6.78353 18.4785C6.83982 18.3953 6.93751 18.2858 7.06668 18.1523C7.19628 18.0184 7.35945 17.8583 7.54794 17.6734L7.60005 17.7251ZM12.2677 1.74787C12.6045 2.52 12.8535 3.27184 13.0264 4.00213L12.9545 4.01871C12.7825 3.29276 12.5349 2.545 12.1998 1.77669L12.2677 1.74787ZM13.0264 4.00213C13.0267 4.00329 13.027 4.00447 13.0273 4.00564L12.9553 4.02221C12.955 4.02104 12.9548 4.01987 12.9545 4.01871L13.0264 4.00213ZM13.0273 9.28805C13.0072 9.37154 12.9864 9.45459 12.9647 9.53714L12.8931 9.51883C12.9147 9.4368 12.9354 9.35426 12.9553 9.27128L13.0273 9.28805ZM12.8919 9.52758L12.9535 4.01002L13.0274 4.01082L12.9658 9.52839L12.8919 9.52758Z" fill="black"/>
<path fill-rule="evenodd" clip-rule="evenodd" d="M3.51552 8.73578C4.25166 9.00813 4.66439 9.00813 5.40054 8.73578C5.56334 9.29447 5.29735 10.6065 4.92928 11.0604C4.56688 10.7922 4.23931 10.5241 3.98677 10.2427C3.58252 9.79234 3.37049 9.30811 3.51552 8.73578Z" fill="black"/>
<path d="M7.34004 5.61064C7.14484 5.61064 6.9866 5.45453 6.9866 5.26197C6.9866 5.0694 7.14484 4.91329 7.34004 4.91329C7.53524 4.91329 7.69348 5.0694 7.69348 5.26197C7.69348 5.45453 7.53524 5.61064 7.34004 5.61064Z" fill="black"/>
<path d="M4.51253 5.61064C4.31733 5.61064 4.15909 5.45453 4.15909 5.26197C4.15909 5.0694 4.31733 4.91329 4.51253 4.91329C4.70773 4.91329 4.86597 5.0694 4.86597 5.26197C4.86597 5.45453 4.70773 5.61064 4.51253 5.61064Z" fill="black"/>
<path d="M21.7131 9.53079H17.131V12.3724H22.5432V14.5833H14.2175V2.66032H22.5598V4.8795H17.131V7.39346H21.7131V9.53079ZM26.6438 12.3724H31.7156V14.5833H23.7302V2.66032H26.6438V12.3724ZM40.4397 9.53079H35.8576V12.3724H41.2697V14.5833H32.9441V2.66032H41.2863V4.8795H35.8576V7.39346H40.4397V9.53079ZM47.1467 11.3405L49.554 2.66032H52.8078L48.7405 14.5833H45.553L41.5188 2.66032H44.7478L47.1467 11.3405ZM59.9299 12.3559H55.9372L55.2399 14.5833H52.1272L56.5598 2.66032H59.299L63.7648 14.5833H60.6354L59.9299 12.3559ZM56.6345 10.1368H59.2326L57.9294 6.00138L56.6345 10.1368ZM74.3647 13.1093C73.9168 13.6006 73.261 13.9964 72.3977 14.2967C71.5344 14.597 70.5881 14.7471 69.5588 14.7471C67.9761 14.7471 66.7116 14.2694 65.7654 13.3141C64.8191 12.3587 64.3127 11.0294 64.2463 9.32604L64.238 8.29427C64.238 7.12053 64.4483 6.09692 64.8689 5.22344C65.2895 4.3445 65.8898 3.67028 66.6701 3.20079C67.4559 2.72583 68.3635 2.48835 69.3928 2.48835C70.898 2.48835 72.0656 2.82955 72.8957 3.51197C73.7314 4.18891 74.2184 5.2016 74.3566 6.55004H71.551C71.4514 5.88401 71.2355 5.40905 70.9035 5.12517C70.5715 4.84129 70.1011 4.69935 69.4924 4.69935C68.762 4.69935 68.1975 5.00507 67.799 5.61651C67.4006 6.22794 67.1986 7.10143 67.1931 8.23696V8.95759C67.1931 10.1477 67.3978 11.043 67.8074 11.6436C68.2224 12.2386 68.8726 12.5361 69.758 12.5361C70.5161 12.5361 71.0806 12.3696 71.4514 12.0366V10.1859H69.426V8.21239H74.3647V13.1093ZM83.5536 9.53079H78.9717V12.3724H84.3844V14.5833H76.0581V2.66032H84.4006V4.8795H78.9717V7.39346H83.5536V9.53079ZM14.2175 34.2708V22.3478H18.1105C19.1786 22.3478 20.1387 22.5881 20.9909 23.0684C21.8431 23.5434 22.5072 24.2176 22.9831 25.0911C23.4646 25.9591 23.708 26.9336 23.7136 28.0145V28.5632C23.7136 29.6551 23.4784 30.635 23.008 31.503C22.5432 32.3655 21.8847 33.0425 21.0325 33.5339C20.1858 34.0197 19.2395 34.2654 18.1935 34.2708H14.2175ZM17.131 24.567V32.0599H18.1438C18.9794 32.0599 19.6213 31.7678 20.0695 31.1836C20.5178 30.594 20.7419 29.7205 20.7419 28.5632V28.0473C20.7419 26.8954 20.5178 26.0274 20.0695 25.4433C19.6213 24.859 18.9683 24.567 18.1105 24.567H17.131ZM32.7033 29.2183H28.1213V32.0599H33.5334V34.2708H25.2077V22.3478H33.55V24.567H28.1213V27.081H32.7033V29.2183ZM43.7683 22.3478H46.6736V30.5285C46.6736 31.2874 46.4937 31.9643 46.134 32.5593C45.7798 33.1544 45.2818 33.6157 44.6398 33.9433C44.0035 34.2708 43.2923 34.4346 42.5066 34.4346C41.1895 34.4346 40.1657 34.1071 39.4353 33.452C38.7048 32.7968 38.3396 31.8687 38.3396 30.6677H41.2614C41.2614 31.2137 41.3555 31.6094 41.5437 31.8551C41.7374 32.1008 42.0583 32.2236 42.5066 32.2236C42.9105 32.2236 43.2204 32.0762 43.4362 31.7814C43.6576 31.4812 43.7683 31.0635 43.7683 30.5285V22.3478ZM55.1985 32.0434H51.2058L50.5085 34.2708H47.3957L51.8283 22.3478H54.5676L59.0334 34.2708H55.904L55.1985 32.0434ZM51.9031 29.8243H54.5012L53.1979 25.6889L51.9031 29.8243ZM59.9216 34.2708V22.3478H63.8147C64.8827 22.3478 65.8428 22.5881 66.6951 23.0684C67.5473 23.5434 68.2113 24.2176 68.6872 25.0911C69.1687 25.9591 69.4122 26.9336 69.4177 28.0145V28.5632C69.4177 29.6551 69.1825 30.635 68.7121 31.503C68.2473 32.3655 67.5887 33.0425 66.7365 33.5339C65.8898 34.0197 64.9435 34.2654 63.8977 34.2708H59.9216ZM62.8352 24.567V32.0599H63.8478C64.6835 32.0599 65.3254 31.7678 65.7737 31.1836C66.2219 30.594 66.446 29.7205 66.446 28.5632V28.0473C66.446 26.8954 66.2219 26.0274 65.7737 25.4433C65.3254 24.859 64.6724 24.567 63.8147 24.567H62.8352ZM78.4078 29.2183H73.8254V32.0599H79.2378V34.2708H70.9119V22.3478H79.2541V24.567H73.8254V27.081H78.4078V29.2183Z" fill="#373C42"/>
</svg>
