<svg width="51" height="48" viewBox="0 0 51 48" fill="none" xmlns="http://www.w3.org/2000/svg">
<path d="M28.9243 13.2557C29.442 18.2186 30.5182 24.4134 32.7497 28.8764C32.7497 30.4067 27.6527 33.2862 27.9445 38.4401L26.6927 36.8462L24.78 38.4401L23.5048 36.8462L21.5921 38.7589L20.9545 35.8898L16.8102 39.3965V36.8462C16.8102 36.8462 15.5144 37.8835 14.8975 38.7589C14.2806 39.6343 14.0421 41.1145 14.5787 42.9032L13.3035 42.5844L9.47806 45.7723C9.47806 45.7723 9.40131 42.1726 10.1156 40.0341L14.8975 35.8898L17.7666 31.7455C17.7666 31.7455 11.3908 35.2522 9.47806 39.3965C8.60117 41.2964 8.52829 42.7944 8.70654 43.8596L6.92774 42.9032L5.33379 43.8596L3.3456 42.5844C3.1826 40.8566 3.20351 38.7014 3.89923 36.8462L0.113407 32.0643C1.25876 16.2578 11.0664 12.981 28.9243 13.2557Z" fill="#7D5134"/>
<path fill-rule="evenodd" clip-rule="evenodd" d="M46.1389 4.0108C46.1389 4.0108 44.4918 6.24233 47.4141 9.43023H45.8201V11.9806C45.0732 10.9846 43.5886 9.43023 43.5886 9.43023L42.6322 10.7054C42.6322 10.7054 40.6872 8.86457 39.1256 9.43023C37.6265 9.97319 35.6189 11.9806 35.9377 12.6181C36.5752 13.8933 40.6485 17.7188 40.7195 18.3564C40.7905 18.9939 39.1256 20.5879 39.1256 20.5879C39.1256 20.5879 40.193 21.2492 40.7195 22.1818C41.3315 23.266 41.3571 25.3697 41.3571 25.3697C40.337 23.8395 28.5374 15.1685 34.0249 2.41685C38.488 -0.771057 40.0819 2.41685 40.0819 2.41685H43.2698C46.1389 -0.771057 50.4978 4.31591 48.3705 4.32959C47.4902 4.33525 46.1389 4.0108 46.1389 4.0108ZM36.894 4.32959C37.8411 4.28587 39.4443 3.05443 39.4443 3.05443L36.894 3.37322L34.6625 3.05443C34.6625 3.05443 35.8315 4.37863 36.894 4.32959ZM43.2698 6.24233L42.3135 4.96717L41.9947 6.24233C41.9947 6.24233 42.0755 7.51749 42.6322 7.51749C43.189 7.51749 43.2698 6.24233 43.2698 6.24233Z" fill="#7D5134"/>
<path d="M47.4141 9.43023C50.3363 12.6181 50.2832 17.0812 49.6456 22.8194C49.008 23.457 47.4141 24.5409 46.1389 23.7758C46.1389 23.7758 47.9493 22.7025 48.3705 21.5443C48.7108 20.6083 48.7364 19.9202 48.3705 18.9939C48.0776 18.2525 47.2976 18.1711 47.0953 17.4C46.7842 16.214 48.3705 16.7624 48.3705 13.8933C48.3705 11.0242 45.8201 9.43023 45.8201 9.43023H47.4141Z" fill="#7D5134"/>
<path d="M43.2698 11.9806C44.2658 12.354 44.8242 12.354 45.8201 11.9806C46.0164 12.7654 45.7295 13.4295 45.1826 14.0471C44.8409 14.433 44.3977 14.8007 43.9074 15.1685C43.4094 14.546 43.0496 12.7467 43.2698 11.9806Z" fill="#7D5134"/>
<path d="M34.0249 2.41685C34.0249 2.41685 29.8806 8.47386 28.9243 13.2557L34.0249 2.41685Z" fill="#7D5134"/>
<path d="M38.488 35.2522C37.741 39.8586 34.9813 40.0341 36.5752 47.0475M38.488 35.2522C36.247 32.7623 34.9907 31.3663 32.7497 28.8764M38.488 35.2522C39.3594 36.7462 39.848 37.5838 40.7195 39.0777M36.5752 47.0475C34.9813 47.0475 32.7497 47.0475 32.7497 47.0475C29.3436 43.6414 28.0783 40.8019 27.9445 38.4401M36.5752 47.0475C38.1692 47.0475 40.7195 47.0475 40.7195 47.0475C38.488 43.5408 40.7195 42.1901 40.7195 39.0777M32.7497 28.8764C30.5182 24.4134 29.442 18.2186 28.9243 13.2557M32.7497 28.8764C32.7497 30.4067 27.6527 33.2862 27.9445 38.4401M40.7195 39.0777C49.008 31.108 49.008 28.5576 49.6456 22.8194M49.6456 22.8194C50.2832 17.0812 50.3363 12.6181 47.4141 9.43023M49.6456 22.8194C49.008 23.457 47.4141 24.5409 46.1389 23.7758C46.1389 23.7758 47.9493 22.7025 48.3705 21.5443C48.7108 20.6083 48.7364 19.9202 48.3705 18.9939C48.0776 18.2525 47.2976 18.1711 47.0953 17.4M28.9243 13.2557C29.8806 8.47386 34.0249 2.41685 34.0249 2.41685M28.9243 13.2557C11.0664 12.981 1.25876 16.2578 0.113406 32.0643M28.9243 13.2557L34.0249 2.41685M7.56532 33.0207C7.56532 33.0207 5.33093 35.3522 3.89923 36.8462M3.89923 36.8462C2.46753 38.3401 0.233142 40.6717 0.233142 40.6717C-0.0311838 37.4557 -0.0702531 34.5989 0.113406 32.0643M3.89923 36.8462L0.113406 32.0643M3.89923 36.8462C3.20352 38.7014 3.1826 40.8566 3.3456 42.5844M9.47806 45.7723H3.89923C3.89923 45.7723 3.51871 44.4193 3.3456 42.5844M9.47806 45.7723C9.47806 45.7723 9.40131 42.1726 10.1156 40.0341M9.47806 45.7723H15.8539C15.8539 45.7723 14.8987 43.9698 14.5787 42.9032M9.47806 45.7723C9.47806 45.7723 8.91709 45.1179 8.70654 43.8596M9.47806 45.7723L13.3035 42.5844L14.5787 42.9032M17.7666 31.7455C17.7666 31.7455 11.3908 35.2522 9.47806 39.3965C8.60117 41.2964 8.52829 42.7944 8.70654 43.8596M17.7666 31.7455C17.7666 31.7455 11.5112 35.8559 10.1156 40.0341M17.7666 31.7455L14.8975 35.8898L10.1156 40.0341M14.5787 42.9032C14.0421 41.1145 14.2806 39.6343 14.8975 38.7589C15.5144 37.8835 16.8102 36.8462 16.8102 36.8462V39.3965L20.9545 35.8898L21.5921 38.7589L23.5048 36.8462L24.78 38.4401L26.6927 36.8462L27.9445 38.4401M47.4141 9.43023C44.4918 6.24233 46.1389 4.0108 46.1389 4.0108C46.1389 4.0108 47.4902 4.33525 48.3705 4.32959C50.4978 4.31591 46.1389 -0.771057 43.2698 2.41685H40.0819C40.0819 2.41685 38.488 -0.771057 34.0249 2.41685M47.4141 9.43023H45.8201M34.0249 2.41685C28.5374 15.1685 40.337 23.8395 41.3571 25.3697C41.3571 25.3697 41.3315 23.266 40.7195 22.1818C40.193 21.2492 39.1256 20.5879 39.1256 20.5879C39.1256 20.5879 40.7905 18.9939 40.7195 18.3564M40.7195 18.3564C40.6485 17.7188 36.5752 13.8933 35.9377 12.6181C35.6189 11.9806 37.6265 9.97319 39.1256 9.43023C40.6872 8.86457 42.6322 10.7054 42.6322 10.7054M40.7195 18.3564C41.9947 17.4 42.3135 14.6222 42.3135 14.6222M42.6322 10.7054L43.5886 9.43023C43.5886 9.43023 45.0732 10.9846 45.8201 11.9806M42.6322 10.7054C42.6322 10.7054 42.3135 11.9806 43.2698 11.9806M45.8201 11.9806C44.8242 12.354 44.2658 12.354 43.2698 11.9806M45.8201 11.9806C46.0164 12.7654 45.7295 13.4295 45.1826 14.0471M45.8201 11.9806V9.43023M43.2698 11.9806C43.0496 12.7467 43.4094 14.546 43.9074 15.1685M43.9074 15.1685C43.3364 15.1685 42.7937 14.9411 42.3135 14.6222M43.9074 15.1685C44.3977 14.8007 44.8409 14.433 45.1826 14.0471M40.4007 12.6181C40.4007 12.6181 41.185 13.873 42.3135 14.6222M45.8201 9.43023C45.8201 9.43023 48.3705 11.0242 48.3705 13.8933C48.3705 16.7624 46.7842 16.214 47.0953 17.4M8.70654 43.8596L6.92774 42.9032L5.33379 43.8596L3.3456 42.5844M47.0953 17.4L45.1826 14.0471M39.4443 3.05443C39.4443 3.05443 37.8411 4.28587 36.894 4.32959C35.8315 4.37863 34.6625 3.05443 34.6625 3.05443L36.894 3.37322L39.4443 3.05443ZM42.3135 4.96717L43.2698 6.24233C43.2698 6.24233 43.189 7.51748 42.6322 7.51749C42.0755 7.51749 41.9947 6.24233 41.9947 6.24233L42.3135 4.96717Z" stroke="black" stroke-width="0.1"/>
<path d="M38.488 35.2522L32.7497 28.8764C30.5182 24.4134 29.442 18.2186 28.9243 13.2557L34.0249 2.41685C28.5374 15.1685 40.337 23.8395 41.3571 25.3697C41.3571 25.3697 41.3315 23.266 40.7195 22.1818C40.193 21.2492 39.1256 20.5879 39.1256 20.5879C39.1256 20.5879 40.7905 18.9939 40.7195 18.3564C41.9947 17.4 42.3135 14.6222 42.3135 14.6222C42.7937 14.9411 43.3364 15.1685 43.9074 15.1685C44.3977 14.8007 44.8409 14.433 45.1826 14.0471L47.0953 17.4C47.2976 18.1711 48.0776 18.2525 48.3705 18.9939C48.7364 19.9202 48.7108 20.6083 48.3705 21.5443C47.9493 22.7025 46.1389 23.7758 46.1389 23.7758C47.4141 24.5409 49.008 23.457 49.6456 22.8194C49.008 28.5576 49.008 31.108 40.7195 39.0777L38.488 35.2522Z" fill="white"/>
<path d="M38.488 35.2522C37.741 39.8586 34.9813 40.0341 36.5752 47.0475H32.7497C29.3436 43.6414 28.0783 40.8019 27.9445 38.4401C27.6527 33.2862 32.7497 30.4067 32.7497 28.8764L38.488 35.2522Z" fill="white"/>
<path d="M36.5752 47.0475C34.9813 40.0341 37.741 39.8586 38.488 35.2522L40.7195 39.0777C40.7195 42.1901 38.488 43.5408 40.7195 47.0475H36.5752Z" fill="white"/>
<path d="M14.5787 42.9032C14.8987 43.9698 15.8539 45.7723 15.8539 45.7723H9.47806L13.3035 42.5844L14.5787 42.9032Z" fill="white"/>
<path d="M10.1156 40.0341C11.5112 35.8559 17.7666 31.7455 17.7666 31.7455L14.8975 35.8898L10.1156 40.0341Z" fill="white"/>
<path d="M9.47806 45.7723H3.89923C3.89923 45.7723 3.51871 44.4193 3.3456 42.5844L5.33379 43.8596L6.92774 42.9032L8.70654 43.8596C8.9171 45.1179 9.47806 45.7723 9.47806 45.7723Z" fill="white"/>
<path d="M3.89923 36.8462L0.233143 40.6717C-0.0311852 37.4557 -0.0702515 34.5989 0.113407 32.0643L3.89923 36.8462Z" fill="white"/>
<path d="M42.6322 10.7054L43.5886 9.43023C43.5886 9.43023 45.0732 10.9846 45.8201 11.9806C44.8242 12.354 44.2658 12.354 43.2698 11.9806C42.3135 11.9806 42.6322 10.7054 42.6322 10.7054Z" fill="white"/>
<path d="M42.3135 4.96717L43.2698 6.24233C43.2698 6.24233 43.189 7.51749 42.6322 7.51749C42.0755 7.51749 41.9947 6.24233 41.9947 6.24233L42.3135 4.96717Z" fill="white"/>
<path d="M39.4443 3.05443C39.4443 3.05443 37.8411 4.28587 36.894 4.32959C35.8315 4.37863 34.6625 3.05443 34.6625 3.05443L36.894 3.37322L39.4443 3.05443Z" fill="white"/>
<path d="M38.488 35.2522C37.741 39.8586 34.9813 40.0341 36.5752 47.0475M38.488 35.2522C36.247 32.7623 34.9907 31.3663 32.7497 28.8764M38.488 35.2522C39.3594 36.7462 39.848 37.5838 40.7195 39.0777M38.488 35.2522L32.7497 28.8764M38.488 35.2522L40.7195 39.0777M36.5752 47.0475C34.9813 47.0475 32.7497 47.0475 32.7497 47.0475M36.5752 47.0475C38.1692 47.0475 40.7195 47.0475 40.7195 47.0475M36.5752 47.0475H32.7497M36.5752 47.0475H40.7195M32.7497 47.0475C29.3436 43.6414 28.0783 40.8019 27.9445 38.4401M32.7497 28.8764C30.5182 24.4134 29.442 18.2186 28.9243 13.2557M32.7497 28.8764C32.7497 30.4067 27.6527 33.2862 27.9445 38.4401M40.7195 39.0777C49.008 31.108 49.008 28.5576 49.6456 22.8194M40.7195 39.0777C40.7195 42.1901 38.488 43.5408 40.7195 47.0475M49.6456 22.8194C50.2832 17.0812 50.3363 12.6181 47.4141 9.43023M49.6456 22.8194C49.008 23.457 47.4141 24.5409 46.1389 23.7758C46.1389 23.7758 47.9493 22.7025 48.3705 21.5443C48.7108 20.6083 48.7364 19.9202 48.3705 18.9939C48.0776 18.2525 47.2976 18.1711 47.0953 17.4M28.9243 13.2557C29.8806 8.47386 34.0249 2.41685 34.0249 2.41685M28.9243 13.2557C11.0664 12.981 1.25876 16.2578 0.113406 32.0643M28.9243 13.2557L34.0249 2.41685M0.233142 40.6717C0.233142 40.6717 2.46753 38.3401 3.89923 36.8462M0.233142 40.6717C-0.0311838 37.4557 -0.0702531 34.5989 0.113406 32.0643M0.233142 40.6717L3.89923 36.8462M7.56532 33.0207C7.56532 33.0207 5.33093 35.3522 3.89923 36.8462M3.89923 36.8462L0.113406 32.0643M3.89923 36.8462C3.20352 38.7014 3.1826 40.8566 3.3456 42.5844M9.47806 45.7723H3.89923C3.89923 45.7723 3.51871 44.4193 3.3456 42.5844M9.47806 45.7723C9.47806 45.7723 9.40131 42.1726 10.1156 40.0341M9.47806 45.7723H15.8539C15.8539 45.7723 14.8987 43.9698 14.5787 42.9032M9.47806 45.7723C9.47806 45.7723 8.91709 45.1179 8.70654 43.8596M9.47806 45.7723L13.3035 42.5844L14.5787 42.9032M17.7666 31.7455C17.7666 31.7455 11.3908 35.2522 9.47806 39.3965C8.60117 41.2964 8.52829 42.7944 8.70654 43.8596M17.7666 31.7455C17.7666 31.7455 11.5112 35.8559 10.1156 40.0341M17.7666 31.7455L14.8975 35.8898L10.1156 40.0341M14.5787 42.9032C14.0421 41.1145 14.2806 39.6343 14.8975 38.7589C15.5144 37.8835 16.8102 36.8462 16.8102 36.8462V39.3965L20.9545 35.8898L21.5921 38.7589L23.5048 36.8462L24.78 38.4401L26.6927 36.8462L27.9445 38.4401M47.4141 9.43023C44.4918 6.24233 46.1389 4.0108 46.1389 4.0108C46.1389 4.0108 47.4902 4.33525 48.3705 4.32959C50.4978 4.31591 46.1389 -0.771057 43.2698 2.41685H40.0819C40.0819 2.41685 38.488 -0.771057 34.0249 2.41685M47.4141 9.43023H45.8201M34.0249 2.41685C28.5374 15.1685 40.337 23.8395 41.3571 25.3697C41.3571 25.3697 41.3315 23.266 40.7195 22.1818C40.193 21.2492 39.1256 20.5879 39.1256 20.5879C39.1256 20.5879 40.7905 18.9939 40.7195 18.3564M40.7195 18.3564C40.6485 17.7188 36.5752 13.8933 35.9377 12.6181C35.6189 11.9806 37.6265 9.97319 39.1256 9.43023C40.6872 8.86457 42.6322 10.7054 42.6322 10.7054M40.7195 18.3564C41.9947 17.4 42.3135 14.6222 42.3135 14.6222M42.6322 10.7054L43.5886 9.43023C43.5886 9.43023 45.0732 10.9846 45.8201 11.9806M42.6322 10.7054C42.6322 10.7054 42.3135 11.9806 43.2698 11.9806M45.8201 11.9806C44.8242 12.354 44.2658 12.354 43.2698 11.9806M45.8201 11.9806C46.0164 12.7654 45.7295 13.4295 45.1826 14.0471M45.8201 11.9806V9.43023M43.2698 11.9806C43.0496 12.7467 43.4094 14.546 43.9074 15.1685M43.9074 15.1685C43.3364 15.1685 42.7937 14.9411 42.3135 14.6222M43.9074 15.1685C44.3977 14.8007 44.8409 14.433 45.1826 14.0471M40.4007 12.6181C40.4007 12.6181 41.185 13.873 42.3135 14.6222M45.8201 9.43023C45.8201 9.43023 48.3705 11.0242 48.3705 13.8933C48.3705 16.7624 46.7842 16.214 47.0953 17.4M8.70654 43.8596L6.92774 42.9032L5.33379 43.8596L3.3456 42.5844M47.0953 17.4L45.1826 14.0471M39.4443 3.05443C39.4443 3.05443 37.8411 4.28587 36.894 4.32959C35.8315 4.37863 34.6625 3.05443 34.6625 3.05443L36.894 3.37322L39.4443 3.05443ZM42.3135 4.96717L43.2698 6.24233C43.2698 6.24233 43.189 7.51748 42.6322 7.51749C42.0755 7.51749 41.9947 6.24233 41.9947 6.24233L42.3135 4.96717Z" stroke="black" stroke-width="0.1"/>
<path d="M48.3705 13.8933C48.3705 16.7624 46.7842 16.214 47.0953 17.4L45.1826 14.0471C45.7295 13.4295 46.0164 12.7654 45.8201 11.9806V9.43023C45.8201 9.43023 48.3705 11.0242 48.3705 13.8933Z" fill="#FFD789"/>
<path d="M40.7195 18.3564C40.6485 17.7188 36.5752 13.8933 35.9377 12.6181C35.6189 11.9806 37.6265 9.97319 39.1256 9.43023C40.6872 8.86457 42.6322 10.7054 42.6322 10.7054C42.6322 10.7054 42.3135 11.9806 43.2698 11.9806C43.0496 12.7467 43.4094 14.546 43.9074 15.1685C43.3364 15.1685 42.7937 14.9411 42.3135 14.6222C42.3135 14.6222 41.9947 17.4 40.7195 18.3564Z" fill="#FFD789"/>
<path d="M39.4443 3.05443C39.4443 3.05443 37.8411 4.28587 36.894 4.32959C35.8315 4.37863 34.6625 3.05443 34.6625 3.05443L36.894 3.37322L39.4443 3.05443Z" fill="#FFD789"/>
<path d="M43.2698 11.9806C44.2658 12.354 44.8242 12.354 45.8201 11.9806C46.0164 12.7654 45.7295 13.4295 45.1826 14.0471C44.8409 14.433 44.3977 14.8007 43.9074 15.1685C43.4094 14.546 43.0496 12.7467 43.2698 11.9806Z" fill="#FFD789"/>
<path d="M38.488 35.2522C37.741 39.8586 34.9813 40.0341 36.5752 47.0475M38.488 35.2522C36.247 32.7623 34.9907 31.3663 32.7497 28.8764M38.488 35.2522C39.3594 36.7462 39.848 37.5838 40.7195 39.0777M36.5752 47.0475C34.9813 47.0475 32.7497 47.0475 32.7497 47.0475C29.3436 43.6414 28.0783 40.8019 27.9445 38.4401M36.5752 47.0475C38.1692 47.0475 40.7195 47.0475 40.7195 47.0475C38.488 43.5408 40.7195 42.1901 40.7195 39.0777M32.7497 28.8764C30.5182 24.4134 29.442 18.2186 28.9243 13.2557M32.7497 28.8764C32.7497 30.4067 27.6527 33.2862 27.9445 38.4401M40.7195 39.0777C49.008 31.108 49.008 28.5576 49.6456 22.8194M49.6456 22.8194C50.2832 17.0812 50.3363 12.6181 47.4141 9.43023M49.6456 22.8194C49.008 23.457 47.4141 24.5409 46.1389 23.7758C46.1389 23.7758 47.9493 22.7025 48.3705 21.5443C48.7108 20.6083 48.7364 19.9202 48.3705 18.9939C48.0776 18.2525 47.2976 18.1711 47.0953 17.4M28.9243 13.2557C29.8806 8.47386 34.0249 2.41685 34.0249 2.41685M28.9243 13.2557C11.0664 12.981 1.25876 16.2578 0.113406 32.0643M28.9243 13.2557L34.0249 2.41685M7.56532 33.0207C7.56532 33.0207 5.33093 35.3522 3.89923 36.8462M3.89923 36.8462C2.46753 38.3401 0.233142 40.6717 0.233142 40.6717C-0.0311838 37.4557 -0.0702531 34.5989 0.113406 32.0643M3.89923 36.8462L0.113406 32.0643M3.89923 36.8462C3.20352 38.7014 3.1826 40.8566 3.3456 42.5844M9.47806 45.7723H3.89923C3.89923 45.7723 3.51871 44.4193 3.3456 42.5844M9.47806 45.7723C9.47806 45.7723 9.40131 42.1726 10.1156 40.0341M9.47806 45.7723H15.8539C15.8539 45.7723 14.8987 43.9698 14.5787 42.9032M9.47806 45.7723C9.47806 45.7723 8.91709 45.1179 8.70654 43.8596M9.47806 45.7723L13.3035 42.5844L14.5787 42.9032M17.7666 31.7455C17.7666 31.7455 11.3908 35.2522 9.47806 39.3965C8.60117 41.2964 8.52829 42.7944 8.70654 43.8596M17.7666 31.7455C17.7666 31.7455 11.5112 35.8559 10.1156 40.0341M17.7666 31.7455L14.8975 35.8898L10.1156 40.0341M14.5787 42.9032C14.0421 41.1145 14.2806 39.6343 14.8975 38.7589C15.5144 37.8835 16.8102 36.8462 16.8102 36.8462V39.3965L20.9545 35.8898L21.5921 38.7589L23.5048 36.8462L24.78 38.4401L26.6927 36.8462L27.9445 38.4401M47.4141 9.43023C44.4918 6.24233 46.1389 4.0108 46.1389 4.0108C46.1389 4.0108 47.4902 4.33525 48.3705 4.32959C50.4978 4.31591 46.1389 -0.771057 43.2698 2.41685H40.0819C40.0819 2.41685 38.488 -0.771057 34.0249 2.41685M47.4141 9.43023H45.8201M34.0249 2.41685C28.5374 15.1685 40.337 23.8395 41.3571 25.3697C41.3571 25.3697 41.3315 23.266 40.7195 22.1818C40.193 21.2492 39.1256 20.5879 39.1256 20.5879C39.1256 20.5879 40.7905 18.9939 40.7195 18.3564M40.7195 18.3564C40.6485 17.7188 36.5752 13.8933 35.9377 12.6181C35.6189 11.9806 37.6265 9.97319 39.1256 9.43023C40.6872 8.86457 42.6322 10.7054 42.6322 10.7054M40.7195 18.3564C41.9947 17.4 42.3135 14.6222 42.3135 14.6222M42.6322 10.7054L43.5886 9.43023C43.5886 9.43023 45.0732 10.9846 45.8201 11.9806M42.6322 10.7054C42.6322 10.7054 42.3135 11.9806 43.2698 11.9806M45.8201 11.9806C44.8242 12.354 44.2658 12.354 43.2698 11.9806M45.8201 11.9806C46.0164 12.7654 45.7295 13.4295 45.1826 14.0471M45.8201 11.9806V9.43023M43.2698 11.9806C43.0496 12.7467 43.4094 14.546 43.9074 15.1685M43.9074 15.1685C43.3364 15.1685 42.7937 14.9411 42.3135 14.6222M43.9074 15.1685C44.3977 14.8007 44.8409 14.433 45.1826 14.0471M40.4007 12.6181C40.4007 12.6181 41.185 13.873 42.3135 14.6222M45.8201 9.43023C45.8201 9.43023 48.3705 11.0242 48.3705 13.8933C48.3705 16.7624 46.7842 16.214 47.0953 17.4M8.70654 43.8596L6.92774 42.9032L5.33379 43.8596L3.3456 42.5844M47.0953 17.4L45.1826 14.0471M39.4443 3.05443C39.4443 3.05443 37.8411 4.28587 36.894 4.32959C35.8315 4.37863 34.6625 3.05443 34.6625 3.05443L36.894 3.37322L39.4443 3.05443ZM42.3135 4.96717L43.2698 6.24233C43.2698 6.24233 43.189 7.51748 42.6322 7.51749C42.0755 7.51749 41.9947 6.24233 41.9947 6.24233L42.3135 4.96717Z" stroke="black" stroke-width="0.1"/>
<circle cx="40.6457" cy="7.21641" r="0.478186" fill="black"/>
<ellipse cx="44.4712" cy="7.21641" rx="0.478184" ry="0.478186" fill="black"/>
<path d="M43.2698 11.9806C44.2658 12.354 44.8242 12.354 45.8201 11.9806C46.0164 12.7654 45.7295 13.4295 45.1826 14.0471C44.8409 14.433 44.3977 14.8007 43.9074 15.1685C43.4094 14.546 43.0496 12.7467 43.2698 11.9806Z" fill="black"/>
<path d="M38.488 35.2522C37.741 39.8586 34.9813 40.0341 36.5752 47.0475M38.488 35.2522C36.247 32.7623 34.9907 31.3663 32.7497 28.8764M38.488 35.2522C39.3594 36.7462 39.848 37.5838 40.7195 39.0777M36.5752 47.0475C34.9813 47.0475 32.7497 47.0475 32.7497 47.0475C29.3436 43.6414 28.0783 40.8019 27.9445 38.4401M36.5752 47.0475C38.1692 47.0475 40.7195 47.0475 40.7195 47.0475C38.488 43.5408 40.7195 42.1901 40.7195 39.0777M32.7497 28.8764C30.5182 24.4134 29.442 18.2186 28.9243 13.2557M32.7497 28.8764C32.7497 30.4067 27.6527 33.2862 27.9445 38.4401M40.7195 39.0777C49.008 31.108 49.008 28.5576 49.6456 22.8194M49.6456 22.8194C50.2832 17.0812 50.3363 12.6181 47.4141 9.43023M49.6456 22.8194C49.008 23.457 47.4141 24.5409 46.1389 23.7758C46.1389 23.7758 47.9493 22.7025 48.3705 21.5443C48.7108 20.6083 48.7364 19.9202 48.3705 18.9939C48.0776 18.2525 47.2976 18.1711 47.0953 17.4M28.9243 13.2557C29.8806 8.47386 34.0249 2.41685 34.0249 2.41685M28.9243 13.2557C11.0664 12.981 1.25876 16.2578 0.113406 32.0643M28.9243 13.2557L34.0249 2.41685M7.56532 33.0207C7.56532 33.0207 5.33093 35.3522 3.89923 36.8462M3.89923 36.8462C2.46753 38.3401 0.233142 40.6717 0.233142 40.6717C-0.0311838 37.4557 -0.0702531 34.5989 0.113406 32.0643M3.89923 36.8462L0.113406 32.0643M3.89923 36.8462C3.20352 38.7014 3.1826 40.8566 3.3456 42.5844M9.47806 45.7723H3.89923C3.89923 45.7723 3.51871 44.4193 3.3456 42.5844M9.47806 45.7723C9.47806 45.7723 9.40131 42.1726 10.1156 40.0341M9.47806 45.7723H15.8539C15.8539 45.7723 14.8987 43.9698 14.5787 42.9032M9.47806 45.7723C9.47806 45.7723 8.91709 45.1179 8.70654 43.8596M9.47806 45.7723L13.3035 42.5844L14.5787 42.9032M17.7666 31.7455C17.7666 31.7455 11.3908 35.2522 9.47806 39.3965C8.60117 41.2964 8.52829 42.7944 8.70654 43.8596M17.7666 31.7455C17.7666 31.7455 11.5112 35.8559 10.1156 40.0341M17.7666 31.7455L14.8975 35.8898L10.1156 40.0341M14.5787 42.9032C14.0421 41.1145 14.2806 39.6343 14.8975 38.7589C15.5144 37.8835 16.8102 36.8462 16.8102 36.8462V39.3965L20.9545 35.8898L21.5921 38.7589L23.5048 36.8462L24.78 38.4401L26.6927 36.8462L27.9445 38.4401M47.4141 9.43023C44.4918 6.24233 46.1389 4.0108 46.1389 4.0108C46.1389 4.0108 47.4902 4.33525 48.3705 4.32959C50.4978 4.31591 46.1389 -0.771057 43.2698 2.41685H40.0819C40.0819 2.41685 38.488 -0.771057 34.0249 2.41685M47.4141 9.43023H45.8201M34.0249 2.41685C28.5374 15.1685 40.337 23.8395 41.3571 25.3697C41.3571 25.3697 41.3315 23.266 40.7195 22.1818C40.193 21.2492 39.1256 20.5879 39.1256 20.5879C39.1256 20.5879 40.7905 18.9939 40.7195 18.3564M40.7195 18.3564C40.6485 17.7188 36.5752 13.8933 35.9377 12.6181C35.6189 11.9806 37.6265 9.97319 39.1256 9.43023C40.6872 8.86457 42.6322 10.7054 42.6322 10.7054M40.7195 18.3564C41.9947 17.4 42.3135 14.6222 42.3135 14.6222M42.6322 10.7054L43.5886 9.43023C43.5886 9.43023 45.0732 10.9846 45.8201 11.9806M42.6322 10.7054C42.6322 10.7054 42.3135 11.9806 43.2698 11.9806M45.8201 11.9806C44.8242 12.354 44.2658 12.354 43.2698 11.9806M45.8201 11.9806C46.0164 12.7654 45.7295 13.4295 45.1826 14.0471M45.8201 11.9806V9.43023M43.2698 11.9806C43.0496 12.7467 43.4094 14.546 43.9074 15.1685M43.9074 15.1685C43.3364 15.1685 42.7937 14.9411 42.3135 14.6222M43.9074 15.1685C44.3977 14.8007 44.8409 14.433 45.1826 14.0471M40.4007 12.6181C40.4007 12.6181 41.185 13.873 42.3135 14.6222M45.8201 9.43023C45.8201 9.43023 48.3705 11.0242 48.3705 13.8933C48.3705 16.7624 46.7842 16.214 47.0953 17.4M8.70654 43.8596L6.92774 42.9032L5.33379 43.8596L3.3456 42.5844M47.0953 17.4L45.1826 14.0471M39.4443 3.05443C39.4443 3.05443 37.8411 4.28587 36.894 4.32959C35.8315 4.37863 34.6625 3.05443 34.6625 3.05443L36.894 3.37322L39.4443 3.05443ZM42.3135 4.96717L43.2698 6.24233C43.2698 6.24233 43.189 7.51748 42.6322 7.51749C42.0755 7.51749 41.9947 6.24233 41.9947 6.24233L42.3135 4.96717Z" stroke="black" stroke-width="0.1"/>
</svg>
