<svg width="24" height="24" viewBox="0 0 24 24" fill="none" xmlns="http://www.w3.org/2000/svg">
<path d="M19.4286 7.71429C19.4286 3.45536 15.9732 0 11.7143 0C7.45536 0 4 3.45536 4 7.71429C4 11.3839 6.56607 14.4589 10 15.2357V18H8.07143C7.71786 18 7.42857 18.2893 7.42857 18.6429V20.7857C7.42857 21.1393 7.71786 21.4286 8.07143 21.4286H10V23.3571C10 23.7107 10.2893 24 10.6429 24H12.7857C13.1393 24 13.4286 23.7107 13.4286 23.3571V21.4286H15.3571C15.7107 21.4286 16 21.1393 16 20.7857V18.6429C16 18.2893 15.7107 18 15.3571 18H13.4286V15.2357C16.8625 14.4589 19.4286 11.3839 19.4286 7.71429ZM7.42857 7.71429C7.42857 5.35179 9.35179 3.42857 11.7143 3.42857C14.0768 3.42857 16 5.35179 16 7.71429C16 10.0768 14.0768 12 11.7143 12C9.35179 12 7.42857 10.0768 7.42857 7.71429Z" fill="#373c42"/>
</svg>
