<svg width="24" height="24" viewBox="0 0 24 24" fill="none" xmlns="http://www.w3.org/2000/svg">
<path d="M23.25 0H18.3125C17.6437 0 17.3125 0.80625 17.7812 1.28125L18.8375 2.3375L13.7937 7.38125C12.4062 6.50625 10.7625 6 9 6C4.03125 6 0 10.0312 0 15C0 19.9688 4.03125 24 9 24C13.9688 24 18 19.9688 18 15C18 13.2375 17.4937 11.5938 16.6187 10.2063L21.6625 5.1625L22.7188 6.21875C23.1938 6.69375 24 6.35625 24 5.6875V0.75C24 0.3375 23.6625 0 23.25 0ZM9 20C6.24375 20 4 17.7563 4 15C4 12.2437 6.24375 10 9 10C11.7563 10 14 12.2437 14 15C14 17.7563 11.7563 20 9 20Z" fill="black"/>
</svg>
