<svg width="24" height="20" viewBox="0 0 24 20" fill="none" xmlns="http://www.w3.org/2000/svg">
<path d="M23.6786 1.92857H0.321429C0.23618 1.92857 0.154424 1.89471 0.0941442 1.83443C0.0338647 1.77415 0 1.69239 0 1.60714L0 0.321429C0 0.23618 0.0338647 0.154424 0.0941442 0.0941444C0.154424 0.0338649 0.23618 0 0.321429 0H23.6786C23.7638 0 23.8456 0.0338649 23.9059 0.0941444C23.9661 0.154424 24 0.23618 24 0.321429V1.60714C24 1.69239 23.9661 1.77415 23.9059 1.83443C23.8456 1.89471 23.7638 1.92857 23.6786 1.92857ZM23.6786 10.5H0.321429C0.23618 10.5 0.154424 10.4661 0.0941442 10.4059C0.0338647 10.3456 0 10.2638 0 10.1786L0 8.89286C0 8.80761 0.0338647 8.72585 0.0941442 8.66557C0.154424 8.60529 0.23618 8.57143 0.321429 8.57143H23.6786C23.7638 8.57143 23.8456 8.60529 23.9059 8.66557C23.9661 8.72585 24 8.80761 24 8.89286V10.1786C24 10.2638 23.9661 10.3456 23.9059 10.4059C23.8456 10.4661 23.7638 10.5 23.6786 10.5ZM23.6786 19.0714H0.321429C0.23618 19.0714 0.154424 19.0376 0.0941442 18.9773C0.0338647 18.917 0 18.8352 0 18.75L0 17.4643C0 17.379 0.0338647 17.2973 0.0941442 17.237C0.154424 17.1767 0.23618 17.1429 0.321429 17.1429H23.6786C23.7638 17.1429 23.8456 17.1767 23.9059 17.237C23.9661 17.2973 24 17.379 24 17.4643V18.75C24 18.8352 23.9661 18.917 23.9059 18.9773C23.8456 19.0376 23.7638 19.0714 23.6786 19.0714Z" fill="#373c42"/>
</svg>
