<svg width="24" height="24" viewBox="0 0 24 24" fill="none" xmlns="http://www.w3.org/2000/svg">
<path d="M23 4H3.66667C3.11525 4 2.66667 4.44863 2.66667 5V5.33333H1C0.447708 5.33333 0 5.78104 0 6.33333V18C0 19.1046 0.895417 20 2 20H23C23.5514 20 24 19.5514 24 19V5C24 4.44863 23.5514 4 23 4ZM1.33333 18V6.66667H2.66667V18C2.66667 18.3676 2.36758 18.6667 2 18.6667C1.63242 18.6667 1.33333 18.3676 1.33333 18ZM22.6667 18.6667H3.88575C3.96149 18.4526 4.00013 18.2271 4 18V5.33333H22.6667V18.6667ZM5.83333 14.6667H12.8333C13.1095 14.6667 13.3333 14.4428 13.3333 14.1667V7.16667C13.3333 6.89054 13.1095 6.66667 12.8333 6.66667H5.83333C5.55721 6.66667 5.33333 6.89054 5.33333 7.16667V14.1667C5.33333 14.4428 5.55721 14.6667 5.83333 14.6667ZM6.66667 8H12V13.3333H6.66667V8ZM5.33333 16.8333V16.5C5.33333 16.2239 5.55721 16 5.83333 16H12.8333C13.1095 16 13.3333 16.2239 13.3333 16.5V16.8333C13.3333 17.1095 13.1095 17.3333 12.8333 17.3333H5.83333C5.55721 17.3333 5.33333 17.1095 5.33333 16.8333ZM14.6667 16.8333V16.5C14.6667 16.2239 14.8905 16 15.1667 16H20.8333C21.1095 16 21.3333 16.2239 21.3333 16.5V16.8333C21.3333 17.1095 21.1095 17.3333 20.8333 17.3333H15.1667C14.8905 17.3333 14.6667 17.1095 14.6667 16.8333ZM14.6667 14.1667V13.8333C14.6667 13.5572 14.8905 13.3333 15.1667 13.3333H20.8333C21.1095 13.3333 21.3333 13.5572 21.3333 13.8333V14.1667C21.3333 14.4428 21.1095 14.6667 20.8333 14.6667H15.1667C14.8905 14.6667 14.6667 14.4428 14.6667 14.1667ZM14.6667 8.83333V8.5C14.6667 8.22388 14.8905 8 15.1667 8H20.8333C21.1095 8 21.3333 8.22388 21.3333 8.5V8.83333C21.3333 9.10946 21.1095 9.33333 20.8333 9.33333H15.1667C14.8905 9.33333 14.6667 9.10946 14.6667 8.83333ZM14.6667 11.5V11.1667C14.6667 10.8905 14.8905 10.6667 15.1667 10.6667H20.8333C21.1095 10.6667 21.3333 10.8905 21.3333 11.1667V11.5C21.3333 11.7761 21.1095 12 20.8333 12H15.1667C14.8905 12 14.6667 11.7761 14.6667 11.5Z" fill="black"/>
</svg>
