<svg width="24" height="24" viewBox="0 0 24 24" fill="none" xmlns="http://www.w3.org/2000/svg">
<path d="M12 10.5C8.27767 10.5 3.00001 16.2544 3.00001 19.8867C3.00001 21.5227 4.25673 22.5 6.36283 22.5C8.6522 22.5 10.1639 21.3244 12 21.3244C13.852 21.3244 15.368 22.5 17.6372 22.5C19.7433 22.5 21 21.5227 21 19.8867C21 16.2544 15.7224 10.5 12 10.5ZM17.6372 21C16.6856 21 15.8649 20.7295 14.9958 20.4431C14.0733 20.1389 13.1199 19.8248 12 19.8248C10.8914 19.8248 9.94454 20.1375 9.02861 20.4398C8.15486 20.7281 7.32939 21.0005 6.36283 21.0005C4.50001 21 4.50001 20.1619 4.50001 19.8867C4.50001 16.9383 9.19642 12 12 12C14.8036 12 19.5 16.9383 19.5 19.8867C19.5 20.1619 19.5 21 17.6372 21ZM22.2577 7.55953C22.0903 7.51922 21.9202 7.5 21.751 7.5C20.5392 7.5 19.3313 8.48437 18.9038 9.9089C18.4163 11.5331 19.1274 13.1142 20.4924 13.4405C20.6602 13.4808 20.8299 13.5 20.9991 13.5C22.2108 13.5 23.4188 12.5156 23.8463 11.0911C24.3338 9.46687 23.6227 7.88578 22.2577 7.55953V7.55953ZM22.4095 10.6598C22.1578 11.4984 21.4945 12 20.9991 12C20.9447 12 20.8917 11.9939 20.8411 11.9817C20.6677 11.9405 20.5261 11.8261 20.4202 11.6419C20.2266 11.3053 20.197 10.8192 20.3405 10.3406C20.5922 9.50156 21.2555 9 21.7514 9C21.8058 9 21.8588 9.00609 21.9094 9.01828C22.0828 9.05953 22.2244 9.17437 22.3303 9.35812C22.5235 9.69469 22.5535 10.1808 22.4095 10.6598V10.6598ZM14.9325 8.93484C15.0989 8.97844 15.2677 8.99953 15.4369 8.99953C16.7419 8.99953 18.0722 7.74234 18.5635 5.94093C19.1185 3.90562 18.3928 1.94672 16.9425 1.56468C16.7779 1.52121 16.6084 1.49931 16.4381 1.49953C15.1331 1.49953 13.8028 2.75672 13.3116 4.55859C12.7566 6.5939 13.4822 8.55328 14.9325 8.93484ZM14.7586 4.95375C15.1064 3.67875 15.9577 3 16.4381 3C16.4808 3 16.5211 3.00515 16.5605 3.01547C16.7541 3.06656 16.8942 3.24984 16.9777 3.39468C17.2158 3.80718 17.377 4.58906 17.116 5.54672C16.7681 6.82125 15.9174 7.5 15.4364 7.5C15.3938 7.5 15.3535 7.49484 15.3136 7.48453C15.1205 7.4339 14.9799 7.25062 14.8964 7.10578C14.6588 6.69281 14.4975 5.9114 14.7586 4.95375V4.95375ZM8.56314 9C8.73236 9 8.90111 8.9789 9.06751 8.93531C10.5178 8.55375 11.2435 6.59437 10.6885 4.55906C10.1972 2.75718 8.86689 1.5 7.56189 1.5C7.39267 1.5 7.22392 1.52109 7.05751 1.56515C5.6072 1.94672 4.88158 3.90609 5.43658 5.9414C5.92783 7.74281 7.25861 9 8.56314 9ZM7.02189 3.39468C7.10533 3.24984 7.24595 3.06656 7.43908 3.01547C7.47892 3.00515 7.51876 3 7.56142 3C8.04236 3 8.89314 3.67875 9.24095 4.95375C9.50204 5.9114 9.34079 6.69328 9.10267 7.10578C9.01923 7.25062 8.87908 7.4339 8.68548 7.48453C8.64564 7.49484 8.60579 7.5 8.56314 7.5C8.0822 7.5 7.23142 6.82125 6.88361 5.54625C6.62251 4.58906 6.78376 3.80718 7.02189 3.39468V3.39468ZM3.50814 13.4405C4.87314 13.1142 5.58423 11.5331 5.09626 9.9089C4.66876 8.48437 3.46079 7.5 2.24908 7.5C2.07939 7.5 1.9097 7.51922 1.74236 7.55953C0.377357 7.88578 -0.333737 9.46687 0.153763 11.0911C0.581263 12.5156 1.7897 13.5 3.00095 13.5C3.17064 13.5 3.34033 13.4808 3.50814 13.4405ZM1.59048 10.6594C1.44704 10.1808 1.47658 9.69422 1.67017 9.35812C1.77611 9.1739 1.91767 9.05953 2.09111 9.01828C2.14173 9.00609 2.1947 9 2.24908 9C2.74454 9 3.40783 9.50156 3.65954 10.3402C3.80298 10.8187 3.77345 11.3053 3.57986 11.6419C3.47392 11.8261 3.33236 11.9405 3.15892 11.9817C3.10736 11.9939 3.05579 12 3.00095 12C2.50548 12 1.8422 11.4984 1.59048 10.6594V10.6594Z" fill="black"/>
</svg>
