<svg width="52" height="48" viewBox="0 0 52 48" fill="none" xmlns="http://www.w3.org/2000/svg">
<path d="M39.488 35.2522L33.7497 28.8764C31.5182 24.4134 30.442 18.2186 29.9243 13.2557L35.0249 2.41685C29.5374 15.1685 41.337 23.8395 42.3571 25.3697C42.3571 25.3697 42.3315 23.266 41.7195 22.1818C41.193 21.2492 40.1256 20.5879 40.1256 20.5879C40.1256 20.5879 41.7905 18.9939 41.7195 18.3564C42.9947 17.4 43.3135 14.6222 43.3135 14.6222C43.7937 14.9411 44.3364 15.1685 44.9074 15.1685C45.3977 14.8007 45.8409 14.433 46.1826 14.0471L48.0953 17.4C48.2976 18.1711 49.0776 18.2525 49.3705 18.9939C49.7364 19.9202 49.7108 20.6083 49.3705 21.5443C48.9493 22.7025 47.1389 23.7758 47.1389 23.7758C48.4141 24.5409 50.008 23.457 50.6456 22.8194C50.008 28.5576 50.008 31.108 41.7195 39.0777L39.488 35.2522Z" fill="white"/>
<path d="M39.488 35.2522C38.741 39.8586 35.9813 40.0341 37.5752 47.0475H33.7497C30.3436 43.6414 29.0783 40.8019 28.9445 38.4401C28.6527 33.2862 33.7497 30.4067 33.7497 28.8764L39.488 35.2522Z" fill="white"/>
<path d="M37.5752 47.0475C35.9813 40.0341 38.741 39.8586 39.488 35.2522L41.7195 39.0777C41.7195 42.1901 39.488 43.5408 41.7195 47.0475H37.5752Z" fill="white"/>
<path d="M15.5787 42.9032C15.8987 43.9698 16.8539 45.7723 16.8539 45.7723H10.4781L14.3035 42.5844L15.5787 42.9032Z" fill="white"/>
<path d="M11.1156 40.0341C12.5112 35.8559 18.7666 31.7455 18.7666 31.7455L15.8975 35.8898L11.1156 40.0341Z" fill="white"/>
<path d="M10.4781 45.7723H4.89923C4.89923 45.7723 4.51871 44.4193 4.3456 42.5844L6.33379 43.8596L7.92774 42.9032L9.70654 43.8596C9.9171 45.1179 10.4781 45.7723 10.4781 45.7723Z" fill="white"/>
<path d="M4.89923 36.8462L1.23314 40.6717C0.968815 37.4557 0.929749 34.5989 1.11341 32.0643L4.89923 36.8462Z" fill="white"/>
<path d="M43.6322 10.7054L44.5886 9.43023C44.5886 9.43023 46.0732 10.9846 46.8201 11.9806C45.8242 12.354 45.2658 12.354 44.2698 11.9806C43.3135 11.9806 43.6322 10.7054 43.6322 10.7054Z" fill="white"/>
<path d="M43.3135 4.96717L44.2698 6.24233C44.2698 6.24233 44.189 7.51749 43.6322 7.51749C43.0755 7.51749 42.9947 6.24233 42.9947 6.24233L43.3135 4.96717Z" fill="white"/>
<path d="M40.4443 3.05443C40.4443 3.05443 38.8411 4.28587 37.894 4.32959C36.8315 4.37863 35.6625 3.05443 35.6625 3.05443L37.894 3.37322L40.4443 3.05443Z" fill="white"/>
<path d="M39.488 35.2522C38.741 39.8586 35.9813 40.0341 37.5752 47.0475M39.488 35.2522C37.247 32.7623 35.9907 31.3663 33.7497 28.8764M39.488 35.2522C40.3594 36.7462 40.848 37.5838 41.7195 39.0777M39.488 35.2522L33.7497 28.8764M39.488 35.2522L41.7195 39.0777M37.5752 47.0475C35.9813 47.0475 33.7497 47.0475 33.7497 47.0475M37.5752 47.0475C39.1692 47.0475 41.7195 47.0475 41.7195 47.0475M37.5752 47.0475H33.7497M37.5752 47.0475H41.7195M33.7497 47.0475C30.3436 43.6414 29.0783 40.8019 28.9445 38.4401M33.7497 28.8764C31.5182 24.4134 30.442 18.2186 29.9243 13.2557M33.7497 28.8764C33.7497 30.4067 28.6527 33.2862 28.9445 38.4401M41.7195 39.0777C50.008 31.108 50.008 28.5576 50.6456 22.8194M41.7195 39.0777C41.7195 42.1901 39.488 43.5408 41.7195 47.0475M50.6456 22.8194C51.2832 17.0812 51.3363 12.6181 48.4141 9.43023M50.6456 22.8194C50.008 23.457 48.4141 24.5409 47.1389 23.7758C47.1389 23.7758 48.9493 22.7025 49.3705 21.5443C49.7108 20.6083 49.7364 19.9202 49.3705 18.9939C49.0776 18.2525 48.2976 18.1711 48.0953 17.4M29.9243 13.2557C30.8806 8.47386 35.0249 2.41685 35.0249 2.41685M29.9243 13.2557C12.0664 12.981 2.25876 16.2578 1.11341 32.0643M29.9243 13.2557L35.0249 2.41685M1.23314 40.6717C1.23314 40.6717 3.46753 38.3401 4.89923 36.8462M1.23314 40.6717C0.968816 37.4557 0.929747 34.5989 1.11341 32.0643M1.23314 40.6717L4.89923 36.8462M8.56532 33.0207C8.56532 33.0207 6.33093 35.3522 4.89923 36.8462M4.89923 36.8462L1.11341 32.0643M4.89923 36.8462C4.20352 38.7014 4.1826 40.8566 4.3456 42.5844M10.4781 45.7723H4.89923C4.89923 45.7723 4.51871 44.4193 4.3456 42.5844M10.4781 45.7723C10.4781 45.7723 10.4013 42.1726 11.1156 40.0341M10.4781 45.7723H16.8539C16.8539 45.7723 15.8987 43.9698 15.5787 42.9032M10.4781 45.7723C10.4781 45.7723 9.91709 45.1179 9.70654 43.8596M10.4781 45.7723L14.3035 42.5844L15.5787 42.9032M18.7666 31.7455C18.7666 31.7455 12.3908 35.2522 10.4781 39.3965C9.60117 41.2964 9.52829 42.7944 9.70654 43.8596M18.7666 31.7455C18.7666 31.7455 12.5112 35.8559 11.1156 40.0341M18.7666 31.7455L15.8975 35.8898L11.1156 40.0341M15.5787 42.9032C15.0421 41.1145 15.2806 39.6343 15.8975 38.7589C16.5144 37.8835 17.8102 36.8462 17.8102 36.8462V39.3965L21.9545 35.8898L22.5921 38.7589L24.5048 36.8462L25.78 38.4401L27.6927 36.8462L28.9445 38.4401M48.4141 9.43023C45.4918 6.24233 47.1389 4.0108 47.1389 4.0108C47.1389 4.0108 48.4902 4.33525 49.3705 4.32959C51.4978 4.31591 47.1389 -0.771057 44.2698 2.41685H41.0819C41.0819 2.41685 39.488 -0.771057 35.0249 2.41685M48.4141 9.43023H46.8201M35.0249 2.41685C29.5374 15.1685 41.337 23.8395 42.3571 25.3697C42.3571 25.3697 42.3315 23.266 41.7195 22.1818C41.193 21.2492 40.1256 20.5879 40.1256 20.5879C40.1256 20.5879 41.7905 18.9939 41.7195 18.3564M41.7195 18.3564C41.6485 17.7188 37.5752 13.8933 36.9377 12.6181C36.6189 11.9806 38.6265 9.97319 40.1256 9.43023C41.6872 8.86457 43.6322 10.7054 43.6322 10.7054M41.7195 18.3564C42.9947 17.4 43.3135 14.6222 43.3135 14.6222M43.6322 10.7054L44.5886 9.43023C44.5886 9.43023 46.0732 10.9846 46.8201 11.9806M43.6322 10.7054C43.6322 10.7054 43.3135 11.9806 44.2698 11.9806M46.8201 11.9806C45.8242 12.354 45.2658 12.354 44.2698 11.9806M46.8201 11.9806C47.0164 12.7654 46.7295 13.4295 46.1826 14.0471M46.8201 11.9806V9.43023M44.2698 11.9806C44.0496 12.7467 44.4094 14.546 44.9074 15.1685M44.9074 15.1685C44.3364 15.1685 43.7937 14.9411 43.3135 14.6222M44.9074 15.1685C45.3977 14.8007 45.8409 14.433 46.1826 14.0471M41.4007 12.6181C41.4007 12.6181 42.185 13.873 43.3135 14.6222M46.8201 9.43023C46.8201 9.43023 49.3705 11.0242 49.3705 13.8933C49.3705 16.7624 47.7842 16.214 48.0953 17.4M9.70654 43.8596L7.92774 42.9032L6.33379 43.8596L4.3456 42.5844M48.0953 17.4L46.1826 14.0471M40.4443 3.05443C40.4443 3.05443 38.8411 4.28587 37.894 4.32959C36.8315 4.37863 35.6625 3.05443 35.6625 3.05443L37.894 3.37322L40.4443 3.05443ZM43.3135 4.96717L44.2698 6.24233C44.2698 6.24233 44.189 7.51748 43.6322 7.51749C43.0755 7.51749 42.9947 6.24233 42.9947 6.24233L43.3135 4.96717Z" stroke="black" stroke-width="0.1"/>
<path d="M29.9243 13.2557C30.442 18.2186 31.5182 24.4134 33.7497 28.8764C33.7497 30.4067 28.6527 33.2862 28.9445 38.4401L27.6927 36.8462L25.78 38.4401L24.5048 36.8462L22.5921 38.7589L21.9545 35.8898L17.8102 39.3965V36.8462C17.8102 36.8462 16.5144 37.8835 15.8975 38.7589C15.2806 39.6343 15.0421 41.1145 15.5787 42.9032L14.3035 42.5844L10.4781 45.7723C10.4781 45.7723 10.4013 42.1726 11.1156 40.0341L15.8975 35.8898L18.7666 31.7455C18.7666 31.7455 12.3908 35.2522 10.4781 39.3965C9.60117 41.2964 9.52829 42.7944 9.70654 43.8596L7.92774 42.9032L6.33379 43.8596L4.3456 42.5844C4.1826 40.8566 4.20351 38.7014 4.89923 36.8462L1.11341 32.0643C2.25876 16.2578 12.0664 12.981 29.9243 13.2557Z" fill="white"/>
<path fill-rule="evenodd" clip-rule="evenodd" d="M47.1389 4.0108C47.1389 4.0108 45.4918 6.24233 48.4141 9.43023H46.8201V11.9806C46.0732 10.9846 44.5886 9.43023 44.5886 9.43023L43.6322 10.7054C43.6322 10.7054 41.6872 8.86457 40.1256 9.43023C38.6265 9.97319 36.6189 11.9806 36.9377 12.6181C37.5752 13.8933 41.6485 17.7188 41.7195 18.3564C41.7905 18.9939 40.1256 20.5879 40.1256 20.5879C40.1256 20.5879 41.193 21.2492 41.7195 22.1818C42.3315 23.266 42.3571 25.3697 42.3571 25.3697C41.337 23.8395 29.5374 15.1685 35.0249 2.41685C39.488 -0.771057 41.0819 2.41685 41.0819 2.41685H44.2698C47.1389 -0.771057 51.4978 4.31591 49.3705 4.32959C48.4902 4.33525 47.1389 4.0108 47.1389 4.0108ZM37.894 4.32959C38.8411 4.28587 40.4443 3.05443 40.4443 3.05443L37.894 3.37322L35.6625 3.05443C35.6625 3.05443 36.8315 4.37863 37.894 4.32959ZM44.2698 6.24233L43.3135 4.96717L42.9947 6.24233C42.9947 6.24233 43.0755 7.51749 43.6322 7.51749C44.189 7.51749 44.2698 6.24233 44.2698 6.24233Z" fill="white"/>
<path d="M48.4141 9.43023C51.3363 12.6181 51.2832 17.0812 50.6456 22.8194C50.008 23.457 48.4141 24.5409 47.1389 23.7758C47.1389 23.7758 48.9493 22.7025 49.3705 21.5443C49.7108 20.6083 49.7364 19.9202 49.3705 18.9939C49.0776 18.2525 48.2976 18.1711 48.0953 17.4C47.7842 16.214 49.3705 16.7624 49.3705 13.8933C49.3705 11.0242 46.8201 9.43023 46.8201 9.43023H48.4141Z" fill="white"/>
<path d="M44.2698 11.9806C45.2658 12.354 45.8242 12.354 46.8201 11.9806C47.0164 12.7654 46.7295 13.4295 46.1826 14.0471C45.8409 14.433 45.3977 14.8007 44.9074 15.1685C44.4094 14.546 44.0496 12.7467 44.2698 11.9806Z" fill="white"/>
<path d="M35.0249 2.41685C35.0249 2.41685 30.8806 8.47386 29.9243 13.2557L35.0249 2.41685Z" fill="white"/>
<path d="M39.488 35.2522C38.741 39.8586 35.9813 40.0341 37.5752 47.0475M39.488 35.2522C37.247 32.7623 35.9907 31.3663 33.7497 28.8764M39.488 35.2522C40.3594 36.7462 40.848 37.5838 41.7195 39.0777M37.5752 47.0475C35.9813 47.0475 33.7497 47.0475 33.7497 47.0475C30.3436 43.6414 29.0783 40.8019 28.9445 38.4401M37.5752 47.0475C39.1692 47.0475 41.7195 47.0475 41.7195 47.0475C39.488 43.5408 41.7195 42.1901 41.7195 39.0777M33.7497 28.8764C31.5182 24.4134 30.442 18.2186 29.9243 13.2557M33.7497 28.8764C33.7497 30.4067 28.6527 33.2862 28.9445 38.4401M41.7195 39.0777C50.008 31.108 50.008 28.5576 50.6456 22.8194M50.6456 22.8194C51.2832 17.0812 51.3363 12.6181 48.4141 9.43023M50.6456 22.8194C50.008 23.457 48.4141 24.5409 47.1389 23.7758C47.1389 23.7758 48.9493 22.7025 49.3705 21.5443C49.7108 20.6083 49.7364 19.9202 49.3705 18.9939C49.0776 18.2525 48.2976 18.1711 48.0953 17.4M29.9243 13.2557C30.8806 8.47386 35.0249 2.41685 35.0249 2.41685M29.9243 13.2557C12.0664 12.981 2.25876 16.2578 1.11341 32.0643M29.9243 13.2557L35.0249 2.41685M8.56532 33.0207C8.56532 33.0207 6.33093 35.3522 4.89923 36.8462M4.89923 36.8462C3.46753 38.3401 1.23314 40.6717 1.23314 40.6717C0.968816 37.4557 0.929747 34.5989 1.11341 32.0643M4.89923 36.8462L1.11341 32.0643M4.89923 36.8462C4.20352 38.7014 4.1826 40.8566 4.3456 42.5844M10.4781 45.7723H4.89923C4.89923 45.7723 4.51871 44.4193 4.3456 42.5844M10.4781 45.7723C10.4781 45.7723 10.4013 42.1726 11.1156 40.0341M10.4781 45.7723H16.8539C16.8539 45.7723 15.8987 43.9698 15.5787 42.9032M10.4781 45.7723C10.4781 45.7723 9.91709 45.1179 9.70654 43.8596M10.4781 45.7723L14.3035 42.5844L15.5787 42.9032M18.7666 31.7455C18.7666 31.7455 12.3908 35.2522 10.4781 39.3965C9.60117 41.2964 9.52829 42.7944 9.70654 43.8596M18.7666 31.7455C18.7666 31.7455 12.5112 35.8559 11.1156 40.0341M18.7666 31.7455L15.8975 35.8898L11.1156 40.0341M15.5787 42.9032C15.0421 41.1145 15.2806 39.6343 15.8975 38.7589C16.5144 37.8835 17.8102 36.8462 17.8102 36.8462V39.3965L21.9545 35.8898L22.5921 38.7589L24.5048 36.8462L25.78 38.4401L27.6927 36.8462L28.9445 38.4401M48.4141 9.43023C45.4918 6.24233 47.1389 4.0108 47.1389 4.0108C47.1389 4.0108 48.4902 4.33525 49.3705 4.32959C51.4978 4.31591 47.1389 -0.771057 44.2698 2.41685H41.0819C41.0819 2.41685 39.488 -0.771057 35.0249 2.41685M48.4141 9.43023H46.8201M35.0249 2.41685C29.5374 15.1685 41.337 23.8395 42.3571 25.3697C42.3571 25.3697 42.3315 23.266 41.7195 22.1818C41.193 21.2492 40.1256 20.5879 40.1256 20.5879C40.1256 20.5879 41.7905 18.9939 41.7195 18.3564M41.7195 18.3564C41.6485 17.7188 37.5752 13.8933 36.9377 12.6181C36.6189 11.9806 38.6265 9.97319 40.1256 9.43023C41.6872 8.86457 43.6322 10.7054 43.6322 10.7054M41.7195 18.3564C42.9947 17.4 43.3135 14.6222 43.3135 14.6222M43.6322 10.7054L44.5886 9.43023C44.5886 9.43023 46.0732 10.9846 46.8201 11.9806M43.6322 10.7054C43.6322 10.7054 43.3135 11.9806 44.2698 11.9806M46.8201 11.9806C45.8242 12.354 45.2658 12.354 44.2698 11.9806M46.8201 11.9806C47.0164 12.7654 46.7295 13.4295 46.1826 14.0471M46.8201 11.9806V9.43023M44.2698 11.9806C44.0496 12.7467 44.4094 14.546 44.9074 15.1685M44.9074 15.1685C44.3364 15.1685 43.7937 14.9411 43.3135 14.6222M44.9074 15.1685C45.3977 14.8007 45.8409 14.433 46.1826 14.0471M41.4007 12.6181C41.4007 12.6181 42.185 13.873 43.3135 14.6222M46.8201 9.43023C46.8201 9.43023 49.3705 11.0242 49.3705 13.8933C49.3705 16.7624 47.7842 16.214 48.0953 17.4M9.70654 43.8596L7.92774 42.9032L6.33379 43.8596L4.3456 42.5844M48.0953 17.4L46.1826 14.0471M40.4443 3.05443C40.4443 3.05443 38.8411 4.28587 37.894 4.32959C36.8315 4.37863 35.6625 3.05443 35.6625 3.05443L37.894 3.37322L40.4443 3.05443ZM43.3135 4.96717L44.2698 6.24233C44.2698 6.24233 44.189 7.51748 43.6322 7.51749C43.0755 7.51749 42.9947 6.24233 42.9947 6.24233L43.3135 4.96717Z" stroke="black" stroke-width="0.1"/>
<path fill-rule="evenodd" clip-rule="evenodd" d="M47.1389 4.0108C47.1389 4.0108 45.4918 6.24233 48.4141 9.43023H46.8201V11.9806C46.0732 10.9846 44.5886 9.43023 44.5886 9.43023L43.6322 10.7054C43.6322 10.7054 41.6872 8.86457 40.1256 9.43023C38.6265 9.97319 36.6189 11.9806 36.9377 12.6181C37.5752 13.8933 41.6485 17.7188 41.7195 18.3564C41.7905 18.9939 40.1256 20.5879 40.1256 20.5879C40.1256 20.5879 41.193 21.2492 41.7195 22.1818C42.3315 23.266 42.3571 25.3697 42.3571 25.3697C41.337 23.8395 29.5374 15.1685 35.0249 2.41685C39.488 -0.771057 41.0819 2.41685 41.0819 2.41685H44.2698C47.1389 -0.771057 51.4978 4.31591 49.3705 4.32959C48.4902 4.33525 47.1389 4.0108 47.1389 4.0108ZM37.894 4.32959C38.8411 4.28587 40.4443 3.05443 40.4443 3.05443L37.894 3.37322L35.6625 3.05443C35.6625 3.05443 36.8315 4.37863 37.894 4.32959ZM44.2698 6.24233L43.3135 4.96717L42.9947 6.24233C42.9947 6.24233 43.0755 7.51749 43.6322 7.51749C44.189 7.51749 44.2698 6.24233 44.2698 6.24233Z" fill="#945410"/>
<path d="M48.4141 9.43023C51.3363 12.6181 51.2832 17.0812 50.6456 22.8194C50.008 23.457 48.4141 24.5409 47.1389 23.7758C47.1389 23.7758 48.9493 22.7025 49.3705 21.5443C49.7108 20.6083 49.7364 19.9202 49.3705 18.9939C49.0776 18.2525 48.2976 18.1711 48.0953 17.4C47.7842 16.214 49.3705 16.7624 49.3705 13.8933C49.3705 11.0242 46.8201 9.43023 46.8201 9.43023H48.4141Z" fill="#945410"/>
<path d="M48.4141 9.43023C51.3363 12.6181 51.2832 17.0812 50.6456 22.8194C50.008 23.457 48.4141 24.5409 47.1389 23.7758C47.1389 23.7758 48.9493 22.7025 49.3705 21.5443C49.7108 20.6083 49.7364 19.9202 49.3705 18.9939C49.0776 18.2525 48.2976 18.1711 48.0953 17.4M48.4141 9.43023C45.4918 6.24233 47.1389 4.0108 47.1389 4.0108C47.1389 4.0108 48.4902 4.33525 49.3705 4.32959C51.4978 4.31591 47.1389 -0.771057 44.2698 2.41685H41.0819C41.0819 2.41685 39.488 -0.771057 35.0249 2.41685C29.5374 15.1685 41.337 23.8395 42.3571 25.3697C42.3571 25.3697 42.3315 23.266 41.7195 22.1818C41.193 21.2492 40.1256 20.5879 40.1256 20.5879C40.1256 20.5879 41.7905 18.9939 41.7195 18.3564M48.4141 9.43023H46.8201M41.7195 18.3564C41.6485 17.7188 37.5752 13.8933 36.9377 12.6181C36.6189 11.9806 38.6265 9.97319 40.1256 9.43023C41.6872 8.86457 43.6322 10.7054 43.6322 10.7054M41.7195 18.3564C42.9947 17.4 43.3135 14.6222 43.3135 14.6222M43.6322 10.7054L44.5886 9.43023C44.5886 9.43023 46.0732 10.9846 46.8201 11.9806M43.6322 10.7054C43.6322 10.7054 43.3135 11.9806 44.2698 11.9806M46.8201 11.9806C45.8242 12.354 45.2658 12.354 44.2698 11.9806M46.8201 11.9806C47.0164 12.7654 46.7295 13.4295 46.1826 14.0471M46.8201 11.9806V9.43023M44.2698 11.9806C44.0496 12.7467 44.4094 14.546 44.9074 15.1685M44.9074 15.1685C44.3364 15.1685 43.7937 14.9411 43.3135 14.6222M44.9074 15.1685C45.3977 14.8007 45.8409 14.433 46.1826 14.0471M41.4007 12.6181C41.4007 12.6181 42.185 13.873 43.3135 14.6222M46.8201 9.43023C46.8201 9.43023 49.3705 11.0242 49.3705 13.8933C49.3705 16.7624 47.7842 16.214 48.0953 17.4M48.0953 17.4L46.1826 14.0471M40.4443 3.05443C40.4443 3.05443 38.8411 4.28587 37.894 4.32959C36.8315 4.37863 35.6625 3.05443 35.6625 3.05443L37.894 3.37322L40.4443 3.05443ZM43.3135 4.96717L44.2698 6.24233C44.2698 6.24233 44.189 7.51749 43.6322 7.51749C43.0755 7.51749 42.9947 6.24233 42.9947 6.24233L43.3135 4.96717Z" stroke="black" stroke-width="0.1"/>
<path d="M49.3705 13.8933C49.3705 16.7624 47.7842 16.214 48.0953 17.4L46.1826 14.0471C46.7295 13.4295 47.0164 12.7654 46.8201 11.9806V9.43023C46.8201 9.43023 49.3705 11.0242 49.3705 13.8933Z" fill="#AA825F"/>
<path d="M41.7195 18.3564C41.6485 17.7188 37.5752 13.8933 36.9377 12.6181C36.6189 11.9806 38.6265 9.97319 40.1256 9.43023C41.6872 8.86457 43.6322 10.7054 43.6322 10.7054C43.6322 10.7054 43.3135 11.9806 44.2698 11.9806C44.0496 12.7467 44.4094 14.546 44.9074 15.1685C44.3364 15.1685 43.7937 14.9411 43.3135 14.6222C43.3135 14.6222 42.9947 17.4 41.7195 18.3564Z" fill="#AA825F"/>
<path d="M40.4443 3.05443C40.4443 3.05443 38.8411 4.28587 37.894 4.32959C36.8315 4.37863 35.6625 3.05443 35.6625 3.05443L37.894 3.37322L40.4443 3.05443Z" fill="#AA825F"/>
<path d="M44.2698 11.9806C45.2658 12.354 45.8242 12.354 46.8201 11.9806C47.0164 12.7654 46.7295 13.4295 46.1826 14.0471C45.8409 14.433 45.3977 14.8007 44.9074 15.1685C44.4094 14.546 44.0496 12.7467 44.2698 11.9806Z" fill="#AA825F"/>
<path d="M39.488 35.2522C38.741 39.8586 35.9813 40.0341 37.5752 47.0475M39.488 35.2522C37.247 32.7623 35.9907 31.3663 33.7497 28.8764M39.488 35.2522C40.3594 36.7462 40.848 37.5838 41.7195 39.0777M37.5752 47.0475C35.9813 47.0475 33.7497 47.0475 33.7497 47.0475C30.3436 43.6414 29.0783 40.8019 28.9445 38.4401M37.5752 47.0475C39.1692 47.0475 41.7195 47.0475 41.7195 47.0475C39.488 43.5408 41.7195 42.1901 41.7195 39.0777M33.7497 28.8764C31.5182 24.4134 30.442 18.2186 29.9243 13.2557M33.7497 28.8764C33.7497 30.4067 28.6527 33.2862 28.9445 38.4401M41.7195 39.0777C50.008 31.108 50.008 28.5576 50.6456 22.8194M50.6456 22.8194C51.2832 17.0812 51.3363 12.6181 48.4141 9.43023M50.6456 22.8194C50.008 23.457 48.4141 24.5409 47.1389 23.7758C47.1389 23.7758 48.9493 22.7025 49.3705 21.5443C49.7108 20.6083 49.7364 19.9202 49.3705 18.9939C49.0776 18.2525 48.2976 18.1711 48.0953 17.4M29.9243 13.2557C30.8806 8.47386 35.0249 2.41685 35.0249 2.41685M29.9243 13.2557C12.0664 12.981 2.25876 16.2578 1.11341 32.0643M29.9243 13.2557L35.0249 2.41685M8.56532 33.0207C8.56532 33.0207 6.33093 35.3522 4.89923 36.8462M4.89923 36.8462C3.46753 38.3401 1.23314 40.6717 1.23314 40.6717C0.968816 37.4557 0.929747 34.5989 1.11341 32.0643M4.89923 36.8462L1.11341 32.0643M4.89923 36.8462C4.20352 38.7014 4.1826 40.8566 4.3456 42.5844M10.4781 45.7723H4.89923C4.89923 45.7723 4.51871 44.4193 4.3456 42.5844M10.4781 45.7723C10.4781 45.7723 10.4013 42.1726 11.1156 40.0341M10.4781 45.7723H16.8539C16.8539 45.7723 15.8987 43.9698 15.5787 42.9032M10.4781 45.7723C10.4781 45.7723 9.91709 45.1179 9.70654 43.8596M10.4781 45.7723L14.3035 42.5844L15.5787 42.9032M18.7666 31.7455C18.7666 31.7455 12.3908 35.2522 10.4781 39.3965C9.60117 41.2964 9.52829 42.7944 9.70654 43.8596M18.7666 31.7455C18.7666 31.7455 12.5112 35.8559 11.1156 40.0341M18.7666 31.7455L15.8975 35.8898L11.1156 40.0341M15.5787 42.9032C15.0421 41.1145 15.2806 39.6343 15.8975 38.7589C16.5144 37.8835 17.8102 36.8462 17.8102 36.8462V39.3965L21.9545 35.8898L22.5921 38.7589L24.5048 36.8462L25.78 38.4401L27.6927 36.8462L28.9445 38.4401M48.4141 9.43023C45.4918 6.24233 47.1389 4.0108 47.1389 4.0108C47.1389 4.0108 48.4902 4.33525 49.3705 4.32959C51.4978 4.31591 47.1389 -0.771057 44.2698 2.41685H41.0819C41.0819 2.41685 39.488 -0.771057 35.0249 2.41685M48.4141 9.43023H46.8201M35.0249 2.41685C29.5374 15.1685 41.337 23.8395 42.3571 25.3697C42.3571 25.3697 42.3315 23.266 41.7195 22.1818C41.193 21.2492 40.1256 20.5879 40.1256 20.5879C40.1256 20.5879 41.7905 18.9939 41.7195 18.3564M41.7195 18.3564C41.6485 17.7188 37.5752 13.8933 36.9377 12.6181C36.6189 11.9806 38.6265 9.97319 40.1256 9.43023C41.6872 8.86457 43.6322 10.7054 43.6322 10.7054M41.7195 18.3564C42.9947 17.4 43.3135 14.6222 43.3135 14.6222M43.6322 10.7054L44.5886 9.43023C44.5886 9.43023 46.0732 10.9846 46.8201 11.9806M43.6322 10.7054C43.6322 10.7054 43.3135 11.9806 44.2698 11.9806M46.8201 11.9806C45.8242 12.354 45.2658 12.354 44.2698 11.9806M46.8201 11.9806C47.0164 12.7654 46.7295 13.4295 46.1826 14.0471M46.8201 11.9806V9.43023M44.2698 11.9806C44.0496 12.7467 44.4094 14.546 44.9074 15.1685M44.9074 15.1685C44.3364 15.1685 43.7937 14.9411 43.3135 14.6222M44.9074 15.1685C45.3977 14.8007 45.8409 14.433 46.1826 14.0471M41.4007 12.6181C41.4007 12.6181 42.185 13.873 43.3135 14.6222M46.8201 9.43023C46.8201 9.43023 49.3705 11.0242 49.3705 13.8933C49.3705 16.7624 47.7842 16.214 48.0953 17.4M9.70654 43.8596L7.92774 42.9032L6.33379 43.8596L4.3456 42.5844M48.0953 17.4L46.1826 14.0471M40.4443 3.05443C40.4443 3.05443 38.8411 4.28587 37.894 4.32959C36.8315 4.37863 35.6625 3.05443 35.6625 3.05443L37.894 3.37322L40.4443 3.05443ZM43.3135 4.96717L44.2698 6.24233C44.2698 6.24233 44.189 7.51748 43.6322 7.51749C43.0755 7.51749 42.9947 6.24233 42.9947 6.24233L43.3135 4.96717Z" stroke="black" stroke-width="0.1"/>
<circle cx="41.6457" cy="7.21641" r="0.478186" fill="black"/>
<ellipse cx="45.4712" cy="7.21641" rx="0.478184" ry="0.478186" fill="black"/>
<path d="M44.2698 11.9806C45.2658 12.354 45.8242 12.354 46.8201 11.9806C47.0164 12.7654 46.7295 13.4295 46.1826 14.0471C45.8409 14.433 45.3977 14.8007 44.9074 15.1685C44.4094 14.546 44.0496 12.7467 44.2698 11.9806Z" fill="black"/>
<path d="M39.488 35.2522C38.741 39.8586 35.9813 40.0341 37.5752 47.0475M39.488 35.2522C37.247 32.7623 35.9907 31.3663 33.7497 28.8764M39.488 35.2522C40.3594 36.7462 40.848 37.5838 41.7195 39.0777M37.5752 47.0475C35.9813 47.0475 33.7497 47.0475 33.7497 47.0475C30.3436 43.6414 29.0783 40.8019 28.9445 38.4401M37.5752 47.0475C39.1692 47.0475 41.7195 47.0475 41.7195 47.0475C39.488 43.5408 41.7195 42.1901 41.7195 39.0777M33.7497 28.8764C31.5182 24.4134 30.442 18.2186 29.9243 13.2557M33.7497 28.8764C33.7497 30.4067 28.6527 33.2862 28.9445 38.4401M41.7195 39.0777C50.008 31.108 50.008 28.5576 50.6456 22.8194M50.6456 22.8194C51.2832 17.0812 51.3363 12.6181 48.4141 9.43023M50.6456 22.8194C50.008 23.457 48.4141 24.5409 47.1389 23.7758C47.1389 23.7758 48.9493 22.7025 49.3705 21.5443C49.7108 20.6083 49.7364 19.9202 49.3705 18.9939C49.0776 18.2525 48.2976 18.1711 48.0953 17.4M29.9243 13.2557C30.8806 8.47386 35.0249 2.41685 35.0249 2.41685M29.9243 13.2557C12.0664 12.981 2.25876 16.2578 1.11341 32.0643M29.9243 13.2557L35.0249 2.41685M8.56532 33.0207C8.56532 33.0207 6.33093 35.3522 4.89923 36.8462M4.89923 36.8462C3.46753 38.3401 1.23314 40.6717 1.23314 40.6717C0.968816 37.4557 0.929747 34.5989 1.11341 32.0643M4.89923 36.8462L1.11341 32.0643M4.89923 36.8462C4.20352 38.7014 4.1826 40.8566 4.3456 42.5844M10.4781 45.7723H4.89923C4.89923 45.7723 4.51871 44.4193 4.3456 42.5844M10.4781 45.7723C10.4781 45.7723 10.4013 42.1726 11.1156 40.0341M10.4781 45.7723H16.8539C16.8539 45.7723 15.8987 43.9698 15.5787 42.9032M10.4781 45.7723C10.4781 45.7723 9.91709 45.1179 9.70654 43.8596M10.4781 45.7723L14.3035 42.5844L15.5787 42.9032M18.7666 31.7455C18.7666 31.7455 12.3908 35.2522 10.4781 39.3965C9.60117 41.2964 9.52829 42.7944 9.70654 43.8596M18.7666 31.7455C18.7666 31.7455 12.5112 35.8559 11.1156 40.0341M18.7666 31.7455L15.8975 35.8898L11.1156 40.0341M15.5787 42.9032C15.0421 41.1145 15.2806 39.6343 15.8975 38.7589C16.5144 37.8835 17.8102 36.8462 17.8102 36.8462V39.3965L21.9545 35.8898L22.5921 38.7589L24.5048 36.8462L25.78 38.4401L27.6927 36.8462L28.9445 38.4401M48.4141 9.43023C45.4918 6.24233 47.1389 4.0108 47.1389 4.0108C47.1389 4.0108 48.4902 4.33525 49.3705 4.32959C51.4978 4.31591 47.1389 -0.771057 44.2698 2.41685H41.0819C41.0819 2.41685 39.488 -0.771057 35.0249 2.41685M48.4141 9.43023H46.8201M35.0249 2.41685C29.5374 15.1685 41.337 23.8395 42.3571 25.3697C42.3571 25.3697 42.3315 23.266 41.7195 22.1818C41.193 21.2492 40.1256 20.5879 40.1256 20.5879C40.1256 20.5879 41.7905 18.9939 41.7195 18.3564M41.7195 18.3564C41.6485 17.7188 37.5752 13.8933 36.9377 12.6181C36.6189 11.9806 38.6265 9.97319 40.1256 9.43023C41.6872 8.86457 43.6322 10.7054 43.6322 10.7054M41.7195 18.3564C42.9947 17.4 43.3135 14.6222 43.3135 14.6222M43.6322 10.7054L44.5886 9.43023C44.5886 9.43023 46.0732 10.9846 46.8201 11.9806M43.6322 10.7054C43.6322 10.7054 43.3135 11.9806 44.2698 11.9806M46.8201 11.9806C45.8242 12.354 45.2658 12.354 44.2698 11.9806M46.8201 11.9806C47.0164 12.7654 46.7295 13.4295 46.1826 14.0471M46.8201 11.9806V9.43023M44.2698 11.9806C44.0496 12.7467 44.4094 14.546 44.9074 15.1685M44.9074 15.1685C44.3364 15.1685 43.7937 14.9411 43.3135 14.6222M44.9074 15.1685C45.3977 14.8007 45.8409 14.433 46.1826 14.0471M41.4007 12.6181C41.4007 12.6181 42.185 13.873 43.3135 14.6222M46.8201 9.43023C46.8201 9.43023 49.3705 11.0242 49.3705 13.8933C49.3705 16.7624 47.7842 16.214 48.0953 17.4M9.70654 43.8596L7.92774 42.9032L6.33379 43.8596L4.3456 42.5844M48.0953 17.4L46.1826 14.0471M40.4443 3.05443C40.4443 3.05443 38.8411 4.28587 37.894 4.32959C36.8315 4.37863 35.6625 3.05443 35.6625 3.05443L37.894 3.37322L40.4443 3.05443ZM43.3135 4.96717L44.2698 6.24233C44.2698 6.24233 44.189 7.51748 43.6322 7.51749C43.0755 7.51749 42.9947 6.24233 42.9947 6.24233L43.3135 4.96717Z" stroke="black" stroke-width="0.1"/>
<path d="M16 25L12.6667 25.6667L12 27.6667L11 29.6667L13.3333 30L16.3333 29.6667L17.6667 27.3333L20 25.6667L16 25Z" fill="#945410"/>
</svg>
